<svg width="23" height="12" viewBox="0 0 23 12" fill="none" xmlns="http://www.w3.org/2000/svg">
<path d="M11.2 0C5.01536 0 0 6 0 6C0 6 5.01536 12 11.2 12C17.3846 12 22.4 6 22.4 6C22.4 6 17.3846 0 11.2 0ZM11.2 11.0519C8.456 11.0519 6.22272 8.78515 6.22272 6C6.22272 3.21485 8.456 0.948086 11.2 0.948086C13.944 0.948086 16.1773 3.21485 16.1773 6C16.1773 8.78515 13.944 11.0519 11.2 11.0519Z" fill="#C9C9C7"/>
<path d="M12.9942 5.10432C12.4992 5.10432 12.0982 4.69734 12.0982 4.19488C12.0982 3.94024 12.2035 3.71061 12.3693 3.54464C12.0154 3.36957 11.6189 3.26953 11.2 3.26953C9.71713 3.26953 8.50977 4.495 8.50977 6.00011C8.50977 7.50523 9.71713 8.73069 11.2 8.73069C12.6829 8.73069 13.8902 7.50523 13.8902 6.00011C13.8902 5.58404 13.7962 5.18844 13.6304 4.83603C13.4669 5.00201 13.2429 5.10432 12.9942 5.10432Z" fill="#C9C9C7"/>
</svg>
