<svg width="29" height="29" viewBox="0 0 29 29" fill="none" xmlns="http://www.w3.org/2000/svg">
<path d="M14.5 20.81C13.81 20.81 13.25 21.37 13.25 22.06C13.25 22.75 13.81 23.31 14.5 23.31C15.19 23.31 15.75 22.75 15.75 22.06C15.75 21.37 15.19 20.81 14.5 20.81ZM29 14.5C29 22.51 22.51 29 14.5 29C6.49 29 0 22.51 0 14.5C0 6.49 6.49 0 14.5 0C22.5 0.01 28.99 6.5 29 14.5Z" fill="#FF0060"/>
<path d="M16.32 7.62006L15.81 17.1201C15.77 17.8401 15.15 18.4001 14.43 18.3601C13.76 18.3201 13.22 17.7901 13.19 17.1201L12.68 7.62006C12.62 6.61006 13.4 5.75006 14.4 5.70006C15.41 5.65006 16.27 6.42006 16.32 7.42006C16.33 7.49006 16.33 7.56006 16.32 7.62006Z" fill="white"/>
</svg>
