<svg width="29" height="29" viewBox="0 0 29 29" fill="none" xmlns="http://www.w3.org/2000/svg">
<path d="M29 14.5C29 22.51 22.51 29 14.5 29C6.49 29 0 22.51 0 14.5C0 6.49 6.49 0 14.5 0C22.5 0.01 28.99 6.5 29 14.5Z" fill="#FF0060"/>
<path d="M16.6432 7.62006L16.1332 17.1201C16.0932 17.8401 15.4732 18.4001 14.7532 18.3601C14.0832 18.3201 13.5432 17.7901 13.5132 17.1201L13.0032 7.62006C12.9432 6.61006 13.7232 5.75006 14.7232 5.70006C15.7332 5.65006 16.5932 6.42006 16.6432 7.42006C16.6532 7.49006 16.6532 7.56006 16.6432 7.62006Z" fill="white"/>
<path d="M16.5 21.5C16.5 22.3284 15.8284 23 15 23C14.1716 23 13.5 22.3284 13.5 21.5C13.5 20.6716 14.1716 20 15 20C15.8284 20 16.5 20.6716 16.5 21.5Z" fill="white"/>
</svg>
