<svg width="15" height="15" viewBox="0 0 15 15" fill="none" xmlns="http://www.w3.org/2000/svg">
<path d="M15 7.5C15 11.6431 11.6431 15 7.5 15C3.3569 15 0 11.6431 0 7.5C0 3.3569 3.3569 0 7.5 0C11.6379 0.00517241 14.9948 3.36207 15 7.5Z" fill="#011A5E"/>
<path d="M8.60904 3.94132L8.34525 8.85511C8.32456 9.22752 8.00387 9.51718 7.63146 9.49649C7.28491 9.4758 7.0056 9.20166 6.99008 8.85511L6.72629 3.94132C6.69525 3.4189 7.0987 2.97408 7.61594 2.94821C8.13836 2.92235 8.58318 3.32063 8.60904 3.83787C8.61422 3.87408 8.61422 3.91028 8.60904 3.94132Z" fill="white"/>
<path d="M8.53414 11.1206C8.53414 11.5491 8.18678 11.8965 7.75828 11.8965C7.32979 11.8965 6.98242 11.5491 6.98242 11.1206C6.98242 10.6921 7.32979 10.3447 7.75828 10.3447C8.18678 10.3447 8.53414 10.6921 8.53414 11.1206Z" fill="white"/>
</svg>
