<svg width="11" height="11" viewBox="0 0 11 11" fill="none" xmlns="http://www.w3.org/2000/svg">
<path d="M10.665 1.95238L7.1172 5.50013L10.665 9.04816C11.1117 9.49475 11.1114 10.2187 10.665 10.6651C10.2184 11.1116 9.49445 11.1114 9.04811 10.6651L5.5 7.11703L1.95189 10.6651C1.50528 11.1116 0.781294 11.1116 0.334956 10.6651C-0.111652 10.2185 -0.111652 9.49448 0.334956 9.04816L3.88307 5.50013L0.335225 1.95184C-0.111383 1.50525 -0.111114 0.781275 0.335225 0.334947C0.558529 0.111649 0.850976 0 1.14369 0C1.43641 0 1.72886 0.111649 1.95216 0.334947L5.49973 3.88297L9.04784 0.335217C9.27114 0.111918 9.56359 0.000268936 9.85631 0.000268936C10.149 0.000268936 10.4415 0.111918 10.6648 0.335217C11.1114 0.781813 11.1114 1.50578 10.665 1.95238Z" fill="#FF0060"/>
</svg>
