<svg width="23" height="23" viewBox="0 0 23 23" fill="none" xmlns="http://www.w3.org/2000/svg">
<path d="M8.50393 13.6593C8.88345 13.2798 8.88345 12.6645 8.50393 12.285C8.12441 11.9055 7.50908 11.9055 7.12956 12.285C6.75004 12.6645 6.75004 13.2798 7.12956 13.6593C7.50908 14.0389 8.12441 14.0389 8.50393 13.6593Z" fill="#DB8F00"/>
<path d="M15.1974 12.0005C14.6597 12.0005 14.2256 12.4346 14.2256 12.9723C14.2256 13.5101 14.6597 13.9442 15.1974 13.9442C15.7206 13.9442 16.1531 13.5101 16.1692 12.9723C16.1692 12.4346 15.7352 12.0005 15.1974 12.0005Z" fill="#DB8F00"/>
<path d="M11.5 0C5.14909 0 0 5.14909 0 11.5C0 17.8509 5.14909 23 11.5 23C17.8509 23 23 17.8509 23 11.5C23 5.14909 17.8509 0 11.5 0ZM18.6041 11.1485C18.6041 11.4466 18.3644 11.6717 18.0809 11.6717H18.0064L18.3206 14.1077C18.3061 14.7654 17.8865 15.3177 17.3051 15.5266V17.0961C17.3051 17.4104 17.0508 17.6646 16.7365 17.6646H15.9899C15.6756 17.6646 15.4213 17.4104 15.4213 17.0961V15.6465H7.57866V17.0961C7.57866 17.4104 7.32437 17.6646 7.01014 17.6646H6.26345C5.94923 17.6646 5.69493 17.4104 5.69493 17.0961V15.5428C5.09725 15.3193 4.67937 14.7654 4.67937 14.0932L5.03732 11.6879H4.91747C4.61944 11.6879 4.3943 11.4482 4.3943 11.1647V10.3581C4.3943 10.0601 4.63401 9.83493 4.91747 9.83493H5.42606L6.27803 6.3088C6.41246 5.92007 6.75585 5.63662 7.17373 5.60585L9.39923 5.42606C10.086 5.36613 10.7889 5.33697 11.4757 5.33697C12.1625 5.33697 12.8654 5.36613 13.5522 5.42606L15.7939 5.60585C16.2118 5.635 16.5551 5.90387 16.6896 6.29261L17.6015 9.83331H18.0793C18.3773 9.83331 18.6025 10.0568 18.6025 10.3419V11.1485H18.6041Z" fill="#DB8F00"/>
<path d="M13.4652 6.77226C12.8076 6.72691 12.15 6.69775 11.4923 6.69775C10.8347 6.69775 10.1771 6.71233 9.51953 6.77226L7.53213 6.93585L6.71094 10.3275H16.3483L15.4671 6.93585L13.4652 6.77226Z" fill="#DB8F00"/>
</svg>
