<svg width="109" height="93" viewBox="0 0 109 93" fill="none" xmlns="http://www.w3.org/2000/svg">
<g clip-path="url(#clip0)">
<path d="M55.1186 93C80.6474 93 101.343 72.1812 101.343 46.5C101.343 20.8188 80.6474 0 55.1186 0C29.5897 0 8.89453 20.8188 8.89453 46.5C8.89453 72.1812 29.5897 93 55.1186 93Z" fill="#FFC9DE"/>
<path d="M33.4078 60.825V26.8894L32.1238 24.5409C31.4234 23.3667 30.1394 22.6621 28.8554 22.6621C28.2718 22.6621 27.5714 22.7795 26.9878 23.1318L1.89139 37.6924C0.140484 38.7492 -0.55988 40.9803 0.490666 42.8591L19.9841 76.7947C21.0347 78.556 23.2525 79.2606 25.1201 78.2038L46.2478 65.9916H38.5438C35.7423 65.8742 33.4078 63.6432 33.4078 60.825Z" fill="#D60051"/>
<path d="M106.946 36.2838L80.7993 23.7194C78.9317 22.78 76.7138 23.602 75.78 25.4808L58.9713 60.8255C58.8545 61.0603 58.8545 61.2952 58.7378 61.4126C58.7378 61.53 58.7378 61.53 58.7378 61.6474C58.7378 61.7649 58.7378 61.8823 58.6211 61.9997C58.6211 62.1171 58.6211 62.2346 58.6211 62.352C58.6211 62.4694 58.6211 62.5868 58.6211 62.7043C58.6211 62.8217 58.6211 62.9391 58.6211 63.0565C58.6211 63.2914 58.7378 63.5262 58.7378 63.7611C59.088 64.7005 59.7884 65.5224 60.6055 65.8747L86.7524 78.4391C88.62 79.3785 90.8378 78.5565 91.7717 76.6778L108.58 41.3331C109.514 39.4543 108.814 37.2232 106.946 36.2838Z" fill="#FF458B"/>
<path d="M29.5557 39.6886L16.4823 47.9083C15.315 48.6129 13.7975 48.2606 12.9804 47.0863C12.2801 45.9121 12.6303 44.3856 13.7975 43.5636L26.871 35.3439C28.0383 34.6394 29.5557 34.9916 30.3728 36.1659C31.0732 37.4576 30.723 38.9841 29.5557 39.6886Z" fill="#FFC9DE"/>
<path d="M34.2247 47.3214L21.1512 55.5411C19.9839 56.2457 18.4665 55.8934 17.6494 54.7191C16.949 53.5449 17.2992 52.0184 18.4665 51.1964L31.5399 42.9767C32.7072 42.2722 34.2247 42.6245 35.0418 43.7987C35.7421 44.9729 35.3919 46.4995 34.2247 47.3214Z" fill="#FFC9DE"/>
<path d="M38.544 54.6017L25.4705 62.8214C24.3033 63.5259 22.7858 63.1737 21.9687 61.9994C21.2684 60.8252 21.6185 59.2987 22.7858 58.4767L35.8593 50.257C37.0266 49.5525 38.544 49.9047 39.3611 51.079C40.0615 52.3706 39.7113 53.8972 38.544 54.6017Z" fill="#FFC9DE"/>
<path d="M72.161 24.6586C72.3944 24.3064 72.6279 23.8367 72.8613 23.6018V19.9617C72.8613 17.848 71.2271 16.2041 69.126 16.2041H40.1777C38.0766 16.2041 36.4424 17.848 36.4424 19.9617V27.5943V59.1814C36.4424 61.295 38.0766 62.9389 40.1777 62.9389H50.2162H54.7686C54.6518 61.9996 54.7686 61.0602 55.2355 60.1208L72.161 24.6586Z" fill="#FF0060"/>
<path d="M94.1051 48.8481L80.2145 42.0375C78.9305 41.4503 78.4636 39.9238 79.0473 38.6322C79.6309 37.3405 81.1484 36.8708 82.4324 37.4579L96.3229 44.2685C97.6069 44.8556 98.0738 46.3822 97.4902 47.6738C96.9065 48.8481 95.3891 49.4352 94.1051 48.8481Z" fill="#FFC9DE"/>
<path d="M90.2535 56.8334L76.363 50.0228C75.079 49.4357 74.6121 47.9092 75.1957 46.6175C75.7793 45.3259 77.2968 44.8562 78.5808 45.4433L92.4714 52.2539C93.7554 52.841 94.2223 54.3675 93.6386 55.6592C93.055 56.8334 91.5375 57.4206 90.2535 56.8334Z" fill="#FFC9DE"/>
<path d="M86.402 64.4662L72.5114 57.6556C71.2274 57.0685 70.7605 55.542 71.3441 54.2503C71.9278 52.9587 73.4452 52.489 74.7292 53.0761L88.6198 59.8867C89.9038 60.4738 90.3707 62.0003 89.7871 63.292C89.0867 64.5837 87.5692 65.0534 86.402 64.4662Z" fill="#FFC9DE"/>
<path d="M63.8735 40.9809L48.3487 40.5112C46.948 40.5112 45.8975 39.3369 45.8975 37.9278C45.8975 36.5187 47.0647 35.4619 48.4655 35.4619L63.9902 35.9316C65.3909 35.9316 66.4415 37.1059 66.4415 38.5149C66.4415 39.924 65.2742 41.0983 63.8735 40.9809Z" fill="#FFC9DE"/>
<path d="M63.6401 31.7045L48.1153 31.2348C46.7146 31.2348 45.6641 30.0605 45.6641 28.6515C45.6641 27.2424 46.8313 26.1855 48.2321 26.1855L63.7568 26.6552C65.1575 26.6552 66.2081 27.8295 66.2081 29.2386C66.2081 30.6477 65.0408 31.7045 63.6401 31.7045Z" fill="#FFC9DE"/>
<path d="M61.4219 50.3751L47.7647 50.0229C46.364 50.0229 45.3135 48.8486 45.3135 47.4395C45.3135 46.0305 46.4808 44.9736 47.8815 44.9736L61.5386 45.3259C62.9393 45.3259 63.9899 46.5001 63.9899 47.9092C63.8731 49.3183 62.8226 50.3751 61.4219 50.3751Z" fill="#FFC9DE"/>
</g>
<defs>
<clipPath id="clip0">
<rect width="109" height="93" fill="white"/>
</clipPath>
</defs>
</svg>
