<svg width="15" height="10" viewBox="0 0 15 10" fill="none" xmlns="http://www.w3.org/2000/svg">
<path d="M5.72109 9.49503L5.71983 9.49491C5.39782 9.46497 5.10372 9.30265 4.90838 9.04859C4.90837 9.04858 4.90836 9.04857 4.90836 9.04856L0.736232 3.62116L0.73618 3.6211C0.350948 3.12013 0.446673 2.40332 0.953241 2.01908L0.953328 2.01902C1.46132 1.63353 2.18817 1.73111 2.57518 2.23432C2.57519 2.23434 2.57521 2.23436 2.57522 2.23438L5.65893 6.24568L5.9869 6.67231L6.38832 6.31393L12.5707 0.794401L12.2377 0.421418L12.5707 0.794399C13.046 0.370067 13.7783 0.40925 14.205 0.880873C14.6298 1.35047 14.5914 2.07232 14.118 2.49505C14.118 2.49505 14.118 2.49505 14.118 2.49506L6.60148 9.20531L6.60118 9.20558C6.38869 9.39558 6.11292 9.5 5.82785 9.5C5.79155 9.5 5.75611 9.49837 5.72109 9.49503Z" fill="#DB8F00" stroke="#DB8F00"/>
</svg>
