<svg width="40" height="40" viewBox="0 0 40 40" fill="none" xmlns="http://www.w3.org/2000/svg">
<g filter="url(#filter0_d)">
<circle cx="20" cy="16" r="16" fill="#420FAB"/>
<path d="M26.6043 12.3074L22.4113 16.5002L26.6043 20.6933C27.1321 21.2211 27.1318 22.0767 26.6043 22.6042C26.0764 23.1319 25.2208 23.1316 24.6933 22.6042L20.5001 18.411L16.3068 22.6042C15.779 23.1319 14.9234 23.1319 14.3959 22.6042C13.868 22.0764 13.868 21.2208 14.3959 20.6933L18.5891 16.5002L14.3962 12.3067C13.8684 11.7789 13.8687 10.9233 14.3962 10.3958C14.6601 10.1319 15.0057 10 15.3516 10C15.6976 10 16.0432 10.1319 16.3071 10.3958L20.4997 14.589L24.693 10.3962C24.9569 10.1323 25.3025 10.0003 25.6485 10.0003C25.9944 10.0003 26.34 10.1323 26.6039 10.3962C27.1318 10.924 27.1318 11.7796 26.6043 12.3074Z" fill="white"/>
</g>
<defs>
<filter id="filter0_d" x="0" y="0" width="40" height="40" filterUnits="userSpaceOnUse" color-interpolation-filters="sRGB">
<feFlood flood-opacity="0" result="BackgroundImageFix"/>
<feColorMatrix in="SourceAlpha" type="matrix" values="0 0 0 0 0 0 0 0 0 0 0 0 0 0 0 0 0 0 127 0"/>
<feOffset dy="4"/>
<feGaussianBlur stdDeviation="2"/>
<feColorMatrix type="matrix" values="0 0 0 0 0 0 0 0 0 0 0 0 0 0 0 0 0 0 0.25 0"/>
<feBlend mode="normal" in2="BackgroundImageFix" result="effect1_dropShadow"/>
<feBlend mode="normal" in="SourceGraphic" in2="effect1_dropShadow" result="shape"/>
</filter>
</defs>
</svg>
