<svg id="Calque_1" data-name="Calque 1" xmlns="http://www.w3.org/2000/svg" viewBox="0 0 225 225"><defs><style>.cls-1{fill:#2f50a8;}.cls-2{fill:#7ae6ff;}.cls-3{fill:#00cfff;}.cls-4{fill:#ffa600;}.cls-5{fill:#10255e;}.cls-6{fill:#ffbf47;}</style></defs><circle class="cls-1" cx="112.5" cy="112.5" r="99.5"/><g id="head"><path id="face" class="cls-2" d="M175.71,137.78a56,56,0,0,0-8.28-21.22,1,1,0,0,0-.11-.17,57.74,57.74,0,0,0-10.75-12.55c-.46-.4-.92-.79-1.39-1.17a18.15,18.15,0,0,1-7.25,3.55c-5.64,1.23-11.7-1-15.81-5.83-2.87,9.54-17.19,9.54-17.19,9.54,2.87,28.64-19.09,31.51-19.09,31.51l-.44.43a46.17,46.17,0,0,0,.26,5.93,50.78,50.78,0,0,0,4.61,16.49l-.19-.09c.49,3.39,1.61,15.45,2.61,28.17l45.79-.41c0-1.26.66-3.16.64-4.31,10.25-3.48,15.51-10.58,17.93-13.72C178.48,159,176.33,141.83,175.71,137.78Z"/><path class="cls-3" d="M131.88,97.83s10.26,17.85,12.72,19.9,15.8,12.31,12.52,17.64-6.77,4.72-6.77,4.72,23.59,32.41-1,47.38c14.64-2.66,28.31-22.76,27.08-48.2-7.59-33.64-27.28-39.59-27.28-39.59Z"/><g id="hair"><path class="cls-4" d="M158.73,96.42c-.9-5.73-16.57-10.53-31.79-8.59,9.93-10.3,20.68-24.25,18.93-38-.64-5-2.57-7.2-3.62-8.15-6.25-5.71-18.23-1-18.7-.85.28-.44,9.14-2-7.67-17C98.75,8.4,86.35,35.68,86.35,35.68s-10.26-16-27.49-.82C41.27,50.35,55,59.28,55,59.28S26,60.67,26.63,82.83a17.34,17.34,0,0,0,2.45,8.51c4,5.66,12.46,7.88,21.71,5.83a32,32,0,0,0,.57,15.52c.9,3.06,2.57,8.72,7.85,13a25.77,25.77,0,0,0,12,4.84c5.53.68,11.52-1.16,17.29-5-.07,9.12,6.09,17.07,6.88,16.29.15-.14,22.4-3.3,19.53-31.94,0,0,14.32,0,17.19-9.54,4.11,4.81,10.17,7.06,15.81,5.83a18.15,18.15,0,0,0,7.25-3.55C157.52,100.78,159.05,98.46,158.73,96.42Z"/></g><g id="brows"><ellipse class="cls-5" cx="131.89" cy="117.1" rx="7.3" ry="1.76" transform="translate(-12.33 15.56) rotate(-6.45)"/><ellipse class="cls-5" cx="154.92" cy="114.49" rx="7.3" ry="1.76" transform="translate(-11.89 18.14) rotate(-6.45)"/></g><g id="eyes"><circle class="cls-5" cx="137.25" cy="128.5" r="2.71"/><circle class="cls-5" cx="160.31" cy="124.56" r="2.71"/></g><g id="ear"><circle class="cls-2" cx="89.13" cy="152.55" r="17.31"/></g></g><path class="cls-3" d="M149.32,187.47s-15.38,4.31-24.61,1.65c5.33,6.35,10,8.82,10,8.82l9.64-.62,3.89-2Z"/><path class="cls-6" d="M99.26,192.4q-1.12,7-2.26,14.11l-8.15,2.65a99.72,99.72,0,0,0,68.57-7.86q-1.8-4.7-3.57-9.39Z"/><path class="cls-3" d="M81.63,141.32,96.7,152.93s-4.82,5,.72,7.88C88,160.6,80.4,147.68,81.63,141.32Z"/><path class="cls-5" d="M138.39,147.35s6.11,10.79,17.6,2.48C150.24,149.94,138.39,147.35,138.39,147.35Z"/></svg>