<svg width="18" height="25" viewBox="0 0 18 25" fill="none" xmlns="http://www.w3.org/2000/svg">
<path d="M3.37024 25.0001C1.98212 25.0041 0.853542 23.8468 0.849609 22.4234V6.93555H16.579V22.4234C16.5751 23.8468 15.4465 25.0041 14.0584 25.0001H3.37024Z" fill="#4D6EC5"/>
<path d="M12.6256 12.0852L9.93777 14.7729L12.6256 17.4608C12.9639 17.7991 12.9637 18.3476 12.6256 18.6857C12.2872 19.024 11.7387 19.0238 11.4006 18.6857L8.7126 15.9978L6.02462 18.6857C5.68627 19.024 5.13779 19.024 4.79966 18.6857C4.46131 18.3474 4.46131 17.7989 4.79966 17.4608L7.48764 14.7729L4.79986 12.0848C4.46152 11.7465 4.46172 11.198 4.79986 10.8599C4.96903 10.6907 5.19058 10.6061 5.41234 10.6061C5.6341 10.6061 5.85565 10.6907 6.02482 10.8599L8.7124 13.5478L11.4004 10.8601C11.5696 10.6909 11.7911 10.6063 12.0129 10.6063C12.2346 10.6063 12.4562 10.6909 12.6253 10.8601C12.9637 11.1984 12.9637 11.7469 12.6256 12.0852Z" fill="white"/>
<path d="M16.3664 3.70967H16.2484H12.5167V2.13306C12.5127 0.955644 11.5847 0.00403226 10.4364 0H6.99171C5.84346 0.00403226 4.91543 0.955644 4.9115 2.13306V3.70967H1.1797H1.06173C0.475814 3.70967 0 4.19758 0 4.79838V4.88709C0 5.4879 0.475814 5.9758 1.06173 5.9758H16.3625C16.9484 5.9758 17.4242 5.4879 17.4242 4.88709V4.79838C17.4282 4.19758 16.9523 3.70967 16.3664 3.70967ZM6.48444 2.54435C6.48444 2.25806 6.71251 2.02419 6.99171 2.02419H10.4364C10.7156 2.02419 10.9437 2.25806 10.9437 2.54435V3.70967H6.48444V2.54435Z" fill="#4D6EC5"/>
</svg>
