<svg width="14" height="17" viewBox="0 0 14 17" fill="none" xmlns="http://www.w3.org/2000/svg">
<path d="M12.6118 5.55698L13.3192 4.75475C14.1926 3.82292 14.2321 2.26762 13.4061 1.27992C12.5821 0.292224 11.2068 0.247531 10.3354 1.17937C10.3058 1.21065 10.2761 1.24417 10.2484 1.27769L9.53906 2.07768L12.6118 5.55698Z" fill="#DB8F00"/>
<path d="M8.69892 3.02734L0.992495 11.7424C0.913455 11.8273 0.858127 11.9368 0.832439 12.0552L0.0202998 15.4988C-0.0646685 15.8563 0.125028 16.2228 0.441189 16.3189C0.490589 16.3345 0.541966 16.3412 0.593342 16.3412C0.644718 16.3412 0.696094 16.3345 0.745494 16.3189L3.79447 15.4071C3.89525 15.3759 3.98615 15.3155 4.05926 15.2328L11.7657 6.51782L8.69892 3.02734Z" fill="#DB8F00"/>
</svg>
