<svg width="17" height="17" viewBox="0 0 17 17" fill="none" xmlns="http://www.w3.org/2000/svg">
    <path d="M11.0288 1.91319L15.0859 5.95284L5.28028 15.7539L1.23879 11.7143L11.0288 1.91319ZM0.00334704 16.4746C-0.0161394 16.6187 0.0306281 16.7629 0.135855 16.8642C0.237185 16.9693 0.381385 17.02 0.525585 16.9966L3.93182 16.6071L0.389179 13.0582L0.00334704 16.4746ZM16.485 2.12355L14.8637 0.50302C14.1973 -0.163112 13.1177 -0.167008 12.4513 0.495229C12.4474 0.499124 12.4474 0.499124 12.4435 0.50302L12.1356 0.810765L16.1888 4.85041L16.4967 4.54266C17.1631 3.87653 17.167 2.79747 16.5045 2.13134C16.5006 2.12745 16.5006 2.12745 16.4967 2.12355H16.485Z" fill="#4D6EC5" />
</svg>
