<svg width="27" height="25" viewBox="0 0 27 25" fill="none" xmlns="http://www.w3.org/2000/svg">
<path d="M1.27895 4.74632H5.08737C5.59895 5.99684 6.82105 6.90632 8.27053 6.90632C9.72 6.90632 10.9421 6.02526 11.4537 4.74632H25.7211C26.4316 4.74632 27 4.1779 27 3.46737C27 2.75684 26.4316 2.18842 25.7211 2.18842H11.4537C10.9421 0.881053 9.72 0 8.27053 0C6.82105 0 5.59895 0.881053 5.08737 2.16H1.27895C0.568421 2.16 0 2.72842 0 3.43895C0 4.14947 0.568421 4.74632 1.27895 4.74632Z" fill="#6B6B6A"/>
<path d="M25.7211 11.0838H21.9126C21.4011 9.8333 20.1789 8.92383 18.7295 8.92383C17.28 8.92383 16.0579 9.80488 15.5463 11.0838H1.27895C0.568421 11.0838 0 11.6522 0 12.3628C0 13.0733 0.568421 13.6417 1.27895 13.6417H15.5463C16.0579 14.8922 17.28 15.8017 18.7295 15.8017C20.1789 15.8017 21.4011 14.9207 21.9126 13.6417H25.7211C26.4316 13.6417 27 13.0733 27 12.3628C27 11.6522 26.4316 11.0838 25.7211 11.0838Z" fill="#6B6B6A"/>
<path d="M25.7211 19.9803H11.4537C10.9421 18.7298 9.72 17.8203 8.27053 17.8203C6.82105 17.8203 5.59895 18.7014 5.08737 19.9803H1.27895C0.568421 19.9803 0 20.5487 0 21.2593C0 21.9698 0.568421 22.5382 1.27895 22.5382H5.08737C5.59895 23.7887 6.82105 24.6982 8.27053 24.6982C9.72 24.6982 10.9421 23.8172 11.4537 22.5382H25.7211C26.4316 22.5382 27 21.9698 27 21.2593C27 20.5772 26.4316 19.9803 25.7211 19.9803Z" fill="#6B6B6A"/>
</svg>
