<svg width="56" height="57" viewBox="0 0 56 57" fill="none" xmlns="http://www.w3.org/2000/svg">
<g clip-path="url(#clip0)">
<path d="M28.4284 55.63C43.6558 55.63 56.0001 43.1768 56.0001 27.815C56.0001 12.4532 43.6558 0 28.4284 0C13.201 0 0.856689 12.4532 0.856689 27.815C0.856689 43.1768 13.201 55.63 28.4284 55.63Z" fill="#FFE1A8"/>
<path d="M40.3929 45.562H54.3215C55.0875 45.562 55.7143 45.9906 55.7143 46.5175V56.0515C55.7143 56.5784 55.0875 57.007 54.3215 57.007H40.3929C39.6268 57.007 39 56.5784 39 56.0515V46.5175C39 45.9906 39.6268 45.562 40.3929 45.562Z" fill="#FFBF47"/>
<path d="M1.39286 41.7471H15.3215C16.0876 41.7471 16.7143 42.1756 16.7143 42.7026V56.0445C16.7143 56.5714 16.0876 57 15.3215 57H1.39286C0.626788 57 0 56.5714 0 56.0445V42.7026C0 42.1756 0.626788 41.7471 1.39286 41.7471Z" fill="#FFA600"/>
<path d="M20.8929 36.0283H34.8215C35.5876 36.0283 36.2143 36.4569 36.2143 36.9838V56.0447C36.2143 56.5716 35.5876 57.0002 34.8215 57.0002H20.8929C20.1268 57.0002 19.5 56.5716 19.5 56.0447V36.9838C19.5 36.4569 20.1268 36.0283 20.8929 36.0283Z" fill="#DB8F00"/>
<path d="M28.7416 6.17563L31.3184 11.4379C31.5343 11.8735 31.9452 12.1756 32.4188 12.2459L38.1783 13.089C39.3761 13.2646 39.8567 14.7541 38.9861 15.6042L34.8215 19.7072C34.4733 20.0445 34.32 20.5363 34.4036 21.014L35.3856 26.7962C35.5876 28.0047 34.334 28.925 33.2615 28.356L28.1148 25.6229C27.69 25.3981 27.1816 25.3981 26.7498 25.6229L21.6032 28.356C20.5307 28.925 19.2771 28.0047 19.4791 26.7962L20.4611 21.014C20.5446 20.5363 20.3845 20.0445 20.0432 19.7072L15.8786 15.6112C15.008 14.7541 15.4886 13.2716 16.6864 13.096L22.4459 12.2529C22.9195 12.1827 23.3373 11.8805 23.5463 11.445L26.1231 6.18266C26.6523 5.07961 28.2054 5.07961 28.7416 6.17563Z" fill="#FFA600"/>
</g>
<defs>
<clipPath id="clip0">
<rect width="56" height="57" fill="white"/>
</clipPath>
</defs>
</svg>
