<?xml version="1.0"?>
<svg xmlns="http://www.w3.org/2000/svg" xmlns:xlink="http://www.w3.org/1999/xlink" version="1.1" id="Capa_1" x="0px" y="0px" viewBox="0 0 469.333 469.333" style="enable-background:new 0 0 469.333 469.333;" xml:space="preserve" width="512px" height="512px"><g><g>
	<g>
		<path d="M426.667,106.667h-384C19.093,106.667,0,125.76,0,149.333V320c0,23.573,19.093,42.667,42.667,42.667h384    c23.573,0,42.667-19.093,42.667-42.667V149.333C469.333,125.76,450.24,106.667,426.667,106.667z M213.333,256h-64v64h-42.667v-64    h-64v-42.667h64v-64h42.667v64h64V256z M309.333,298.667c-17.707,0-32-14.293-32-32s14.293-32,32-32s32,14.293,32,32    S327.04,298.667,309.333,298.667z M394.667,234.667c-17.707,0-32-14.293-32-32s14.293-32,32-32s32,14.293,32,32    S412.373,234.667,394.667,234.667z" data-original="#000000" class="active-path" data-old_color="#000000" fill="#E5E5E5"/>
	</g>
</g></g> </svg>
