<svg width="14" height="14" viewBox="0 0 14 14" fill="none" xmlns="http://www.w3.org/2000/svg">
<path d="M1.4047 11.1954C2.17915 11.1954 2.80696 11.8233 2.80696 12.5977C2.80696 13.3722 2.17915 14 1.4047 14C0.630255 14 0.00244141 13.3722 0.00244141 12.5977C0.00244141 11.8233 0.630255 11.1954 1.4047 11.1954Z" fill="#DB8F00"/>
<path d="M1.40226 5.59778C2.17671 5.59778 2.80452 6.2256 2.80452 7.00006C2.80452 7.77452 2.17671 8.40234 1.40226 8.40234C0.627814 8.40234 0 7.77452 0 7.00006C0 6.2256 0.627814 5.59778 1.40226 5.59778Z" fill="#DB8F00"/>
<path d="M1.40763 0.000123978C2.18208 0.000123978 2.80989 0.627947 2.80989 1.40241C2.80989 2.17687 2.18208 2.80469 1.40763 2.80469C0.633185 2.80469 0.00537109 2.17687 0.00537109 1.40241C0.00537109 0.627947 0.633185 0.000123978 1.40763 0.000123978Z" fill="#DB8F00"/>
<path fill-rule="evenodd" clip-rule="evenodd" d="M5.43518 11.1918H12.6004C13.373 11.1918 14 11.8178 14 12.5914C14 13.3648 13.373 13.9907 12.6004 13.9907L5.43518 13.9905C4.66264 13.9905 4.03564 13.3646 4.03564 12.591C4.03564 11.8176 4.66264 11.1918 5.43518 11.1918Z" fill="#DB8F00"/>
<path fill-rule="evenodd" clip-rule="evenodd" d="M12.6004 8.40625H5.43518C4.66264 8.40625 4.03564 7.78029 4.03564 7.00669C4.03564 6.23309 4.66264 5.60713 5.43518 5.60713L12.6004 5.60755C13.373 5.60755 14 6.23351 14 7.0069C14 7.7805 13.373 8.40625 12.6004 8.40625Z" fill="#DB8F00"/>
<path fill-rule="evenodd" clip-rule="evenodd" d="M12.6004 2.81299H5.43518C4.66264 2.81299 4.03564 2.18703 4.03564 1.41364C4.03564 0.640037 4.66264 0.0140781 5.43518 0.0140781L12.6004 0.0142865C13.373 0.0142865 14 0.640246 14 1.41385C14 2.18745 13.373 2.81299 12.6004 2.81299Z" fill="#DB8F00"/>
</svg>
