<svg width="40" height="41" viewBox="0 0 40 41" fill="none" xmlns="http://www.w3.org/2000/svg">
<g clip-path="url(#clip0)">
<path d="M20.3064 40.0145C31.1831 40.0145 40.0004 31.057 40.0004 20.0073C40.0004 8.95756 31.1831 0 20.3064 0C9.42964 0 0.612305 8.95756 0.612305 20.0073C0.612305 31.057 9.42964 40.0145 20.3064 40.0145Z" fill="#FFE1A8"/>
<path fill-rule="evenodd" clip-rule="evenodd" d="M30 17.1295C30 14.2954 27.6374 12 24.7253 12C22.6549 12 20.8637 13.1605 20 14.8511C19.1363 13.1605 17.3451 12 15.2747 12C12.3604 12 10 14.2954 10 17.1295C10 22.6074 19.9912 29 19.9912 29C19.9912 29 30 22.6074 30 17.1295Z" fill="#FFA600"/>
</g>
<defs>
<clipPath id="clip0">
<rect width="40" height="41" fill="white"/>
</clipPath>
</defs>
</svg>
