<svg width="53" height="51" viewBox="0 0 53 51" fill="none" xmlns="http://www.w3.org/2000/svg">
<circle cx="26.5" cy="25.5" r="25.5" fill="#C9C9C7"/>
<path d="M23.5405 38.16V38.08V38.16ZM27.3805 37.28C27.4871 37.4133 27.5271 37.5867 27.5005 37.8C27.5005 38.0133 27.5005 38.2133 27.5005 38.4C27.5271 38.9067 27.5271 39.44 27.5005 40C27.4738 40.4 27.2871 40.6 26.9405 40.6C26.9671 40.6 26.9671 40.5867 26.9405 40.56C26.9405 40.56 26.9271 40.56 26.9005 40.56H26.7805C26.6471 40.48 26.5805 40.5067 26.5805 40.64C26.5005 40.64 26.4205 40.64 26.3405 40.64C26.2605 40.6667 26.1805 40.6667 26.1005 40.64C26.0471 40.64 26.1005 40.6667 26.2605 40.72C26.3138 40.7467 26.3805 40.7733 26.4605 40.8C26.4338 40.8267 26.3271 40.8133 26.1405 40.76C25.9805 40.7333 25.8871 40.72 25.8605 40.72C25.7805 40.6933 25.6738 40.68 25.5405 40.68C25.4338 40.68 25.3271 40.68 25.2205 40.68C25.1671 40.68 25.0738 40.6667 24.9405 40.64C24.8071 40.64 24.6605 40.64 24.5005 40.64C24.3671 40.64 24.2338 40.64 24.1005 40.64C23.9938 40.64 23.9271 40.6533 23.9005 40.68C23.9538 40.6267 24.0205 40.5867 24.1005 40.56C24.2071 40.56 24.2871 40.52 24.3405 40.44C24.1538 40.44 23.9938 40.4533 23.8605 40.48C23.7271 40.5067 23.6205 40.4533 23.5405 40.32C23.5138 40.2667 23.5005 40.2 23.5005 40.12C23.5271 40.0667 23.5405 40 23.5405 39.92C23.5405 39.7067 23.5271 39.5067 23.5005 39.32C23.5005 39.1067 23.5138 38.8933 23.5405 38.68C23.5671 38.6267 23.5805 38.52 23.5805 38.36C23.5805 38.1733 23.5938 38.08 23.6205 38.08C23.5938 38.0533 23.5671 38.0533 23.5405 38.08C23.5405 37.8133 23.5271 37.6133 23.5005 37.48C23.4738 37.3467 23.5138 37.2533 23.6205 37.2C23.7271 37.12 23.8338 37.0667 23.9405 37.04C24.0471 37.04 24.1405 37.0533 24.2205 37.08C24.3005 37.08 24.3938 37.0667 24.5005 37.04C24.6071 37.04 24.7005 37.0267 24.7805 37C24.8605 36.9467 24.9538 36.92 25.0605 36.92H24.7805C24.9405 36.8933 25.1405 36.8667 25.3805 36.84C25.6205 36.8133 25.8738 36.8133 26.1405 36.84C26.4071 36.84 26.6471 36.88 26.8605 36.96C27.0738 37.0133 27.2471 37.12 27.3805 37.28ZM25.4205 40.56C25.4738 40.5333 25.4738 40.52 25.4205 40.52C25.3671 40.52 25.3671 40.5333 25.4205 40.56ZM26.1805 40.52C26.2071 40.52 26.2205 40.5067 26.2205 40.48C26.2205 40.48 26.1938 40.48 26.1405 40.48C26.1138 40.48 26.1005 40.48 26.1005 40.48C26.1005 40.5067 26.1271 40.52 26.1805 40.52ZM27.4205 39.52V39.4C27.3671 39.4533 27.3671 39.4933 27.4205 39.52ZM29.6205 27.28C29.6738 27.3333 29.6738 27.3867 29.6205 27.44C29.5938 27.4667 29.5671 27.4533 29.5405 27.4C29.5405 27.3733 29.5405 27.3467 29.5405 27.32C29.5671 27.2667 29.5938 27.2533 29.6205 27.28ZM33.0605 16.96C33.0605 17.04 33.0471 17.0667 33.0205 17.04C33.0205 16.9867 33.0338 16.96 33.0605 16.96ZM33.1805 17.28C33.1271 17.2533 33.0871 17.2133 33.0605 17.16C33.0605 17.08 33.0605 17.0133 33.0605 16.96C33.0871 16.9067 33.1138 16.96 33.1405 17.12C33.1938 17.28 33.2071 17.3333 33.1805 17.28ZM30.2605 26.44C30.2338 26.4133 30.2338 26.3867 30.2605 26.36C30.2871 26.3333 30.3138 26.32 30.3405 26.32C30.3671 26.4 30.3405 26.44 30.2605 26.44ZM27.5805 33.48C27.5805 33.48 27.5938 33.4933 27.6205 33.52C27.5671 33.52 27.5271 33.48 27.5005 33.4C27.5005 33.2933 27.5005 33.2533 27.5005 33.28C27.5005 33.3067 27.5138 33.3467 27.5405 33.4C27.5671 33.4267 27.5805 33.4533 27.5805 33.48ZM32.0605 23.68C32.0605 23.6533 32.0871 23.64 32.1405 23.64C32.1138 23.6933 32.0738 23.7467 32.0205 23.8C31.9938 23.7733 32.0071 23.7333 32.0605 23.68ZM33.0205 22.28C32.8871 22.3067 32.8605 22.2667 32.9405 22.16C32.9671 22.1867 32.9805 22.2133 32.9805 22.24C32.9805 22.24 32.9938 22.2533 33.0205 22.28ZM30.7005 26C30.7538 25.9733 30.8071 25.96 30.8605 25.96C30.8338 26.0133 30.7938 26.0533 30.7405 26.08C30.6871 26.08 30.6738 26.0533 30.7005 26ZM30.1005 26.84C30.2071 26.8133 30.2205 26.8267 30.1405 26.88C30.0605 26.9333 30.0338 26.9467 30.0605 26.92C30.0605 26.8933 30.0605 26.88 30.0605 26.88C30.0871 26.88 30.1005 26.8667 30.1005 26.84ZM33.2605 20.36C33.3138 20.3067 33.3271 20.3067 33.3005 20.36C33.2738 20.4133 33.2471 20.4533 33.2205 20.48C33.2471 20.4533 33.2605 20.4133 33.2605 20.36ZM33.1805 17.36C33.1538 17.3067 33.1538 17.28 33.1805 17.28C33.2071 17.28 33.2071 17.3067 33.1805 17.36ZM29.0205 28.12C28.9938 28.12 28.9805 28.1067 28.9805 28.08C29.0071 28.0533 29.0205 28.0667 29.0205 28.12ZM30.3405 26.36C30.3938 26.3333 30.4071 26.3333 30.3805 26.36C30.3805 26.36 30.3671 26.36 30.3405 26.36ZM30.4205 26.28C30.3671 26.3067 30.3405 26.32 30.3405 26.32C30.3671 26.2933 30.3938 26.28 30.4205 26.28ZM31.7405 24.6C31.6871 24.5733 31.6738 24.56 31.7005 24.56C31.7271 24.56 31.7405 24.5733 31.7405 24.6ZM27.3005 33.76C27.3271 33.7867 27.3271 33.8133 27.3005 33.84C27.3005 33.84 27.3005 33.8133 27.3005 33.76ZM33.4205 20C33.4471 20.0267 33.4471 20.0533 33.4205 20.08C33.4205 20.08 33.4205 20.0533 33.4205 20ZM27.6205 32.32V32.28V32.32ZM27.3005 32.16L27.2205 32.08C27.2205 32.08 27.2471 32.1067 27.3005 32.16ZM30.7805 23.76C30.7805 23.7333 30.7938 23.7333 30.8205 23.76C30.8471 23.76 30.8338 23.76 30.7805 23.76ZM33.5405 18.68C33.5405 18.7333 33.5405 18.8667 33.5405 19.08C33.5671 19.2933 33.5671 19.4267 33.5405 19.48C33.5405 19.5067 33.5138 19.56 33.4605 19.64C33.4338 19.6933 33.4338 19.6933 33.4605 19.64C33.4605 19.64 33.4471 19.6133 33.4205 19.56L33.3805 19.52C33.3271 19.6533 33.3405 19.7733 33.4205 19.88C33.5271 19.9867 33.5271 20.0267 33.4205 20C33.4205 20.1067 33.4071 20.16 33.3805 20.16C33.3805 20.1333 33.3671 20.12 33.3405 20.12C33.3405 20.0933 33.3405 20.0667 33.3405 20.04C33.2871 20.0667 33.2471 20.1333 33.2205 20.24C33.1938 20.32 33.1805 20.3733 33.1805 20.4C33.1805 20.4533 33.1938 20.5067 33.2205 20.56C33.2738 20.5867 33.3005 20.5867 33.3005 20.56C33.3005 20.6667 33.2871 20.76 33.2605 20.84C33.2338 20.92 33.2071 21.0133 33.1805 21.12C33.1271 21.2533 33.0738 21.4267 33.0205 21.64C32.9938 21.8267 32.9405 21.9867 32.8605 22.12C32.8071 22.1733 32.7405 22.2 32.6605 22.2C32.5805 22.1733 32.5405 22.2267 32.5405 22.36C32.5405 22.3867 32.5538 22.3867 32.5805 22.36C32.6338 22.3333 32.6605 22.3333 32.6605 22.36C32.6338 22.4933 32.5805 22.6267 32.5005 22.76C32.4205 22.8667 32.3405 22.9733 32.2605 23.08C32.2338 23.08 32.2071 23.0933 32.1805 23.12C32.1271 23.1733 32.1005 23.2133 32.1005 23.24C32.0738 23.2933 32.0738 23.3333 32.1005 23.36C32.1271 23.3867 32.1271 23.4267 32.1005 23.48C32.0738 23.5333 32.0338 23.6133 31.9805 23.72C31.9538 23.8267 31.9271 23.8933 31.9005 23.92C31.8471 24 31.7805 24.08 31.7005 24.16C31.6471 24.2133 31.5938 24.3067 31.5405 24.44C31.5671 24.44 31.5938 24.4267 31.6205 24.4C31.6471 24.3467 31.6605 24.3333 31.6605 24.36C31.6871 24.4133 31.6471 24.5467 31.5405 24.76C31.4605 24.9733 31.4071 25.0933 31.3805 25.12C31.3271 25.12 31.2738 25.0933 31.2205 25.04C31.1671 25.0133 31.1138 25.04 31.0605 25.12C31.0605 25.1467 31.0338 25.2 30.9805 25.28C30.9271 25.36 30.9005 25.4133 30.9005 25.44C30.9271 25.4667 30.9538 25.4533 30.9805 25.4C31.0071 25.32 31.0338 25.2933 31.0605 25.32C31.0338 25.2933 31.0071 25.3733 30.9805 25.56C30.9538 25.72 30.9405 25.8133 30.9405 25.84C30.9405 25.8133 30.9005 25.8267 30.8205 25.88C30.7405 25.9333 30.6871 25.96 30.6605 25.96C30.6338 25.9867 30.5938 26.04 30.5405 26.12C30.5138 26.1733 30.4871 26.2267 30.4605 26.28V26.12C30.3805 26.1467 30.2738 26.2533 30.1405 26.44C30.0338 26.6 29.9671 26.72 29.9405 26.8C29.9405 26.8267 29.9671 26.8 30.0205 26.72C30.0738 26.64 30.1138 26.6 30.1405 26.6C30.2205 26.68 30.1671 26.7867 29.9805 26.92C29.8205 27.0267 29.7538 27.08 29.7805 27.08C29.7538 27.0533 29.7538 27.0267 29.7805 27C29.8338 26.9467 29.8605 26.9067 29.8605 26.88C29.7538 26.96 29.6205 27.1067 29.4605 27.32C29.3271 27.5067 29.2471 27.6667 29.2205 27.8V27.76C29.2471 27.76 29.2605 27.76 29.2605 27.76C29.3138 27.76 29.2605 27.84 29.1005 28L29.0205 28.08C29.0205 28.08 29.0338 28.0667 29.0605 28.04H29.0205V28C28.9671 28.0533 28.9138 28.1067 28.8605 28.16C28.8338 28.2133 28.8205 28.2533 28.8205 28.28C28.8471 28.2533 28.8738 28.24 28.9005 28.24C28.9005 28.3733 28.8338 28.5067 28.7005 28.64C28.5938 28.7467 28.5138 28.8267 28.4605 28.88C28.4071 28.9333 28.3671 28.96 28.3405 28.96C28.3405 28.96 28.3138 28.9867 28.2605 29.04C28.2338 29.0933 28.2205 29.16 28.2205 29.24C28.2471 29.2933 28.2338 29.3467 28.1805 29.4C28.1271 29.4533 28.0738 29.48 28.0205 29.48C27.9671 29.4533 27.9271 29.48 27.9005 29.56C27.8738 29.6133 27.8738 29.6533 27.9005 29.68C27.9538 29.7067 27.9671 29.76 27.9405 29.84C27.9138 29.8933 27.8871 29.9067 27.8605 29.88C27.8338 29.8267 27.8338 29.7733 27.8605 29.72C27.7538 29.7733 27.7138 29.8667 27.7405 30C27.7938 30.1333 27.8738 30.2133 27.9805 30.24C27.9271 30.24 27.8871 30.24 27.8605 30.24C27.8605 30.2133 27.8471 30.2 27.8205 30.2H27.7805C27.7538 30.2267 27.7405 30.32 27.7405 30.48C27.7671 30.64 27.7805 30.7467 27.7805 30.8C27.7538 30.9067 27.7538 31.0533 27.7805 31.24C27.8338 31.4 27.8338 31.52 27.7805 31.6C27.7538 31.6533 27.7138 31.6667 27.6605 31.64C27.6338 31.5867 27.6071 31.5733 27.5805 31.6C27.6071 31.6267 27.6205 31.6933 27.6205 31.8C27.6205 31.8533 27.5805 31.8133 27.5005 31.68C27.4471 31.5467 27.4471 31.48 27.5005 31.48C27.5805 31.48 27.5938 31.44 27.5405 31.36C27.4871 31.28 27.4471 31.2 27.4205 31.12C27.3938 31.1733 27.3805 31.2133 27.3805 31.24C27.3805 31.24 27.3538 31.1867 27.3005 31.08C27.2738 31.08 27.2605 31.1333 27.2605 31.24V31.4C27.2605 31.4533 27.2738 31.48 27.3005 31.48C27.3271 31.4533 27.3405 31.4667 27.3405 31.52C27.4205 31.7067 27.5138 31.8933 27.6205 32.08C27.6738 32.1867 27.7005 32.24 27.7005 32.24C27.7005 32.2133 27.7271 32.2667 27.7805 32.4C27.8071 32.4533 27.8071 32.5867 27.7805 32.8C27.7538 32.9867 27.7271 33.0667 27.7005 33.04C27.6738 33.0133 27.6605 32.9867 27.6605 32.96C27.6071 32.9067 27.5805 32.88 27.5805 32.88C27.6071 32.88 27.6071 32.92 27.5805 33C27.5805 33.08 27.5538 33.0933 27.5005 33.04C27.4471 32.9867 27.4338 32.9467 27.4605 32.92C27.4871 32.8667 27.4871 32.8133 27.4605 32.76C27.4338 32.6267 27.3805 32.5333 27.3005 32.48C27.2471 32.4267 27.2205 32.3467 27.2205 32.24C27.1405 32.3467 27.1405 32.4533 27.2205 32.56C27.3005 32.64 27.3138 32.7333 27.2605 32.84C27.2071 32.7867 27.1805 32.7333 27.1805 32.68C27.1271 32.7333 27.1005 32.7733 27.1005 32.8C27.1005 32.8267 27.0738 32.8533 27.0205 32.88C26.9671 32.8 26.9138 32.7333 26.8605 32.68C26.7538 32.5733 26.7138 32.5067 26.7405 32.48C26.7938 32.48 26.8338 32.4667 26.8605 32.44C26.8071 32.3867 26.7671 32.32 26.7405 32.24C26.7138 32.1333 26.7138 32.04 26.7405 31.96C26.6071 31.96 26.5538 32 26.5805 32.08C26.6338 32.1333 26.6338 32.1867 26.5805 32.24C26.6071 32.2133 26.5671 32.2 26.4605 32.2C26.3538 32.1733 26.2738 32.16 26.2205 32.16C26.0871 32.1867 26.0205 32.2133 26.0205 32.24C26.0205 32.2667 26.0471 32.3067 26.1005 32.36C26.1805 32.3867 26.2605 32.4133 26.3405 32.44C26.4471 32.44 26.5271 32.4267 26.5805 32.4C26.6338 32.4533 26.6338 32.5467 26.5805 32.68C26.5538 32.8133 26.5405 32.9067 26.5405 32.96C26.5405 32.9867 26.5271 33.04 26.5005 33.12C26.5005 33.1733 26.5138 33.2267 26.5405 33.28C26.5671 33.3067 26.6205 33.32 26.7005 33.32C26.7805 33.2933 26.8205 33.3067 26.8205 33.36C26.7938 33.36 26.7671 33.3733 26.7405 33.4H26.8205C26.9005 33.3467 26.9405 33.2667 26.9405 33.16C26.9671 33.0533 27.0338 33 27.1405 33C27.2205 33 27.2605 33.0667 27.2605 33.2C27.2605 33.3333 27.2471 33.4133 27.2205 33.44C27.2471 33.44 27.2871 33.4667 27.3405 33.52C27.4205 33.5733 27.4871 33.6533 27.5405 33.76C27.5938 33.84 27.6338 33.92 27.6605 34C27.6871 34.08 27.6738 34.1333 27.6205 34.16C27.5671 34.1067 27.5405 34.04 27.5405 33.96C27.5405 33.88 27.5138 33.8133 27.4605 33.76H27.3805C27.3271 33.76 27.3005 33.76 27.3005 33.76C27.3538 33.8933 27.3005 33.96 27.1405 33.96C26.9805 33.9333 26.8738 33.88 26.8205 33.8C26.7671 33.8533 26.7271 33.9067 26.7005 33.96C26.7005 33.9867 26.6738 34.0133 26.6205 34.04C26.5138 34.12 26.4338 34.16 26.3805 34.16C26.3538 34.1333 26.2871 34.12 26.1805 34.12C26.1271 34.1467 26.0471 34.16 25.9405 34.16C25.8605 34.1333 25.7938 34.12 25.7405 34.12C25.6871 34.1467 25.6471 34.2 25.6205 34.28C25.5938 34.3333 25.5405 34.3467 25.4605 34.32C25.4071 34.2933 25.3805 34.2267 25.3805 34.12C25.4071 34.0133 25.4071 33.9333 25.3805 33.88C25.3271 33.8 25.2738 33.7733 25.2205 33.8C25.1938 33.8267 25.1938 33.76 25.2205 33.6C25.0605 33.6267 24.9538 33.68 24.9005 33.76C24.8738 33.84 24.8338 33.9333 24.7805 34.04C24.7538 33.9067 24.6738 33.8667 24.5405 33.92C24.4338 33.9467 24.3538 33.96 24.3005 33.96C24.2471 33.96 24.1405 33.9467 23.9805 33.92C23.8471 33.8667 23.8471 33.7733 23.9805 33.64H23.9405V33.6C23.8871 33.7067 23.8471 33.7733 23.8205 33.8C23.7671 33.8533 23.7405 33.9067 23.7405 33.96C23.7671 33.9867 23.7405 33.9467 23.6605 33.84C23.6071 33.7867 23.5805 33.7867 23.5805 33.84C23.5805 33.8667 23.5671 33.8267 23.5405 33.72C23.5405 33.64 23.5538 33.56 23.5805 33.48C23.6071 33.4 23.6205 33.32 23.6205 33.24C23.6205 33.1867 23.6071 33.1067 23.5805 33C23.5805 32.8933 23.5805 32.7867 23.5805 32.68C23.5805 32.36 23.5805 32.04 23.5805 31.72C23.6071 31.3733 23.5938 31.04 23.5405 30.72C23.4605 29.9733 23.5671 29.28 23.8605 28.64C24.1538 27.9733 24.5138 27.3333 24.9405 26.72C25.3938 26.1067 25.8205 25.4933 26.2205 24.88C26.6471 24.24 27.0871 23.6133 27.5405 23C27.6738 22.7867 27.8338 22.56 28.0205 22.32C28.2071 22.08 28.3671 21.8533 28.5005 21.64C28.5538 21.5067 28.6205 21.3733 28.7005 21.24C28.7538 21.1867 28.8071 21.1067 28.8605 21C28.9138 20.8933 28.9538 20.8 28.9805 20.72C29.0071 20.6667 29.0071 20.6 28.9805 20.52C28.9538 20.44 28.9538 20.3867 28.9805 20.36C29.0338 20.3067 29.0471 20.2933 29.0205 20.32C29.0205 20.3467 29.0338 20.32 29.0605 20.24H29.1005C29.1805 20.1867 29.1938 20.1067 29.1405 20C29.0338 20 29.0071 19.96 29.0605 19.88C29.0605 19.88 29.0871 19.8533 29.1405 19.8C29.1405 19.7733 29.1671 19.7867 29.2205 19.84C29.2738 19.8667 29.2871 19.8533 29.2605 19.8C29.2605 19.7733 29.2471 19.76 29.2205 19.76C29.2205 19.76 29.2205 19.7467 29.2205 19.72C29.2205 19.6933 29.2338 19.6933 29.2605 19.72C29.3138 19.72 29.3405 19.6933 29.3405 19.64C29.3671 19.5867 29.3538 19.56 29.3005 19.56C29.2738 19.5333 29.2605 19.5067 29.2605 19.48C29.2605 19.4267 29.2738 19.4 29.3005 19.4C29.3271 19.4 29.3405 19.3867 29.3405 19.36V19.28C29.3405 19.2533 29.3405 19.24 29.3405 19.24C29.3671 19.2133 29.3805 19.1867 29.3805 19.16V19.08C29.3538 19.1067 29.3405 19.0933 29.3405 19.04C29.3405 18.96 29.3671 18.9067 29.4205 18.88H29.3005C29.2471 18.8533 29.2471 18.8267 29.3005 18.8C29.3538 18.7733 29.3671 18.76 29.3405 18.76C29.2071 18.8133 29.1805 18.7867 29.2605 18.68C29.3405 18.5733 29.3805 18.5067 29.3805 18.48C29.3805 18.4267 29.3538 18.4267 29.3005 18.48C29.2471 18.5067 29.2471 18.4933 29.3005 18.44L29.1405 18.52C29.0871 18.4933 29.0871 18.4667 29.1405 18.44C29.1938 18.3867 29.2338 18.36 29.2605 18.36H29.1005C29.1271 18.3333 29.1405 18.3067 29.1405 18.28V18.16C29.0871 18.2133 29.0471 18.24 29.0205 18.24C28.9938 18.2133 28.9538 18.2 28.9005 18.2C28.8205 18.1733 28.7938 18.1867 28.8205 18.24C28.8738 18.2933 28.8338 18.28 28.7005 18.2C28.6738 18.2 28.6738 18.16 28.7005 18.08C28.7271 18 28.7271 17.96 28.7005 17.96C28.5671 17.9333 28.5138 17.92 28.5405 17.92C28.5671 17.92 28.5538 17.9067 28.5005 17.88C28.5005 17.9067 28.4338 17.88 28.3005 17.8C28.1671 17.72 28.0738 17.6667 28.0205 17.64C27.8605 17.56 27.7005 17.48 27.5405 17.4C27.3805 17.32 27.2205 17.2533 27.0605 17.2C26.7938 17.1467 26.4605 17.1467 26.0605 17.2C25.6871 17.2267 25.4205 17.3467 25.2605 17.56C25.2871 17.5333 25.2471 17.56 25.1405 17.64C25.0338 17.72 25.0071 17.7467 25.0605 17.72C24.8471 17.8 24.6471 18 24.4605 18.32C24.3005 18.6133 24.1805 18.8667 24.1005 19.08C24.0471 19.2933 24.0071 19.5067 23.9805 19.72C23.9538 19.9333 23.9405 20.1467 23.9405 20.36C23.9405 20.4133 23.9538 20.4933 23.9805 20.6C24.0071 20.7067 24.0071 20.7733 23.9805 20.8C23.9271 20.8533 23.9005 20.92 23.9005 21C23.9271 21.0533 23.9138 21.1067 23.8605 21.16C23.8338 21.1867 23.8071 21.2 23.7805 21.2C23.7538 21.1733 23.7271 21.1733 23.7005 21.2H23.7805H23.9005C23.8738 21.2267 23.8338 21.24 23.7805 21.24H23.7005C23.7005 21.2933 23.7271 21.32 23.7805 21.32H23.7005L23.5805 21.52H23.7005C23.7005 21.52 23.6871 21.5467 23.6605 21.6C23.6871 21.5467 23.7005 21.56 23.7005 21.64C23.7005 21.6933 23.7005 21.7067 23.7005 21.68C23.6738 21.7067 23.6605 21.7467 23.6605 21.8C23.6605 21.8267 23.6871 21.84 23.7405 21.84C23.7938 21.84 23.7538 21.8933 23.6205 22C23.5138 22.1067 23.4605 22.1467 23.4605 22.12C23.4071 22.28 23.3005 22.28 23.1405 22.12C22.9271 21.96 22.8205 21.7867 22.8205 21.6C22.8205 21.5733 22.7271 21.4933 22.5405 21.36C22.3805 21.2267 22.2738 21.1733 22.2205 21.2C22.1671 21.2533 22.1405 21.3467 22.1405 21.48C22.1405 21.5867 22.1138 21.6667 22.0605 21.72C22.0605 21.7467 22.0471 21.7733 22.0205 21.8C21.9671 21.8533 21.9138 21.84 21.8605 21.76H21.9005C21.7938 21.8133 21.6338 21.8533 21.4205 21.88C21.2071 21.88 21.0738 21.8667 21.0205 21.84C21.0471 21.84 21.0738 21.8267 21.1005 21.8C21.0471 21.8 20.9805 21.6933 20.9005 21.48C20.8471 21.24 20.7938 21.0933 20.7405 21.04C20.7138 21.0133 20.7005 20.96 20.7005 20.88C20.7005 20.8 20.6605 20.7867 20.5805 20.84V21C20.5805 21.08 20.5805 21.12 20.5805 21.12C20.5271 21.1733 20.5138 21.2133 20.5405 21.24C20.5938 21.2667 20.5805 21.3067 20.5005 21.36C20.5271 21.36 20.5405 21.3733 20.5405 21.4C20.5405 21.4 20.5538 21.4 20.5805 21.4C20.5538 21.48 20.5005 21.5333 20.4205 21.56C20.3671 21.5867 20.4071 21.6267 20.5405 21.68C20.5938 21.7067 20.5538 21.72 20.4205 21.72C20.3138 21.72 20.2738 21.7067 20.3005 21.68C20.2471 21.7067 20.1671 21.76 20.0605 21.84C19.9805 21.92 19.9005 21.9867 19.8205 22.04C19.7938 22.0133 19.7671 21.9467 19.7405 21.84C19.7405 21.7333 19.7405 21.6533 19.7405 21.6C19.7138 21.4667 19.6738 21.3333 19.6205 21.2C19.5938 21.0667 19.5671 20.9333 19.5405 20.8C19.4871 20.3467 19.5138 19.8933 19.6205 19.44C19.7271 18.96 19.8471 18.5067 19.9805 18.08C20.1138 17.52 20.3405 16.9733 20.6605 16.44C20.9805 15.9067 21.3405 15.44 21.7405 15.04C21.9538 14.8267 22.1538 14.6267 22.3405 14.44C22.5271 14.2533 22.7271 14.08 22.9405 13.92C23.0205 13.8667 23.1271 13.8133 23.2605 13.76C23.3938 13.68 23.5138 13.6133 23.6205 13.56C23.6738 13.5333 23.7271 13.52 23.7805 13.52C23.8338 13.52 23.8738 13.52 23.9005 13.52C23.9538 13.4667 23.9671 13.4667 23.9405 13.52C23.9138 13.5733 23.9671 13.5467 24.1005 13.44C24.0738 13.4133 24.0471 13.4133 24.0205 13.44C23.9938 13.44 23.9805 13.4267 23.9805 13.4C23.9805 13.4 24.0205 13.3867 24.1005 13.36C24.1805 13.3067 24.2738 13.2667 24.3805 13.24C24.5138 13.1867 24.6338 13.1467 24.7405 13.12C24.8471 13.0667 24.9138 13.04 24.9405 13.04C25.1005 12.9867 25.2605 12.96 25.4205 12.96C25.6071 12.9333 25.7805 12.8933 25.9405 12.84C26.3138 12.7867 26.7138 12.7733 27.1405 12.8C27.5671 12.8267 27.9538 12.8933 28.3005 13C28.4338 13.0533 28.5271 13.1333 28.5805 13.24C28.6338 13.32 28.7271 13.3867 28.8605 13.44C28.9671 13.4933 29.0471 13.5067 29.1005 13.48C29.1805 13.4533 29.2871 13.4533 29.4205 13.48C29.4738 13.5333 29.5138 13.5733 29.5405 13.6C29.5671 13.6267 29.6071 13.6667 29.6605 13.72C29.8471 13.8533 30.0338 13.96 30.2205 14.04L30.7005 14.4C30.8338 14.48 30.9538 14.56 31.0605 14.64C31.1938 14.72 31.3271 14.8 31.4605 14.88C31.5138 14.9067 31.5671 14.9467 31.6205 15C31.7005 15.0267 31.7538 15.0667 31.7805 15.12C31.8338 15.1733 31.8605 15.2533 31.8605 15.36C31.9138 15.4133 31.9805 15.48 32.0605 15.56C32.1405 15.64 32.2071 15.72 32.2605 15.8C32.4738 16.0667 32.6605 16.3467 32.8205 16.64C32.9271 16.8267 33.0071 17.0133 33.0605 17.2C33.1405 17.3867 33.2071 17.5867 33.2605 17.8V17.84V17.8C33.3138 17.9333 33.3671 18.1067 33.4205 18.32L33.5405 18.68ZM28.3805 17.52C28.3805 17.4667 28.3671 17.4533 28.3405 17.48C28.3405 17.5067 28.3538 17.52 28.3805 17.52ZM28.6205 17.68C28.6205 17.6267 28.5671 17.6 28.4605 17.6C28.4605 17.6267 28.4738 17.6533 28.5005 17.68C28.5538 17.7067 28.5938 17.7067 28.6205 17.68ZM28.6605 17.8C28.6605 17.7467 28.6471 17.7333 28.6205 17.76C28.5938 17.76 28.6071 17.7733 28.6605 17.8ZM29.1005 18.12C29.1538 18.0667 29.1805 18.0133 29.1805 17.96C29.1805 17.96 29.1538 17.9867 29.1005 18.04L29.0605 18.08C29.0605 18.08 29.0738 18.08 29.1005 18.08L29.1405 18.04C29.1405 18.0667 29.1271 18.0933 29.1005 18.12C29.1005 18.12 29.1005 18.1333 29.1005 18.16V18.12ZM23.9405 31.84C23.9405 31.8667 23.9405 31.88 23.9405 31.88C23.9938 31.88 23.9938 31.8533 23.9405 31.8V31.76V31.84ZM23.8605 32.48C23.8605 32.4533 23.8605 32.4933 23.8605 32.6C23.8605 32.68 23.8738 32.68 23.9005 32.6C23.9538 32.5467 23.9405 32.5067 23.8605 32.48ZM23.8205 33.68C23.8471 33.68 23.8605 33.6533 23.8605 33.6L23.8205 33.64C23.8205 33.64 23.8205 33.6533 23.8205 33.68ZM24.1005 32.96C24.0738 32.96 24.0738 32.9467 24.1005 32.92C24.1005 32.84 24.0605 32.8133 23.9805 32.84C23.9005 32.8667 23.8471 32.9067 23.8205 32.96C23.7405 33.0667 23.7538 33.12 23.8605 33.12C23.9671 33.12 24.0471 33.0667 24.1005 32.96ZM24.4605 32.36C24.4071 32.3867 24.4071 32.4533 24.4605 32.56C24.5138 32.6667 24.5805 32.6933 24.6605 32.64L24.7005 32.6L24.6605 32.64C24.7138 32.5867 24.7005 32.52 24.6205 32.44C24.5671 32.36 24.5138 32.3333 24.4605 32.36ZM24.5005 33.24C24.5271 33.24 24.5671 33.2533 24.6205 33.28C24.7005 33.28 24.7271 33.2667 24.7005 33.24C24.6738 33.2133 24.6071 33.1867 24.5005 33.16C24.4205 33.1067 24.3671 33.0933 24.3405 33.12C24.2871 33.1467 24.2871 33.1867 24.3405 33.24C24.3938 33.2933 24.4471 33.2933 24.5005 33.24ZM24.6605 33.48C24.6605 33.48 24.6871 33.4667 24.7405 33.44C24.7138 33.4133 24.6871 33.4133 24.6605 33.44C24.6338 33.44 24.6338 33.4533 24.6605 33.48ZM25.4605 31.96C25.4338 32.0133 25.4071 32.08 25.3805 32.16C25.3805 32.24 25.4338 32.24 25.5405 32.16C25.5405 32.2133 25.5405 32.24 25.5405 32.24C25.5405 32.24 25.5538 32.2267 25.5805 32.2C25.5538 32.1733 25.5405 32.1467 25.5405 32.12C25.5138 32.0667 25.5138 32.0667 25.5405 32.12C25.5671 32.1467 25.5671 32.16 25.5405 32.16C25.5138 32.1067 25.5005 32.08 25.5005 32.08C25.5005 32.0533 25.4871 32.0133 25.4605 31.96ZM25.3005 33.28C25.3005 33.3067 25.3138 33.3067 25.3405 33.28C25.3671 33.2533 25.3538 33.2533 25.3005 33.28ZM25.0205 33.24C25.1005 33.2933 25.2071 33.2533 25.3405 33.12C25.5005 32.96 25.5805 32.8533 25.5805 32.8C25.5271 32.8267 25.4471 32.84 25.3405 32.84C25.2605 32.8133 25.2071 32.7467 25.1805 32.64C25.2338 32.64 25.3138 32.6533 25.4205 32.68C25.5538 32.68 25.6071 32.6133 25.5805 32.48C25.5538 32.4 25.5138 32.3733 25.4605 32.4C25.4338 32.4 25.3938 32.3733 25.3405 32.32C25.2871 32.2667 25.2738 32.24 25.3005 32.24C25.3538 32.24 25.3671 32.2133 25.3405 32.16C25.3405 32.2133 25.2738 32.2 25.1405 32.12C25.0338 32.0133 25.0205 31.96 25.1005 31.96C25.0471 31.96 25.0205 31.9733 25.0205 32C25.0205 32 25.0071 32 24.9805 32C24.9538 32 24.9271 32.0267 24.9005 32.08C24.9005 32.1333 24.8738 32.16 24.8205 32.16C24.8205 32.2133 24.8338 32.24 24.8605 32.24C24.9138 32.2933 24.9138 32.2933 24.8605 32.24C24.8071 32.16 24.8071 32.16 24.8605 32.24C24.8605 32.1867 24.8471 32.1733 24.8205 32.2C24.8205 32.2 24.8471 32.1733 24.9005 32.12C24.9805 32.2533 25.0205 32.4 25.0205 32.56C25.0205 32.6933 25.0071 32.7333 24.9805 32.68C24.9805 32.6 24.9671 32.6267 24.9405 32.76C24.8871 32.8933 24.8471 33 24.8205 33.08C24.8205 33.1333 24.8871 33.1867 25.0205 33.24H24.9805H25.0205ZM25.5805 33.04C25.5005 33.0667 25.4605 33.1467 25.4605 33.28C25.4871 33.3867 25.5271 33.4267 25.5805 33.4C25.6338 33.3733 25.6471 33.36 25.6205 33.36C25.6205 33.36 25.6071 33.3733 25.5805 33.4C25.6071 33.4 25.6205 33.3333 25.6205 33.2C25.5938 33.1467 25.5805 33.0933 25.5805 33.04ZM25.6605 33.88C25.6871 33.9067 25.6871 33.8933 25.6605 33.84C25.6338 33.7867 25.5805 33.7867 25.5005 33.84C25.5271 33.8667 25.5805 33.88 25.6605 33.88ZM26.3405 33.48C26.3405 33.6133 26.4071 33.68 26.5405 33.68C26.6738 33.68 26.7671 33.7067 26.8205 33.76C26.8471 33.7333 26.8605 33.7067 26.8605 33.68V33.6C26.8071 33.4933 26.7271 33.4533 26.6205 33.48C26.5405 33.5067 26.4471 33.5067 26.3405 33.48ZM26.1405 33.52C26.0871 33.52 26.0738 33.5333 26.1005 33.56C26.1271 33.56 26.1405 33.5467 26.1405 33.52ZM26.9805 31.4C27.0071 31.3733 27.0471 31.3733 27.1005 31.4C27.0471 31.4533 27.0071 31.4533 26.9805 31.4ZM27.6205 32.32V32.28C27.6205 32.3067 27.6205 32.32 27.6205 32.32ZM27.5805 32.36C27.6071 32.36 27.6205 32.3733 27.6205 32.4C27.6205 32.4533 27.6338 32.48 27.6605 32.48C27.6605 32.4533 27.6471 32.44 27.6205 32.44C27.6205 32.4133 27.6205 32.3867 27.6205 32.36H27.5805ZM27.5805 32.44V32.36V32.44ZM27.2605 32.16C27.2871 32.1867 27.3005 32.1867 27.3005 32.16C27.3005 32.2133 27.3271 32.2667 27.3805 32.32C27.3005 32.2133 27.2605 32.12 27.2605 32.04H27.3405H27.2605C27.2338 32.04 27.2205 32.0267 27.2205 32C27.2738 32 27.2871 31.9867 27.2605 31.96C27.2605 31.9333 27.2338 31.92 27.1805 31.92L27.2205 31.96C27.2205 31.9867 27.2071 32 27.1805 32C27.2338 32.0533 27.2471 32.08 27.2205 32.08C27.2205 32.08 27.2338 32.1067 27.2605 32.16ZM27.5005 32.4V32.28C27.5005 32.3067 27.5005 32.3333 27.5005 32.36C27.5271 32.3867 27.5271 32.36 27.5005 32.28C27.5005 32.2 27.4871 32.1467 27.4605 32.12C27.5405 32.2 27.5538 32.2933 27.5005 32.4ZM27.2605 31.68C27.3138 31.6533 27.3138 31.6267 27.2605 31.6C27.2338 31.5733 27.2205 31.5467 27.2205 31.52C27.2205 31.6 27.2338 31.6533 27.2605 31.68ZM27.7805 30.2H27.8205H27.7805ZM28.1405 29.24C28.1405 29.24 28.1271 29.2533 28.1005 29.28H28.1405V29.24ZM29.1405 27.84V27.88V27.84V27.8C29.1405 27.8267 29.1138 27.8667 29.0605 27.92C29.1138 27.8667 29.1405 27.84 29.1405 27.84ZM29.5805 14.84C29.5805 14.9467 29.6205 14.9733 29.7005 14.92C29.6471 14.8667 29.6071 14.84 29.5805 14.84ZM29.7805 19.24C29.8338 19.2133 29.8605 19.1867 29.8605 19.16C29.8071 19.16 29.7805 19.1867 29.7805 19.24ZM29.9005 15.08C29.8471 15.1067 29.7938 15.1067 29.7405 15.08C29.7138 15.0267 29.7271 14.9867 29.7805 14.96C29.8338 14.9067 29.8605 14.9067 29.8605 14.96C29.8871 15.0133 29.9005 15.0533 29.9005 15.08ZM32.4205 20.68C32.4471 20.7333 32.4071 20.7867 32.3005 20.84C32.2471 20.7333 32.2871 20.68 32.4205 20.68ZM31.9405 15.52C31.9405 15.4933 31.9271 15.48 31.9005 15.48H31.9405V15.52ZM31.9405 15.48V15.52V15.48ZM31.7405 15.8C31.7405 15.7733 31.7271 15.76 31.7005 15.76C31.6738 15.7333 31.6871 15.7467 31.7405 15.8ZM30.6205 25.8C30.6205 25.8 30.5938 25.8267 30.5405 25.88C30.5405 25.88 30.5671 25.8667 30.6205 25.84C30.6471 25.84 30.6605 25.8267 30.6605 25.8H30.6205ZM30.6205 25.92C30.6471 25.8667 30.6605 25.84 30.6605 25.84C30.6605 25.8667 30.6471 25.8933 30.6205 25.92ZM30.6205 24.08C30.8338 24.0533 30.9005 24 30.8205 23.92C30.7405 23.8133 30.6605 23.7867 30.5805 23.84C30.5538 23.8667 30.5405 23.92 30.5405 24C30.5405 24.0533 30.5671 24.08 30.6205 24.08ZM30.8605 25.56H30.8205H30.8605ZM31.3405 24.48L31.3805 24.52C31.3805 24.4933 31.3671 24.48 31.3405 24.48ZM31.4205 23C31.4471 22.9467 31.4738 22.9067 31.5005 22.88C31.5538 22.8267 31.5671 22.7733 31.5405 22.72C31.4871 22.5867 31.4205 22.5733 31.3405 22.68C31.2605 22.76 31.2205 22.8133 31.2205 22.84C31.1138 22.92 30.9938 23.0667 30.8605 23.28C30.7538 23.4667 30.7271 23.6267 30.7805 23.76C30.8871 23.76 30.9405 23.76 30.9405 23.76C30.9405 23.7333 30.9671 23.6933 31.0205 23.64L31.3005 23.32C31.3271 23.2667 31.3138 23.2267 31.2605 23.2C31.2071 23.1733 31.2071 23.1333 31.2605 23.08C31.2871 23.0267 31.3138 23.0133 31.3405 23.04C31.3671 23.04 31.3938 23.0267 31.4205 23ZM31.6605 22.52C31.7138 22.5733 31.7271 22.5733 31.7005 22.52H31.6605ZM32.0605 21.84C32.0605 21.8133 32.0738 21.76 32.1005 21.68C32.1538 21.5733 32.1671 21.52 32.1405 21.52C32.0871 21.44 32.0471 21.4267 32.0205 21.48C32.0205 21.5067 31.9938 21.5333 31.9405 21.56C31.7538 21.6667 31.6871 21.8533 31.7405 22.12C31.7405 22.1467 31.7138 22.16 31.6605 22.16C31.6071 22.1333 31.5671 22.12 31.5405 22.12C31.5138 22.1467 31.5138 22.2 31.5405 22.28C31.5938 22.36 31.6338 22.4267 31.6605 22.48C31.7671 22.5333 31.8471 22.5067 31.9005 22.4C31.9538 22.2933 31.9938 22.2 32.0205 22.12C32.0471 22.0933 32.0605 22.0533 32.0605 22C32.0605 21.92 32.0605 21.8667 32.0605 21.84ZM32.1805 21.32H32.1005C32.1005 21.3467 32.0871 21.36 32.0605 21.36C32.0338 21.36 32.0471 21.36 32.1005 21.36L32.1805 21.32ZM32.4205 21.4C32.3938 21.3467 32.3671 21.28 32.3405 21.2C32.3405 21.0933 32.3005 21.0533 32.2205 21.08C32.1938 21.1333 32.1671 21.1467 32.1405 21.12C32.1671 21.1733 32.1671 21.2 32.1405 21.2C32.1405 21.2 32.1538 21.2133 32.1805 21.24V21.2C32.1805 21.1733 32.1938 21.1467 32.2205 21.12C32.2738 21.1733 32.2871 21.2 32.2605 21.2C32.2338 21.1733 32.2205 21.1467 32.2205 21.12C32.2471 21.1733 32.2738 21.2267 32.3005 21.28C32.3271 21.3067 32.3538 21.3467 32.3805 21.4H32.4205ZM32.4205 20.88C32.3938 20.88 32.3805 20.88 32.3805 20.88C32.3805 20.8533 32.3938 20.84 32.4205 20.84C32.4738 20.8933 32.4738 20.9067 32.4205 20.88ZM32.8205 16.76C32.8205 16.7867 32.8338 16.8 32.8605 16.8C32.8605 16.8 32.8471 16.7867 32.8205 16.76ZM32.8605 16.84V16.8V16.84ZM32.8205 18.28C32.7938 18.2533 32.7805 18.24 32.7805 18.24C32.7805 18.2133 32.7938 18.2133 32.8205 18.24C32.7671 18.1867 32.7405 18.12 32.7405 18.04C32.7405 17.9333 32.7138 17.8533 32.6605 17.8C32.6071 17.88 32.6071 17.9733 32.6605 18.08C32.7138 18.16 32.7671 18.2 32.8205 18.2C32.7938 18.2267 32.7938 18.2533 32.8205 18.28ZM32.7005 19.04C32.7271 18.9867 32.7805 18.92 32.8605 18.84C32.9671 18.7333 32.9671 18.6667 32.8605 18.64C32.7805 18.5867 32.7138 18.6267 32.6605 18.76C32.6338 18.8933 32.6471 18.9867 32.7005 19.04ZM32.9005 21.44C32.9005 21.4933 32.8871 21.5333 32.8605 21.56C32.8871 21.5333 32.9271 21.4267 32.9805 21.24C33.0338 21.0533 33.0738 20.9867 33.1005 21.04C33.0471 20.9867 33.0071 21.0267 32.9805 21.16C32.9538 21.2933 32.9271 21.3867 32.9005 21.44ZM33.1805 20.64C33.1538 20.6667 33.1405 20.68 33.1405 20.68C33.1405 20.6533 33.1538 20.64 33.1805 20.64ZM33.2605 18.8C33.2338 18.8533 33.2205 18.92 33.2205 19C33.2471 19.0533 33.2605 19.0933 33.2605 19.12V18.8ZM33.2605 19.44V19.48V19.44ZM33.3005 19.08C33.3005 19.1333 33.2871 19.1467 33.2605 19.12C33.2871 19.12 33.3005 19.12 33.3005 19.12C33.3005 19.0933 33.3138 19.08 33.3405 19.08H33.3005H33.3405H33.3005ZM33.4605 18.96L33.4205 19.04C33.3938 19.0133 33.3805 18.96 33.3805 18.88C33.3805 18.8 33.3405 18.7333 33.2605 18.68C33.3938 18.76 33.4605 18.8533 33.4605 18.96ZM29.1005 18.16V18.12V18.16ZM25.4605 34.32C25.4071 34.2933 25.4071 34.2933 25.4605 34.32C25.5138 34.32 25.5138 34.32 25.4605 34.32ZM23.9405 33.6V33.64V33.6ZM24.1005 32.96V32.92V32.96ZM32.9005 21.44C32.9271 21.3867 32.9271 21.3733 32.9005 21.4C32.9005 21.4 32.9005 21.4133 32.9005 21.44ZM25.4605 31.96C25.4871 32.0133 25.4871 32.04 25.4605 32.04C25.4338 32.04 25.4338 32.0133 25.4605 31.96ZM21.7805 22.16C21.8071 22.1867 21.8205 22.2 21.8205 22.2C21.8471 22.2 21.8738 22.2133 21.9005 22.24C21.8738 22.24 21.8605 22.2533 21.8605 22.28V22.32C21.8605 22.3467 21.8205 22.36 21.7405 22.36C21.6605 22.3333 21.6471 22.2667 21.7005 22.16C21.7538 22.08 21.7805 22.0667 21.7805 22.12C21.7805 22.1733 21.7805 22.1867 21.7805 22.16ZM28.9405 13.32C28.8871 13.2933 28.8605 13.28 28.8605 13.28C28.8605 13.28 28.9271 13.3067 29.0605 13.36C29.0071 13.4133 28.9671 13.4 28.9405 13.32ZM21.8205 22C21.7671 22.0267 21.7538 22.04 21.7805 22.04C21.8071 22.04 21.8205 22.0267 21.8205 22ZM21.8205 22.36C21.8738 22.36 21.9005 22.3467 21.9005 22.32C21.8471 22.3467 21.8205 22.36 21.8205 22.36ZM23.8605 21.28C23.8071 21.28 23.7805 21.2933 23.7805 21.32C23.8338 21.32 23.8605 21.3067 23.8605 21.28ZM21.2205 21.92C21.1671 21.9467 21.1671 21.9467 21.2205 21.92C21.2738 21.8667 21.2738 21.8667 21.2205 21.92Z" fill="white"/>
</svg>
