<svg width="61" height="61" viewBox="0 0 61 61" fill="none" xmlns="http://www.w3.org/2000/svg">
<g clip-path="url(#clip0)">
<path d="M30.4615 60.9231C47.285 60.9231 60.9231 47.285 60.9231 30.4615C60.9231 13.6381 47.285 0 30.4615 0C13.6381 0 0 13.6381 0 30.4615C0 47.285 13.6381 60.9231 30.4615 60.9231Z" fill="#DDCCFF"/>
<path d="M52.836 34.201C51.4357 31.5927 48.1425 29.7922 48.1425 26.6068C48.1425 24.9448 49.2659 24.4139 49.2659 22.5288C49.2659 20.6437 49.0966 18.6355 47.5962 16.4889C45.2495 13.1265 40.279 8.20215 29.2532 8.20215C15.996 8.20215 4.91625 18.12 10.6485 33.547C12.6028 39.1561 17.681 41.4721 17.681 44.7806C17.681 46.2194 17.2963 48.7816 16.273 51.213C14.9342 54.3753 13.6646 57.0991 13.6646 57.0991C15.9113 58.8765 21.0049 61.0078 25.86 61.0078C32.4924 61.0078 38.4093 58.8765 38.4093 58.8765L38.0554 56.6297C37.94 54.1445 37.3937 52.875 37.3937 52.875C37.0859 51.4054 38.0631 50.3282 39.5558 50.4743C39.5558 50.4743 40.5252 50.5744 43.3182 50.9052C45.1033 51.113 46.8576 51.1284 47.9886 50.5051C50.8971 48.9047 48.0425 46.0348 48.0425 45.0422C48.0425 44.042 50.1046 44.0881 50.1046 42.9878C50.1046 41.8876 48.1733 42.3877 48.1425 41.6875C48.1194 40.9873 50.8047 41.5336 50.8047 40.4334C50.8047 39.3331 49.6968 39.0946 49.6968 37.8635C49.6968 36.9094 52.3359 36.7247 52.9437 35.5167C53.113 35.1474 53.1515 34.7935 52.836 34.201ZM29.0069 34.9089C19.9816 28.7227 18.412 25.3911 18.6659 21.5978C18.9275 17.8046 24.0518 13.8805 29.0069 18.5817C33.962 13.8882 39.0941 17.8046 39.348 21.5978C39.6096 25.3911 38.0323 28.7227 29.0069 34.9089Z" fill="#4E1ABA"/>
<path d="M29.0075 34.909C19.9822 28.7228 18.4126 25.3912 18.6665 21.598C18.9281 17.8047 24.0524 13.8806 29.0075 18.5818C33.9626 13.8883 39.0947 17.8047 39.3486 21.598C39.6102 25.3912 38.0329 28.7228 29.0075 34.909Z" fill="#DDCCFF"/>
</g>
<defs>
<clipPath id="clip0">
<rect width="60.9231" height="61" fill="white"/>
</clipPath>
</defs>
</svg>
