<svg width="104" height="104" viewBox="0 0 104 104" fill="none" xmlns="http://www.w3.org/2000/svg">
<g clip-path="url(#clip0)">
<path d="M52 103.869C80.7188 103.869 104 80.617 104 51.9344C104 23.2518 80.7188 0 52 0C23.2812 0 0 23.2518 0 51.9344C0 80.617 23.2812 103.869 52 103.869Z" fill="#DDCCFF"/>
<path d="M90.1956 58.3096C87.8051 53.8626 82.1835 50.7929 82.1835 45.3621C82.1835 42.5286 84.1012 41.6234 84.1012 38.4095C84.1012 35.1956 83.8122 31.7717 81.251 28.1118C77.2449 22.3792 68.7599 13.9836 49.938 13.9836C27.307 13.9836 8.39318 30.8928 18.1785 57.1945C21.5147 66.7576 30.1835 70.7062 30.1835 76.3469C30.1835 78.8 29.5268 83.1683 27.7799 87.3136C25.4945 92.7051 23.3273 97.3489 23.3273 97.3489C27.1626 100.379 35.8577 104.013 44.1456 104.013C55.4677 104.013 65.5682 100.379 65.5682 100.379L64.964 96.5487C64.767 92.3116 63.8344 90.1471 63.8344 90.1471C63.3091 87.6416 64.9772 85.805 67.5253 86.0543C67.5253 86.0543 69.1802 86.2248 73.9481 86.7889C76.9953 87.1431 79.99 87.1693 81.9208 86.1068C86.8857 83.3782 82.0128 78.4852 82.0128 76.7929C82.0128 75.0876 85.5329 75.1663 85.5329 73.2904C85.5329 71.4145 82.2361 72.2672 82.1835 71.0735C82.1441 69.8797 86.7281 70.8111 86.7281 68.9352C86.7281 67.0593 84.8367 66.6527 84.8367 64.5538C84.8367 62.9271 89.3419 62.6123 90.3795 60.5528C90.6685 59.9231 90.7342 59.3197 90.1956 58.3096ZM49.5177 59.5164C34.1108 48.9695 31.4313 43.2894 31.8648 36.8222C32.3113 30.355 41.059 23.6648 49.5177 31.6799C57.9764 23.6779 66.7372 30.355 67.1706 36.8222C67.6172 43.2894 64.9246 48.9695 49.5177 59.5164Z" fill="#4E1ABA"/>
<path d="M49.5177 59.5165C34.1107 48.9696 31.4313 43.2895 31.8647 36.8223C32.3113 30.3551 41.059 23.6649 49.5177 31.68C57.9764 23.678 66.7372 30.3551 67.1706 36.8223C67.6172 43.2895 64.9246 48.9696 49.5177 59.5165Z" fill="#DDCCFF"/>
</g>
<defs>
<clipPath id="clip0">
<rect width="104" height="104" fill="white"/>
</clipPath>
</defs>
</svg>
