<svg width="18" height="17" viewBox="0 0 18 17" fill="none" xmlns="http://www.w3.org/2000/svg">
<path d="M9.50557 0.590643L11.3461 4.3758C11.5003 4.68913 11.7938 4.90643 12.1321 4.95697L16.246 5.5634C17.1016 5.68974 17.4449 6.76111 16.8231 7.3726L13.8483 10.3239C13.5996 10.5665 13.4902 10.9202 13.5498 11.2639L14.2513 15.423C14.3955 16.2922 13.5001 16.9543 12.734 16.5449L9.05787 14.5791C8.75442 14.4173 8.39128 14.4173 8.08286 14.5791L4.4067 16.5449C3.64063 16.9543 2.74522 16.2922 2.88948 15.423L3.59088 11.2639C3.65058 10.9202 3.53616 10.5665 3.29241 10.3239L0.317658 7.37765C-0.304155 6.76111 0.0390855 5.6948 0.894701 5.56846L5.00862 4.96202C5.34688 4.91149 5.64536 4.69418 5.79459 4.38086L7.63516 0.595697C8.01322 -0.197721 9.12253 -0.197721 9.50557 0.590643Z" fill="#FFD382"/>
</svg>
