<svg width="23" height="23" viewBox="0 0 23 23" fill="none" xmlns="http://www.w3.org/2000/svg">
<path fill-rule="evenodd" clip-rule="evenodd" d="M11.5 0C5.14856 0 0 5.14856 0 11.5C0 17.8514 5.14856 23 11.5 23C17.8514 23 23 17.8514 23 11.5C23 5.14856 17.8514 0 11.5 0ZM12.3147 19.0457C11.8808 19.5331 11.1192 19.5331 10.6853 19.0457C8.52053 16.6134 5.71368 12.4768 5.71368 9.56524C5.71368 6.26435 8.30417 3.58872 11.5 3.58872C14.6958 3.58872 17.2863 6.26435 17.2863 9.56524C17.2863 12.4768 14.4795 16.6134 12.3147 19.0457Z" fill="#DB8F00"/>
<path d="M13.6912 11.8331C14.9013 10.623 14.9013 8.66114 13.6912 7.45108C12.4811 6.24102 10.5192 6.24102 9.30918 7.45108C8.09911 8.66114 8.09911 10.623 9.30918 11.8331C10.5192 13.0432 12.4811 13.0432 13.6912 11.8331Z" fill="#DB8F00"/>
</svg>
