<svg width="14" height="19" viewBox="0 0 14 19" fill="none" xmlns="http://www.w3.org/2000/svg">
<path fill-rule="evenodd" clip-rule="evenodd" d="M7 0C3.03179 0 0 3.31574 0 7.16681C0 12.0346 3.11862 15.7382 6.58612 18.8407C6.82322 19.0529 7.17678 19.0529 7.41387 18.8407C10.8814 15.7382 14 12.0346 14 7.16681C14 3.31574 10.9682 0 7 0ZM7 4.66433C8.53903 4.66433 9.78586 5.8963 9.78586 7.417C9.78586 8.9377 8.53903 10.1697 7 10.1697C5.46097 10.1697 4.21414 8.9377 4.21414 7.417C4.21414 5.8963 5.46097 4.66433 7 4.66433Z" fill="#C9C9C7"/>
</svg>
