<svg width="91" height="69" viewBox="0 0 91 69" fill="none" xmlns="http://www.w3.org/2000/svg">
<path d="M0 0H90.5557V27.5446H0V0Z" fill="white"/>
<path d="M72.3039 47.9631C72.2669 47.9631 72.2669 47.8892 72.3039 47.7784C72.3409 47.6308 72.378 47.6308 72.6001 47.6677C72.7852 47.7046 72.8222 47.6677 72.8963 47.5569C73.0443 47.3723 72.9333 47.2246 72.6741 47.2615C72.452 47.2984 72.452 47.2984 72.489 47.1508C72.6001 46.7077 72.6371 46.7077 72.2669 46.6708C71.8226 46.5969 71.3783 46.3754 71.0452 46.0431C70.5639 45.5631 70.3788 45.0461 70.4158 44.2338C70.4528 43.8277 70.4898 43.68 70.6379 43.3846C71.0822 42.4984 72.0818 42.0554 73.4516 42.1292C73.7478 42.1292 74.118 42.2031 74.2661 42.24L74.5622 42.3138L74.5993 43.2738H74.4142C74.3031 43.2738 74.229 43.2369 74.229 43.2C74.229 43.0523 73.8588 42.7569 73.5997 42.6461C73.2665 42.5354 72.6371 42.5723 72.3039 42.6831C71.5635 43.0154 71.2303 43.8277 71.4524 44.7877C71.5635 45.2308 71.7116 45.5261 72.0448 45.8215C72.3409 46.1169 72.6741 46.2277 73.1184 46.2277C73.5997 46.2277 73.9699 46.0431 74.192 45.6738C74.3401 45.4154 74.3771 45.3784 74.5252 45.4892C74.5993 45.5261 74.5993 45.6 74.5252 46.0061L74.4512 46.4861L74.192 46.56C74.0439 46.5969 73.7107 46.6708 73.4516 46.6708C72.9703 46.7077 72.9703 46.7077 72.9703 46.8184C72.9703 46.8923 73.0073 46.9292 73.1184 46.9292C73.3035 46.9292 73.4886 47.0769 73.5256 47.2246C73.5627 47.4461 73.4146 47.7415 73.1924 47.8523C73.0443 47.9631 72.415 48 72.3039 47.9631ZM37.2811 47.7415C36.7628 47.5938 36.3186 47.4092 35.8002 47.04L35.356 46.7446L34.6526 46.7077C33.8751 46.6708 33.5789 46.5969 33.0976 46.2646C31.987 45.5261 31.95 43.6431 33.0236 42.72C33.8381 42.0184 35.2819 41.9077 36.2815 42.3877C37.6884 43.0523 37.8364 45.0831 36.5407 46.1169C36.3556 46.2646 36.1705 46.4123 36.1334 46.4123C36.0224 46.4123 37.3922 47.0769 37.7994 47.2246C38.2437 47.3723 38.762 47.4092 39.1322 47.2615C39.4284 47.1877 39.4654 47.1877 39.5024 47.3354C39.5395 47.4461 39.4654 47.4831 39.2063 47.5938C38.799 47.8523 37.8735 47.8892 37.2811 47.7415ZM35.5411 46.1169C36.5407 45.6369 36.7258 44.16 35.9113 43.2369C35.1709 42.3508 33.8381 42.4985 33.3568 43.4954C32.9125 44.4185 33.4308 45.8215 34.3194 46.1908C34.7266 46.3015 35.1709 46.3015 35.5411 46.1169ZM4.62775 46.6708C4.36859 46.56 4.07242 46.2277 3.59113 45.5261C2.88771 44.4185 2.73963 44.2708 2.51749 44.2708H2.33238V44.8615C2.33238 45.9323 2.44345 46.3384 2.85069 46.4123C2.96176 46.4492 2.99878 46.4861 2.99878 46.56V46.7077H0.592351V46.5969C0.592351 46.5231 0.629373 46.4492 0.777461 46.4123C0.888527 46.3754 1.03662 46.3015 1.07364 46.2277C1.1847 46.08 1.1847 46.0431 1.1847 44.0123C1.1847 41.9815 1.1847 41.9446 1.07364 41.7969C0.999593 41.7231 0.851505 41.6123 0.777461 41.6123C0.629373 41.5754 0.592351 41.5385 0.592351 41.4646C0.592351 41.3538 0.592351 41.3538 2.07323 41.3169C3.66517 41.28 3.99837 41.3169 4.44264 41.5015C4.84988 41.6861 5.14605 42.2031 5.14605 42.6461C5.14605 43.1631 4.73881 43.7538 4.14646 43.9754L3.85028 44.1231L4.51668 45.0092C5.29414 46.0431 5.51627 46.3015 5.73841 46.4123C5.96054 46.5231 5.96054 46.7077 5.77543 46.7815C5.5533 46.7815 4.77583 46.7446 4.62775 46.6708ZM3.14687 43.7169C3.92433 43.5323 4.2205 42.5354 3.59113 42.0185C3.29496 41.76 2.99878 41.6861 2.62856 41.7231L2.33238 41.76V43.7538H2.62856C2.77665 43.7538 2.99878 43.7538 3.14687 43.7169ZM16.6969 46.6708C16.3637 46.56 16.0675 46.3754 15.9194 46.1908C15.6233 45.8584 15.5862 45.6738 15.5862 44.2708C15.5862 42.7938 15.5492 42.6461 15.2531 42.4984C15.142 42.4615 15.0679 42.3877 15.0679 42.3138C15.0679 42.2031 15.105 42.2031 16.0675 42.2031C17.0671 42.2031 17.0671 42.2031 17.0671 42.3138C17.0671 42.3877 17.0301 42.4246 16.9561 42.4246C16.882 42.4246 16.771 42.4985 16.6969 42.5723L16.5488 42.72V44.16C16.5488 45.5261 16.5488 45.6 16.6599 45.8215C16.845 46.1169 17.2152 46.3015 17.6595 46.2646C18.1408 46.2277 18.4369 46.08 18.622 45.7108C18.7701 45.4154 18.7701 45.4154 18.7701 44.1231C18.7701 42.9784 18.7701 42.7938 18.6591 42.6831C18.585 42.6092 18.474 42.5354 18.3999 42.4984C18.2889 42.4615 18.2518 42.4246 18.2518 42.3508C18.2518 42.24 18.2889 42.24 19.0293 42.24C19.7697 42.24 19.8068 42.24 19.8068 42.3508C19.8068 42.4246 19.7697 42.4615 19.6587 42.4984C19.3995 42.5723 19.3625 42.6831 19.3255 44.1969L19.2884 45.6369L19.1033 45.9323C18.8812 46.3015 18.548 46.56 18.1037 46.6708C17.8446 46.7446 16.9931 46.7446 16.6969 46.6708C16.6969 46.6338 16.6969 46.6708 16.6969 46.6708ZM39.6505 46.6708C39.3173 46.56 39.0212 46.3754 38.8731 46.1908C38.5769 45.8584 38.5399 45.6369 38.5399 44.2338C38.5399 42.7938 38.5028 42.6461 38.2067 42.4984C38.0956 42.4615 38.0216 42.3877 38.0216 42.3138C38.0216 42.2031 38.0586 42.2031 39.0212 42.2031C40.0207 42.2031 40.0207 42.2031 40.0207 42.3138C40.0207 42.3877 39.9837 42.4246 39.9097 42.4615C39.8356 42.4615 39.7246 42.5354 39.6505 42.6461C39.5395 42.7938 39.5395 42.8677 39.5024 44.0492C39.4654 45.4892 39.5395 45.7846 39.7986 46.0061C40.2799 46.4492 41.2795 46.3384 41.5757 45.7846C41.7608 45.4523 41.7978 45.0092 41.7978 43.9015C41.7608 42.72 41.7238 42.5723 41.4276 42.4984C41.3165 42.4615 41.2795 42.4246 41.2795 42.3508C41.2795 42.2769 41.3165 42.24 42.057 42.24C42.7974 42.24 42.8714 42.24 42.8714 42.3508C42.8714 42.4246 42.7974 42.4615 42.6863 42.4984C42.5753 42.5354 42.5012 42.6092 42.4642 42.6461C42.4272 42.6831 42.3902 43.3846 42.3902 44.16L42.3531 45.6L42.168 45.8954C41.9459 46.2646 41.6127 46.5231 41.1684 46.6338C40.7982 46.7815 39.9097 46.7815 39.6505 46.6708C39.6135 46.6708 39.6505 46.6708 39.6505 46.6708ZM58.3096 46.6708C58.0875 46.56 57.7913 46.2646 57.347 45.6C56.7917 44.7508 56.7177 44.6769 56.5696 44.6769C56.4215 44.6769 56.4215 44.6769 56.4215 45.3415C56.4215 46.1169 56.4955 46.3754 56.7547 46.4123C56.9028 46.4492 56.9398 46.4861 56.9398 46.56V46.6708H54.9406V46.56C54.9406 46.4492 54.9776 46.4123 55.1257 46.4123C55.4589 46.3384 55.4959 46.1908 55.4589 44.3815V42.7569L55.3108 42.6092C55.2368 42.5354 55.1257 42.4615 55.0517 42.4615C54.9776 42.4615 54.9406 42.4246 54.9406 42.3508C54.9406 42.2769 55.0146 42.24 55.3849 42.2031C55.607 42.1661 56.2734 42.1661 56.8287 42.1661C57.7543 42.1661 57.8653 42.2031 58.0875 42.3138C58.4947 42.4984 58.6798 42.8677 58.6798 43.3108C58.6798 43.7538 58.4207 44.1231 57.9024 44.3815C57.7543 44.4554 57.6432 44.5292 57.6802 44.5661C57.7172 44.6031 57.9764 44.8984 58.2726 45.3046C58.8279 46.08 59.1241 46.4123 59.2722 46.4123C59.3832 46.4123 59.3832 46.6708 59.2722 46.7077C59.1241 46.7446 58.4947 46.7077 58.3096 46.6708ZM57.1989 44.16C57.4211 44.0492 57.6802 43.7908 57.7172 43.5692C57.7913 43.3108 57.6432 42.9415 57.4211 42.7569C57.1989 42.5723 57.0138 42.5354 56.6806 42.5723L56.4585 42.6092V44.2338H56.7547C56.9028 44.2338 57.1249 44.1969 57.1989 44.16ZM83.4105 46.6338C83.2254 46.5969 83.0773 46.56 83.0773 46.5231C83.0773 46.5231 83.0033 46.2646 82.9662 46.0061L82.8922 45.4892H83.0403C83.1143 45.4892 83.1884 45.5261 83.1884 45.5261C83.1884 45.6738 83.5586 46.08 83.7807 46.1538C84.3731 46.4123 85.1135 46.1538 85.1135 45.7108C85.1135 45.4154 84.9654 45.2308 84.3731 44.8984C83.5956 44.4554 83.2624 44.1969 83.1143 43.9384C82.9662 43.6431 82.9292 43.2 83.0403 42.8677C83.1143 42.6461 83.4845 42.3508 83.8177 42.2031C84.1139 42.0923 85.1135 42.0923 85.5207 42.2031L85.8169 42.3138V43.2738H85.6318C85.4837 43.2738 85.4467 43.2369 85.4097 43.1261C85.3356 42.9046 85.0395 42.6461 84.7803 42.5723C84.0769 42.3877 83.5216 43.0523 83.9658 43.5323C84.0399 43.6061 84.4471 43.9015 84.8173 44.1231C85.5578 44.5661 85.8539 44.8246 85.928 45.12C86.1501 45.7846 85.7799 46.3754 85.0765 46.5969C84.7433 46.7815 83.8918 46.7815 83.4105 46.6338ZM6.29373 46.5231C6.29373 46.4123 6.33076 46.4123 6.44182 46.4123C6.51587 46.4123 6.62693 46.3384 6.70098 46.2646C6.81204 46.1169 6.81204 46.08 6.81204 44.4554C6.81204 43.2738 6.77502 42.7569 6.738 42.6831C6.66395 42.5354 6.51587 42.4246 6.36778 42.4246C6.29374 42.4246 6.25671 42.3877 6.25671 42.2769V42.1292H9.7738V43.2369H9.62571C9.51465 43.2369 9.4406 43.1631 9.40358 43.0523C9.29251 42.72 9.1074 42.6461 8.40399 42.6461L7.77461 42.6092V44.1231L8.2559 44.0861C8.77421 44.0492 9.03336 43.9384 9.07038 43.7169C9.07038 43.6431 9.14443 43.6061 9.25549 43.6061H9.40358V44.9723H9.25549C9.1074 44.9723 9.1074 44.9354 9.1074 44.8615C9.1074 44.64 8.92229 44.5292 8.32994 44.5292L7.81164 44.4923V45.2308C7.81164 46.1169 7.81164 46.1538 8.47803 46.1538C9.14443 46.1538 9.47762 46.0061 9.66273 45.6369C9.73678 45.4523 9.95891 45.4154 10.033 45.5631C10.07 45.6738 9.92189 46.2646 9.7738 46.4861L9.69976 46.6338H7.99675H6.29373V46.5231C6.25671 46.56 6.29373 46.5231 6.29373 46.5231ZM10.8104 46.56C10.8104 46.4492 10.8474 46.4123 10.9955 46.4123C11.2917 46.3384 11.3287 46.2646 11.3287 44.5661C11.3657 42.7938 11.3287 42.6461 10.9955 42.4984C10.8474 42.4246 10.8104 42.3877 10.8104 42.2769V42.1661L12.1432 42.2031C13.5871 42.24 13.6981 42.24 14.1054 42.5354C14.5496 42.8677 14.6607 43.5323 14.3645 44.0123C14.1054 44.4554 13.6611 44.6769 12.9577 44.7138L12.5875 44.7508L12.5134 44.5661L12.4024 44.3815L12.6245 44.3446C12.8836 44.3077 13.1798 44.16 13.3649 43.9754C13.439 43.8646 13.476 43.7538 13.476 43.5323C13.476 43.0154 13.1428 42.72 12.5875 42.6461L12.2543 42.6092V44.3815C12.2913 46.3015 12.2913 46.3754 12.6245 46.4123C12.7356 46.4492 12.7726 46.4861 12.7726 46.56V46.6708H10.7734L10.8104 46.56ZM20.5842 46.5231C20.5842 46.4492 20.6212 46.4123 20.6953 46.4123C20.7693 46.4123 20.8804 46.3754 20.9544 46.3015L21.1025 46.1908V44.5661C21.1395 42.72 21.1025 42.5723 20.7693 42.4615C20.6583 42.4246 20.5842 42.3508 20.5842 42.3138C20.5842 42.24 20.6583 42.2031 21.4727 42.2031C23.1758 42.1661 23.546 42.2031 23.8421 42.3138C24.2124 42.4615 24.3605 42.6831 24.3975 43.0892C24.3975 43.2738 24.3975 43.4584 24.3975 43.5323C24.3234 43.7538 24.0643 44.0123 23.7681 44.1231L23.4719 44.2338L23.6941 44.3077C24.2494 44.4554 24.6196 45.0092 24.5456 45.5631C24.4715 46.0431 24.2494 46.3384 23.7311 46.56C23.4349 46.6708 23.3609 46.6708 22.0281 46.6708H20.6212L20.5842 46.5231ZM23.1758 46.1169C23.4719 45.9323 23.583 45.6738 23.546 45.3046C23.5089 44.7508 23.0647 44.4185 22.3983 44.4185H22.0281V45.2308C22.0281 46.0061 22.0651 46.0431 22.1762 46.1169C22.4353 46.3015 22.9166 46.3015 23.1758 46.1169ZM22.9536 43.9384C23.3238 43.8277 23.5089 43.5692 23.4719 43.2369C23.4349 42.8308 23.0647 42.6092 22.4353 42.6092H22.0651V44.0492H22.3613C22.5464 44.0123 22.8055 43.9754 22.9536 43.9384ZM25.36 46.5231C25.36 46.4492 25.3971 46.4123 25.5081 46.3754C25.5822 46.3754 25.7303 46.3015 25.8043 46.1908C25.9154 46.0431 25.9154 45.9692 25.9154 44.4185C25.9154 43.1261 25.8784 42.7569 25.8413 42.6461C25.7303 42.4984 25.6192 42.3877 25.4711 42.3877C25.3971 42.3877 25.36 42.3508 25.36 42.2769C25.36 42.1661 25.36 42.1661 26.4337 42.1661C27.5073 42.1661 27.5073 42.1661 27.5073 42.2769C27.5073 42.3508 27.4703 42.3877 27.3963 42.3877C27.3222 42.3877 27.2111 42.4615 27.1001 42.4984L26.952 42.6461L26.915 44.3077V45.9692L27.0631 46.0431C27.1741 46.1169 27.3222 46.1169 27.6554 46.1169C28.2107 46.08 28.4699 45.9692 28.618 45.6369C28.729 45.4154 28.8401 45.3784 28.9882 45.4523C29.0252 45.4892 29.0252 45.6 28.9512 45.8954C28.8771 46.1169 28.8031 46.3754 28.729 46.4492L28.618 46.56L26.989 46.5231L25.36 46.4861V46.5231ZM29.4695 46.56C29.4695 46.4492 29.5065 46.4123 29.6546 46.4123C29.9878 46.3384 29.9878 46.2277 29.9878 44.4185C29.9878 42.9415 29.9878 42.8308 29.8767 42.6831C29.8027 42.5723 29.6916 42.4984 29.6176 42.4615C29.5065 42.4246 29.4695 42.3877 29.4695 42.3138C29.4695 42.2031 29.4695 42.2031 30.4691 42.2031C31.4687 42.2031 31.4687 42.2031 31.4687 42.3138C31.4687 42.3877 31.4317 42.4246 31.3206 42.4615C31.2095 42.4984 31.1355 42.5723 31.0614 42.6461C30.9504 42.7938 30.9504 42.9415 30.9504 44.4185C30.9504 46.2277 30.9874 46.3754 31.2836 46.4123C31.3946 46.4492 31.4317 46.4861 31.4317 46.56V46.6708H29.4325L29.4695 46.56ZM43.5378 46.56C43.5378 46.4861 43.5749 46.4492 43.7229 46.4123C44.0561 46.3384 44.0561 46.2277 44.0561 44.4185C44.0561 42.8677 44.0561 42.8308 43.9081 42.6461C43.834 42.5354 43.7229 42.4615 43.6489 42.4615C43.5378 42.4615 43.5378 42.4246 43.5378 42.3138V42.2031H47.0179V42.7569C47.0179 43.3108 47.0179 43.3108 46.8698 43.3108C46.7587 43.3108 46.7217 43.2738 46.6847 43.1261C46.6107 42.8308 46.3885 42.72 45.6851 42.6831L45.0928 42.6461L45.0557 42.9046C45.0187 43.0523 45.0187 43.3846 45.0187 43.6431V44.16L45.5 44.1231C46.0553 44.0861 46.2775 44.0123 46.3145 43.7908C46.3515 43.68 46.3885 43.6431 46.4996 43.6431H46.6477V45.0092H46.4996C46.3885 45.0092 46.3515 44.9723 46.3515 44.9354C46.3515 44.6769 46.0553 44.5661 45.463 44.5661H44.9817L45.0187 45.3046C45.0557 46.1908 45.0557 46.1908 45.7592 46.1908C46.3885 46.1908 46.7217 46.0431 46.8698 45.7108C46.9439 45.5261 47.0179 45.4892 47.129 45.4892C47.203 45.4892 47.2771 45.5261 47.3141 45.5631C47.3511 45.6369 47.0919 46.4861 47.0179 46.5969C46.9439 46.6708 46.6477 46.6708 45.2779 46.6708H43.6119L43.5378 46.56ZM50.0167 46.56C50.0167 46.4861 50.0537 46.4123 50.2018 46.3754C50.3129 46.3384 50.4239 46.2277 50.498 46.1538C50.609 46.0061 50.609 45.9323 50.609 44.0123C50.609 41.76 50.609 41.7231 50.2018 41.6123C50.0537 41.5754 49.9797 41.5384 49.9797 41.4277V41.28H54.0891V42.6092H53.904C53.7559 42.6092 53.7189 42.5723 53.7189 42.4984C53.7189 42.3138 53.4967 42.0184 53.2746 41.9446C53.1265 41.9077 52.8303 41.8338 52.3861 41.8338L51.7197 41.7969V43.6061H52.201C52.8674 43.6061 53.0525 43.5323 53.2006 43.2738C53.2746 43.1261 53.3487 43.0892 53.4967 43.0892H53.6819V44.6769L53.4967 44.64C53.3487 44.64 53.3116 44.6031 53.2746 44.5292C53.1635 44.2338 52.8303 44.0861 52.0899 44.0861H51.7197L51.7567 45.0092C51.7937 46.08 51.8308 46.2277 52.201 46.3384C52.3491 46.3754 52.4231 46.4492 52.4231 46.5231V46.6338H49.9797L50.0167 46.56ZM59.4203 46.56C59.4203 46.4492 59.4573 46.4123 59.5313 46.4123C59.7164 46.4123 59.9015 46.08 60.3458 45.0831C60.9382 43.7169 61.5305 42.3508 61.5305 42.2769C61.5305 42.2031 61.6046 42.2031 61.8267 42.2031H62.1229L62.9003 44.0492C63.7518 46.0431 63.9369 46.3384 64.122 46.4123C64.1961 46.4492 64.2701 46.5231 64.2701 46.5969C64.2701 46.7077 64.2701 46.7077 63.2705 46.7077H62.271V46.5969C62.271 46.4861 62.308 46.4492 62.4561 46.4492C62.7152 46.4123 62.7152 46.2646 62.5301 45.7108L62.345 45.2677H60.9382L60.7901 45.6369C60.605 46.1169 60.605 46.4123 60.8271 46.4492C60.9382 46.4492 60.9752 46.4861 60.9752 46.5969V46.7446H59.4573L59.4203 46.56ZM62.1599 44.6769C62.1599 44.6031 61.7156 43.5323 61.6786 43.5323C61.6416 43.5323 61.6046 43.6431 61.5305 43.7538L61.2714 44.3446L61.1233 44.7138H61.6046C61.9007 44.7138 62.1229 44.7138 62.1599 44.6769ZM64.6774 46.56C64.6774 46.4861 64.7144 46.4123 64.8255 46.4123C65.1587 46.3384 65.1587 46.2646 65.1957 44.5661C65.2327 42.7938 65.1957 42.6461 64.8625 42.4984C64.7514 42.4615 64.6774 42.3877 64.6774 42.3508C64.6774 42.2769 64.7514 42.2769 65.3438 42.2769H66.0102L66.3804 42.72C66.6025 42.9784 67.1208 43.5323 67.6021 44.0492C67.9353 44.3815 68.2315 44.7508 68.5647 45.0831L68.7128 45.2308L68.6758 44.0492C68.6387 42.7569 68.6387 42.6092 68.3055 42.5354C68.1945 42.4984 68.1574 42.4615 68.1574 42.3877C68.1574 42.3138 68.1945 42.2769 68.9349 42.2769C69.6753 42.2769 69.7124 42.2769 69.7124 42.3877C69.7124 42.4615 69.6753 42.4984 69.5643 42.4984C69.4902 42.4984 69.3792 42.5723 69.3051 42.6831C69.1941 42.8308 69.1941 42.9046 69.157 44.7877L69.12 46.7446H68.8609C68.6387 46.7446 68.5647 46.7077 68.4166 46.5231C68.2685 46.3384 65.751 43.5692 65.677 43.4584C65.677 43.4584 65.677 44.0123 65.677 44.7508C65.714 46.2277 65.751 46.4123 66.0102 46.4492C66.1583 46.4861 66.1953 46.5231 66.1953 46.5969V46.7077H64.6033L64.6774 46.56ZM74.9695 46.56C74.9695 46.4861 75.0065 46.4123 75.0435 46.4123C75.1546 46.4123 75.3767 46.1538 75.5248 45.8584C75.7469 45.4154 76.7465 43.0892 76.9316 42.6092L77.0797 42.1661L77.598 42.2031L78.3755 44.0123C78.8198 45.0092 79.19 45.8954 79.264 46.0061C79.4121 46.2277 79.5972 46.4492 79.6713 46.4492C79.7083 46.4492 79.7453 46.5231 79.7453 46.5969V46.7446H77.7461V46.5969C77.7461 46.5231 77.7832 46.4492 77.8572 46.4492C78.1534 46.4492 78.1534 46.2277 77.9683 45.6369L77.8202 45.2308H76.4504L76.3393 45.6C76.1172 46.2646 76.1172 46.4492 76.3763 46.4492C76.4504 46.4492 76.4874 46.4861 76.4874 46.5969V46.7446H74.9695V46.56ZM77.487 44.1969C77.3759 43.9015 77.2648 43.6061 77.2648 43.5692C77.2278 43.5323 77.1168 43.7169 76.9687 44.0861C76.8206 44.4184 76.7095 44.6769 76.7095 44.7138C76.7095 44.7508 76.9316 44.7508 77.1908 44.7508H77.6721L77.487 44.1969ZM80.1526 46.56C80.1526 46.4492 80.1896 46.4123 80.3006 46.4123C80.3747 46.4123 80.4858 46.3754 80.5598 46.3015C80.6709 46.1908 80.6709 46.08 80.6709 44.5292C80.6709 43.6061 80.6709 42.8308 80.6709 42.7569C80.6338 42.6092 80.4117 42.4246 80.2636 42.4246C80.1896 42.4246 80.1526 42.3877 80.1526 42.3138C80.1526 42.2031 80.1526 42.2031 81.1522 42.2031C82.1147 42.2031 82.1517 42.2031 82.1517 42.3138C82.1517 42.3877 82.0777 42.4615 81.9666 42.4984C81.8556 42.5354 81.7815 42.6461 81.7445 42.72C81.6705 42.9046 81.5964 44.5661 81.6705 45.4523C81.7075 46.08 81.7445 46.2277 81.8186 46.3015C81.8926 46.3754 81.9666 46.4123 82.0407 46.4123C82.1147 46.4123 82.1517 46.4492 82.1517 46.56V46.7077H80.1526V46.56ZM86.7425 46.56C86.7425 46.4861 86.7795 46.4492 86.8906 46.4492C86.9646 46.4492 87.0757 46.3754 87.1497 46.3015C87.2608 46.1538 87.2608 46.1169 87.2608 44.4923C87.2608 43.3477 87.2238 42.7938 87.1867 42.72C87.1127 42.5723 86.9646 42.4615 86.8165 42.4615C86.7425 42.4615 86.7054 42.4246 86.7054 42.3138V42.1661H90.2225V43.2738H90.0744C89.9634 43.2738 89.8893 43.2 89.8523 43.0892C89.7412 42.7938 89.5561 42.6831 88.8527 42.6831L88.2234 42.6461V44.16H88.5936C89.1119 44.16 89.334 44.0861 89.4451 43.8646C89.5191 43.7538 89.5561 43.68 89.6672 43.68H89.8153V45.0461H89.6672C89.5191 45.0461 89.5191 45.0092 89.5191 44.9354C89.5191 44.7138 89.334 44.6031 88.7417 44.6031L88.2234 44.5661V45.3046C88.2234 46.1908 88.2234 46.2277 88.8897 46.2277C89.5561 46.2277 89.8893 46.08 90.0744 45.7108C90.1485 45.5261 90.3706 45.4892 90.4447 45.6369C90.4817 45.7477 90.3336 46.3384 90.1855 46.56L90.1115 46.7077H88.4085H86.7054L86.7425 46.56ZM7.88568 41.6861L7.73759 41.5754L8.07079 41.0954C8.2559 40.8369 8.44101 40.6154 8.51505 40.6154C8.70016 40.6154 9.32954 40.7261 9.32954 40.7631C9.29251 40.8369 8.14483 41.76 8.07079 41.76C8.07079 41.7969 7.95972 41.76 7.88568 41.6861C7.88568 41.7231 7.88568 41.6861 7.88568 41.6861ZM0.407242 38.0308H90.0744V38.5108H0.407242V38.0308ZM34.5415 36.96C34.0602 36.8123 33.8011 36.4061 33.8751 36C33.9491 35.7046 34.0972 35.52 34.4304 35.3723L34.7266 35.2615L34.5415 35.1877C34.4304 35.1508 34.3564 35.04 34.3564 35.0031C34.3564 34.8923 34.8007 34.5231 34.9117 34.5231C34.9487 34.5231 34.9117 34.4492 34.8377 34.3385C34.5415 33.8954 34.7636 33.2308 35.356 32.9354C35.6522 32.7877 35.7632 32.7877 36.8369 32.8615C37.4662 32.8985 37.4662 32.8985 37.4292 33.0092C37.4292 33.0831 37.3922 33.1569 37.3922 33.1569C37.3922 33.1938 37.2811 33.1938 37.1701 33.1938H36.9479L36.9849 33.4892C37.059 34.1538 36.5037 34.6338 35.6522 34.6338C35.2079 34.6338 34.9858 34.7077 35.1709 34.8185C35.2079 34.8554 35.5041 34.9292 35.8002 35.04C36.7628 35.3354 36.9479 35.4831 36.9109 35.9261C36.8739 36.4061 36.4296 36.8123 35.8373 36.9969C35.467 37.0708 34.8377 37.0708 34.5415 36.96ZM35.8373 36.6277C36.3186 36.4061 36.5037 36 36.2445 35.7785C36.0594 35.6308 35.319 35.4092 35.0968 35.4461C34.6896 35.52 34.3194 35.9631 34.3934 36.2954C34.5045 36.7385 35.2079 36.9231 35.8373 36.6277ZM35.9854 34.2277C36.3556 34.0431 36.4666 33.4892 36.2445 33.1938C35.9113 32.8246 35.2819 33.2308 35.2819 33.8584C35.2819 34.0431 35.319 34.1169 35.43 34.2277C35.6522 34.3754 35.7632 34.3754 35.9854 34.2277C36.0224 34.2277 35.9854 34.2277 35.9854 34.2277ZM38.2437 35.4461C37.9845 35.4092 37.8364 35.2615 37.8364 34.9661C37.7624 34.2646 38.4288 33.2308 39.1692 32.8985C39.5395 32.7138 40.3169 32.7138 40.7982 32.8615C40.8352 32.8615 40.7982 33.0461 40.6871 33.4154C40.465 34.1538 40.3169 34.8554 40.391 35.0031C40.428 35.0769 40.465 35.0769 40.6501 35.04C40.7982 35.0031 40.8352 35.0031 40.8723 35.04C40.9463 35.1508 40.9093 35.1877 40.5761 35.2985C40.1318 35.4461 39.9097 35.4092 39.8356 35.1877L39.7986 35.04L39.5765 35.1508C39.1322 35.4092 38.5769 35.52 38.2437 35.4461ZM39.2433 35.0031C39.4284 34.9292 39.5765 34.8185 39.6505 34.7446C39.7246 34.6338 39.9837 33.8585 40.0578 33.3785C40.0948 33.1938 40.0948 33.1938 39.8727 33.12C39.4654 33.0092 39.0952 33.2677 38.762 33.8584C38.4288 34.4492 38.3548 34.9661 38.5769 35.1138C38.725 35.1877 38.799 35.1877 39.2433 35.0031ZM67.1208 35.4461C66.8617 35.3723 66.7506 35.2985 66.6766 35.0769C66.5655 34.7077 66.8247 34.0061 67.2689 33.4892C67.7872 32.8615 68.3426 32.6769 69.1941 32.7877C69.4162 32.8246 69.6013 32.8615 69.6383 32.8985C69.6753 32.9354 69.6013 33.2677 69.4902 33.6369C69.3792 34.0431 69.2681 34.5231 69.2681 34.7077V35.04H69.5273C69.7494 35.04 69.7864 35.04 69.7864 35.1508C69.7864 35.2615 69.7494 35.2985 69.4532 35.3723C68.9719 35.52 68.7868 35.4831 68.7498 35.2985C68.7498 35.2246 68.7128 35.1508 68.7128 35.1508C68.7128 35.1508 68.5647 35.2246 68.3796 35.2615C68.0834 35.3723 67.5281 35.52 67.417 35.52C67.343 35.4831 67.2319 35.4831 67.1208 35.4461ZM68.1204 35.0031C68.2685 34.9292 68.4166 34.8554 68.4906 34.7815C68.6387 34.6338 68.8609 33.9692 68.9719 33.3415C69.0089 33.1938 69.0089 33.1569 68.7868 33.12C68.6017 33.0831 68.5277 33.0831 68.3426 33.1569C67.9723 33.3046 67.6021 33.8585 67.417 34.5231C67.1949 35.1508 67.417 35.2985 68.1204 35.0031ZM4.25753 35.3354C4.25753 35.2615 4.33157 34.7815 4.47966 34.2277C4.77583 33.1569 4.77583 33.0831 4.44264 33.1569C4.29455 33.1938 4.25753 33.1938 4.25753 33.0831C4.25753 32.9723 4.29455 32.9354 4.59072 32.8615C4.77583 32.8246 5.03499 32.7508 5.14605 32.7508C5.33116 32.7508 5.36819 32.7508 5.36819 32.8985C5.36819 33.0092 5.29414 33.4892 5.14605 33.9692C4.99797 34.4492 4.92392 34.8923 4.92392 34.9661C4.96094 35.04 4.99797 35.04 5.2201 35.0031C5.47925 34.9661 5.47925 34.9661 5.47925 35.0769C5.47925 35.1877 5.40521 35.2246 5.14605 35.2985C4.96094 35.3354 4.70179 35.3723 4.5537 35.3723C4.33157 35.4461 4.29455 35.4092 4.25753 35.3354ZM6.51587 35.3354L6.36778 35.2246L6.81204 33.4154C7.0712 32.4185 7.25631 31.5323 7.25631 31.4585C7.21928 31.3108 7.21928 31.3108 6.99715 31.3477C6.88609 31.3846 6.84906 31.3477 6.84906 31.2369C6.84906 31.0892 7.0712 31.0154 7.62653 30.9415C7.95972 30.9046 7.95972 30.9046 7.95972 31.0523C7.95972 31.1261 7.88568 31.5692 7.73759 32.0123C7.62653 32.4923 7.51546 32.8985 7.51546 32.9354C7.51546 32.9723 7.5895 32.9723 7.77461 32.8985C8.44101 32.64 8.99634 32.64 9.21847 32.9354C9.40358 33.1938 9.32954 33.8954 8.99634 34.4492C8.84825 34.7446 8.36696 35.1877 8.07079 35.2985C7.81164 35.4831 6.738 35.4831 6.51587 35.3354C6.55289 35.3354 6.51587 35.3354 6.51587 35.3354ZM8.03377 35.0031C8.32994 34.8185 8.66314 34.1908 8.73718 33.6C8.84825 33.0461 8.40399 32.9354 7.77461 33.3415C7.62653 33.4154 7.51546 33.5631 7.47844 33.7108C7.36737 33.9692 7.14524 34.8184 7.14524 34.9661C7.10822 35.1877 7.70057 35.2246 8.03377 35.0031ZM10.2551 35.2985C10.107 35.1508 10.07 35.1138 10.07 34.7446C10.07 33.8585 10.6253 33.0461 11.4028 32.8246C11.773 32.7138 12.1432 32.7508 12.3653 32.9354C12.5134 33.0461 12.5134 33.0831 12.5134 33.3046C12.5134 33.8584 11.9581 34.2646 11.1806 34.3015C10.9585 34.3015 10.7364 34.3385 10.7364 34.3754C10.6623 34.4492 10.6993 34.7815 10.7734 34.8923C10.9215 35.1508 11.1436 35.1508 11.6249 34.9292C11.9211 34.7815 11.9951 34.7815 12.0692 34.8554C12.1802 35.0031 12.1062 35.04 11.6619 35.2615C11.2917 35.4092 11.1436 35.4461 10.8104 35.4461C10.4772 35.4461 10.4402 35.4461 10.2551 35.2985ZM11.3287 34.0061C11.847 33.8954 12.1432 33.4154 11.9211 33.1569C11.773 33.0092 11.6249 33.0092 11.4028 33.1569C11.2547 33.2677 10.9585 33.6738 10.8845 33.9323C10.8474 34.0431 10.8845 34.0431 10.9955 34.0431C11.0325 34.08 11.2177 34.0431 11.3287 34.0061ZM13.2909 35.4092C13.2909 35.4092 13.402 35.0031 13.513 34.4861C13.6241 34.0061 13.7351 33.4892 13.7351 33.3415V33.12L13.513 33.1569C13.3279 33.2308 13.3279 33.1938 13.3279 33.12C13.3279 33.0092 13.513 32.8985 13.9943 32.8246C14.3275 32.7508 14.4386 32.7877 14.4386 33.0092V33.12L14.6607 33.0092C15.0309 32.7877 15.2531 32.7508 15.5122 32.8615C15.6603 32.8985 15.7343 32.9723 15.7343 33.0092C15.5862 33.5261 15.4752 33.6738 15.3641 33.6738C15.2531 33.6738 15.216 33.6369 15.216 33.4892C15.216 33.12 14.8458 33.12 14.5867 33.4892C14.4386 33.7477 14.2535 34.2646 14.1054 35.0031C14.0683 35.2246 13.9943 35.4092 13.9573 35.4092C13.8462 35.4092 13.3279 35.4461 13.2909 35.4092C13.3279 35.4461 13.2909 35.4092 13.2909 35.4092ZM16.2526 35.3723C16.1786 35.2985 16.2156 35.1138 16.5488 33.7477L16.6969 33.1938H16.5118C16.4007 33.1938 16.3267 33.1938 16.3267 33.1569C16.3267 33.0831 16.4748 32.9354 16.5488 32.9354C16.6969 32.9354 16.9561 32.6769 17.1041 32.4554C17.2152 32.1969 17.2893 32.16 17.4744 32.16C17.5854 32.16 17.6225 32.1969 17.5854 32.3446C17.5484 32.4554 17.5484 32.6031 17.5114 32.7138L17.4373 32.8615H17.6965C17.9927 32.8615 18.0297 32.8985 17.9186 33.0831C17.8816 33.1569 17.8076 33.1569 17.6225 33.1569C17.2893 33.1569 17.3633 33.0461 17.1041 34.2277C16.919 35.0769 16.919 35.1508 17.2522 35.0769C17.5114 35.0031 17.5484 35.0031 17.5114 35.1508C17.5114 35.2246 17.4373 35.2985 17.2152 35.3723C16.808 35.4831 16.3637 35.4831 16.2526 35.3723C16.2897 35.3723 16.2526 35.3723 16.2526 35.3723ZM18.6591 35.2985C18.2148 34.8923 18.548 33.7108 19.2144 33.12C19.5106 32.8985 19.9178 32.7138 20.214 32.7138C20.3991 32.7138 20.8063 32.8985 20.8434 32.9723C20.9544 33.12 20.9174 33.5261 20.8063 33.6738C20.5472 34.0431 20.0289 34.2646 19.4365 34.2646H19.1033V34.56C19.1033 35.1138 19.3625 35.1877 20.0289 34.8923C20.251 34.8185 20.4361 34.7446 20.4361 34.7446C20.4361 34.7446 20.4731 34.8185 20.4731 34.8923C20.4731 34.9661 20.3991 35.04 20.0659 35.1877C19.6957 35.3723 19.5846 35.3723 19.2144 35.3723C18.8442 35.4461 18.7701 35.4461 18.6591 35.2985ZM19.6957 34.0061C19.9919 33.9323 20.214 33.7477 20.3251 33.5631C20.3991 33.3785 20.3991 33.3785 20.288 33.2308C20.1399 33.0461 19.9548 33.0461 19.7327 33.2308C19.5476 33.3785 19.2144 33.8954 19.2144 34.0061C19.2144 34.08 19.4365 34.08 19.6957 34.0061ZM41.7978 35.4092C41.7238 35.3354 41.7608 35.04 42.057 33.9323C42.4272 32.4554 42.6493 31.6061 42.6493 31.4585C42.6493 31.3477 42.6123 31.3477 42.4272 31.3846C42.2421 31.4215 42.205 31.4215 42.205 31.2738C42.205 31.1261 42.3531 31.0892 42.9455 30.9785C43.2417 30.9415 43.3527 30.9785 43.3527 31.1261C43.3527 31.2 43.1676 32.0492 42.9085 32.9723C42.6493 33.9323 42.4642 34.7815 42.4642 34.8554V35.04L42.7234 35.0031C42.9825 34.9661 42.9825 34.9661 42.9825 35.0769C42.9825 35.1508 42.9085 35.2246 42.6493 35.2985C42.3161 35.4461 41.8718 35.4831 41.7978 35.4092ZM44.0191 35.3723C43.9451 35.2615 43.9821 35.04 44.2413 34.1538C44.3893 33.7108 44.4634 33.2677 44.4634 33.2308C44.4264 33.1569 44.4264 33.12 44.1672 33.1938C44.0191 33.2308 44.0191 33.2308 44.0191 33.12C44.0191 33.0092 44.2783 32.8985 44.7225 32.7877C45.0557 32.7508 45.2038 32.7508 45.2038 32.8985C45.2038 32.9354 45.0928 33.4154 44.9447 33.9692C44.7966 34.5231 44.6855 35.0031 44.7225 35.04C44.7596 35.0769 44.8706 35.0769 45.0187 35.0769C45.2779 35.04 45.2779 35.04 45.2779 35.1508C45.2779 35.2246 45.2038 35.2985 44.9447 35.3723C44.5004 35.4831 44.0932 35.4831 44.0191 35.3723ZM46.1664 35.3723C46.1294 35.3354 46.1664 35.1508 46.2034 35.0031C46.3515 34.4861 46.6107 33.2308 46.6107 33.2308C46.6107 33.2308 46.5366 33.1938 46.4255 33.1938C46.1664 33.1938 46.2034 33.0461 46.5366 32.8985C46.7217 32.8246 46.8328 32.7138 46.9809 32.4554C47.166 32.16 47.203 32.1231 47.3511 32.1231H47.4992L47.4251 32.4554C47.3881 32.64 47.3511 32.7877 47.3511 32.8246C47.3511 32.8615 47.4992 32.8615 47.6473 32.8615C47.9434 32.8615 47.9805 32.8615 47.9064 33.0461C47.8694 33.1569 47.8324 33.1569 47.5732 33.1569H47.2771L47.0919 34.0431C46.9809 34.5231 46.9068 34.9661 46.9439 35.04C46.9809 35.1138 47.0179 35.1138 47.166 35.0769C47.4251 35.0031 47.4622 35.0031 47.4622 35.1508C47.4622 35.2615 47.4251 35.2985 47.129 35.3723C46.6107 35.4831 46.2404 35.4831 46.1664 35.3723ZM48.6098 35.3354C48.4618 35.2246 48.4247 35.1508 48.4247 34.8554C48.3877 34.1908 48.7209 33.4523 49.2392 33.0831C49.7945 32.7138 50.4239 32.64 50.7571 32.9723C50.9052 33.12 50.9422 33.1569 50.9052 33.3785C50.8682 33.8954 50.2758 34.3015 49.5354 34.3015C49.0541 34.3385 49.0171 34.3754 49.0911 34.7446C49.2022 35.1508 49.3873 35.1877 49.9797 34.9292C50.3869 34.7815 50.4609 34.7815 50.4609 34.9292C50.4609 35.1138 49.7575 35.3723 49.2392 35.4092C48.832 35.4831 48.7579 35.4461 48.6098 35.3354ZM49.8686 33.9323C50.2388 33.7477 50.3869 33.3785 50.2018 33.1938C49.9426 32.9354 49.4613 33.2677 49.2022 33.8954L49.1282 34.1169L49.3873 34.08C49.5354 34.0431 49.6835 33.9692 49.8686 33.9323ZM63.9369 35.4461C63.9369 35.4461 64.048 35.04 64.1591 34.5231C64.3072 34.0431 64.3812 33.5261 64.3812 33.3785V33.1569L64.1591 33.1938C63.9369 33.2308 63.9369 33.2308 63.9369 33.12C63.9369 33.0092 64.048 32.9354 64.5293 32.8246C64.9365 32.7138 65.0846 32.7508 65.0846 32.9723V33.0831L65.3067 32.9723C65.677 32.7508 65.8991 32.7138 66.1583 32.8246C66.3063 32.8615 66.3804 32.9354 66.3804 32.9354C66.3804 32.9723 66.3434 33.12 66.2323 33.3046C66.1212 33.5631 66.0842 33.6369 65.9731 33.6369C65.8621 33.6369 65.8251 33.6 65.8251 33.4523C65.8251 33.0831 65.4919 33.0461 65.2327 33.4154C65.0476 33.6738 64.9365 33.9692 64.7884 34.7077C64.7144 35.04 64.6404 35.3354 64.6404 35.3354C64.5663 35.4092 63.9369 35.4831 63.9369 35.4461ZM70.712 35.3723C70.6749 35.2615 70.712 34.9292 70.9341 34.0061L71.1192 33.1938H70.9711C70.786 33.1569 70.749 33.0092 70.9341 32.9354C71.1562 32.8615 71.3784 32.6769 71.4894 32.4185C71.6375 32.16 71.6745 32.1231 71.8596 32.1231C72.0077 32.1231 72.0077 32.16 71.9707 32.3077C71.9337 32.4185 71.9337 32.5661 71.8967 32.6769L71.8596 32.8615H72.1188C72.415 32.8615 72.452 32.8985 72.3409 33.0831C72.3039 33.1569 72.2299 33.1569 72.0448 33.1569C71.7116 33.1569 71.7856 33.0461 71.5264 34.2277C71.3413 35.0769 71.3413 35.1508 71.6745 35.0769C71.9337 35.0031 71.9707 35.0031 71.9337 35.1508C71.9337 35.2246 71.8596 35.2985 71.6375 35.3723C71.2303 35.4831 70.786 35.4831 70.712 35.3723ZM73.0814 35.3354C72.6371 34.9292 72.9333 33.7477 73.6367 33.1569C73.9329 32.9354 74.3401 32.7508 74.6363 32.7508C74.8214 32.7508 75.2286 32.9354 75.2657 33.0092C75.3767 33.1569 75.3397 33.5631 75.2286 33.7477C74.9695 34.1169 74.4512 34.3385 73.8588 34.3385H73.5256L73.5627 34.6708C73.5997 35.1877 73.8218 35.2615 74.4512 34.9661C74.6733 34.8923 74.8584 34.8185 74.8584 34.8185C74.8584 34.8185 74.8954 34.8923 74.8954 34.9661C74.9325 35.04 74.8214 35.1138 74.4882 35.2615C74.118 35.4461 74.0069 35.4461 73.6737 35.4461C73.3405 35.4831 73.2665 35.4461 73.0814 35.3354C73.1184 35.3354 73.0814 35.3354 73.0814 35.3354ZM74.3401 33.9323C74.7474 33.7477 74.9325 33.3415 74.6733 33.1569C74.4882 33.0461 74.3771 33.0461 74.155 33.2308C73.9699 33.3785 73.6367 33.8954 73.6367 34.0431C73.6367 34.1169 74.0439 34.08 74.3401 33.9323ZM76.1172 35.4092C76.1172 35.3723 76.2282 34.9661 76.3393 34.4492C76.4874 33.9323 76.5614 33.4523 76.5614 33.3785C76.5614 33.2308 76.5244 33.2308 76.3393 33.2308C76.1912 33.2308 76.1172 33.2308 76.0801 33.1569C76.0431 33.0831 76.1172 33.0461 76.3393 32.9723C76.5244 32.8985 76.6725 32.8615 76.8576 32.8246C77.0797 32.7877 77.0797 32.7877 77.2278 33.0831C77.2278 33.0831 77.3759 33.0092 77.561 32.9354C77.9683 32.7508 78.0423 32.7508 78.3015 32.8985L78.4866 33.0092L78.3755 33.3415C78.2644 33.6369 78.2274 33.6738 78.1163 33.6738C78.0053 33.6738 77.9683 33.6369 77.9683 33.4892C77.9683 33.0092 77.487 33.12 77.2278 33.6369C77.1538 33.7477 77.0427 34.1908 76.9316 34.6338C76.8206 35.04 76.7465 35.4092 76.7465 35.4092C76.7095 35.4092 76.1542 35.4461 76.1172 35.4092ZM79.0789 35.4092C79.0789 35.3723 79.19 35.04 79.3011 34.6338C79.4121 34.1908 79.5232 33.7477 79.5232 33.5261V33.1569L79.3011 33.1938C79.153 33.1938 79.0789 33.1938 79.0789 33.12C79.0419 33.0461 79.1159 33.0092 79.3381 32.9354C79.8564 32.7877 80.0045 32.7877 80.1155 32.8615C80.1896 32.9354 80.1896 33.0092 80.2266 33.0831C80.2266 33.1569 80.2266 33.1938 80.2636 33.1938C80.2636 33.1938 80.4487 33.12 80.6709 33.0461C81.1522 32.8615 81.7815 32.7508 81.9666 32.8246C82.0777 32.8985 82.1147 32.8985 82.0777 33.1569C82.0407 33.3046 81.9666 33.7108 81.8556 34.08C81.7445 34.4492 81.6705 34.8185 81.6705 34.8923C81.6705 35.0769 81.6705 35.0769 81.8926 35.0769C82.0777 35.0769 82.1517 35.1138 82.1888 35.1508C82.2258 35.2615 82.1888 35.2985 81.8186 35.4092C81.4113 35.52 81.0041 35.52 80.967 35.4092C80.93 35.3723 81.0411 34.8923 81.1522 34.3754C81.4113 33.3415 81.4113 33.2308 81.3002 33.1569C81.1522 33.12 80.7079 33.3046 80.4487 33.5261C80.2266 33.7108 80.1896 33.7477 80.0415 34.3015C79.9675 34.5969 79.8934 34.9661 79.8564 35.1138C79.8194 35.2615 79.7823 35.3723 79.7453 35.3723C79.4862 35.4092 79.0419 35.4461 79.0789 35.4092ZM83.1143 35.3723C83.0773 35.3354 83.1884 34.8554 83.3364 34.2646C83.4845 33.7108 83.5956 33.2308 83.5586 33.1938C83.5216 33.1569 83.4845 33.12 83.3364 33.1569C83.2624 33.1938 83.1884 33.1938 83.1143 33.1938C83.1143 33.1938 83.1143 33.1569 83.1143 33.0831C83.1143 32.9723 83.1513 32.9354 83.4105 32.8985C84.1139 32.7138 84.336 32.7508 84.262 33.0092C84.262 33.0831 84.1139 33.5261 84.0028 34.0431C83.8548 34.5231 83.7807 34.9661 83.7807 35.0031C83.8177 35.0769 83.8918 35.0769 84.0769 35.04C84.336 35.0031 84.336 35.0031 84.336 35.1138C84.336 35.4092 83.1884 35.5938 83.1143 35.3723ZM85.3356 35.3723C85.2986 35.2985 85.3356 35.04 85.5578 34.1169C85.8169 33.0831 85.8169 33.1938 85.5948 33.1938C85.3356 33.1938 85.3727 33.0461 85.6688 32.8985C85.8539 32.8246 85.965 32.7138 86.0761 32.4554C86.2242 32.1969 86.2982 32.1231 86.4093 32.1231C86.5944 32.0861 86.5944 32.1231 86.4463 32.6769L86.4093 32.8615H86.7054C86.9646 32.8615 87.0016 32.8615 86.9646 32.9354C86.9276 32.9723 86.9276 33.0461 86.9276 33.0831C86.9276 33.1569 86.8535 33.1569 86.6314 33.1569H86.3352L86.1501 34.0431C86.0391 34.5231 85.965 34.9661 86.002 35.04C86.0391 35.1138 86.0761 35.1138 86.2242 35.0769C86.4833 35.0031 86.5203 35.0031 86.5203 35.1508C86.5203 35.2615 86.4833 35.2985 86.1871 35.3723C85.7799 35.52 85.4097 35.52 85.3356 35.3723C85.3727 35.4092 85.3356 35.3723 85.3356 35.3723ZM87.7421 35.3354C87.594 35.1877 87.557 35.1877 87.557 34.6708C87.557 34.1908 87.557 34.1169 87.7791 33.7477C88.0382 33.2677 88.3344 33.0092 88.8157 32.8615C89.6672 32.5661 90.2596 33.0461 89.8893 33.7108C89.6672 34.08 89.1119 34.3385 88.5565 34.3385C88.2234 34.3385 88.1863 34.3385 88.1493 34.4861C88.1123 34.6708 88.1493 34.9292 88.2974 35.04C88.4455 35.1877 88.6676 35.1508 89.0749 34.9661C89.371 34.8184 89.4451 34.8185 89.4821 34.8923C89.5932 35.04 89.5191 35.1138 89.1489 35.2615C88.8527 35.4092 88.6676 35.4461 88.3344 35.4461C88.0012 35.4831 87.9272 35.4831 87.7421 35.3354C87.7791 35.3354 87.7421 35.3354 87.7421 35.3354ZM89.0378 33.8954C89.4451 33.7108 89.5561 33.3046 89.297 33.12C89.1859 33.0461 89.1119 33.0461 89.0008 33.0831C88.7787 33.1569 88.4825 33.4892 88.3714 33.8215L88.2604 34.08L88.5195 34.0431C88.7046 34.0431 88.9268 33.9692 89.0378 33.8954ZM0 35.2985C0 35.2615 0.0740439 35.1877 0.148088 35.1877C0.333198 35.1508 0.481286 35.0031 0.592351 34.7815C0.740439 34.4492 1.22172 32.2708 1.25875 31.7908C1.25875 31.3846 1.25875 31.3846 1.07364 31.2738C0.703417 31.0523 0.814483 31.0154 1.81408 31.0154C2.62856 31.0154 2.73963 31.0154 2.73963 31.0892C2.73963 31.1261 2.66558 31.2 2.55452 31.2C2.1843 31.2738 2.03621 31.6061 1.66599 33.2308C1.33279 34.7815 1.33279 34.7446 1.48088 34.8554C1.59194 34.9661 1.66599 34.9661 2.11025 34.9292C2.73963 34.8923 2.96176 34.8185 3.18389 34.4861C3.369 34.3385 3.40602 34.3385 3.51709 34.3754C3.59113 34.4123 3.59113 34.4492 3.51709 34.6708C3.44304 34.8185 3.369 35.0031 3.29496 35.1508L3.14687 35.3723H1.55492C0.0740439 35.4092 0 35.4092 0 35.2985ZM29.7657 35.3354C29.7657 35.2984 29.8767 35.2246 29.9878 35.1508C30.1359 35.0769 30.2469 34.9661 30.321 34.8185C30.5061 34.5231 30.9874 32.2338 31.0244 31.7908C31.0244 31.4215 31.0244 31.4215 30.8393 31.3108C30.4321 31.0892 30.5431 31.0523 32.3202 31.0523C33.9491 31.0523 33.9862 31.0523 33.9491 31.1631C33.9121 31.2 33.8751 31.4215 33.8381 31.6431C33.764 31.9385 33.764 32.0123 33.653 32.0123C33.5419 32.0123 33.5419 32.0123 33.5419 31.9015C33.5419 31.5323 33.3198 31.4585 32.4683 31.4585H31.9129L31.7648 32.1231C31.6908 32.3815 31.6538 32.64 31.5797 32.8985C31.5427 32.9723 31.6168 32.9723 32.061 32.9723C32.6534 32.9723 32.8385 32.8985 32.9866 32.6769C33.1347 32.4554 33.3568 32.4554 33.2827 32.64L33.1717 33.2308C33.0976 33.6 33.0606 33.7108 32.9866 33.7108C32.9125 33.7108 32.8755 33.6369 32.8385 33.5631C32.8015 33.4892 32.7274 33.3785 32.6534 33.3415C32.5053 33.2677 31.5797 33.2308 31.5057 33.3046C31.4687 33.3415 31.2836 34.1169 31.2095 34.56C31.1725 34.7815 31.1725 34.8185 31.3206 34.8923C31.4317 34.9661 31.5797 34.9661 31.987 34.9661C32.6164 34.9292 32.8015 34.8554 33.0606 34.5231C33.1717 34.3754 33.2827 34.3015 33.3198 34.3385C33.4308 34.3754 33.4308 34.4861 33.2457 34.8554C32.9866 35.4092 33.1347 35.3723 31.3206 35.3723C30.0618 35.3723 29.8027 35.3723 29.7657 35.3354C29.8027 35.2984 29.7657 35.3354 29.7657 35.3354ZM59.6794 35.3354C59.6794 35.2984 59.7535 35.2246 59.8645 35.1877C60.2347 35.0769 60.3458 34.7815 60.716 33.0461C61.0492 31.5692 61.0122 31.3477 60.642 31.2369C60.5679 31.2 60.5309 31.1631 60.5309 31.1261C60.5679 31.0892 61.0122 31.0523 62.1969 31.0523C63.7888 31.0523 63.8259 31.0523 63.7889 31.1261C63.7518 31.2 63.7148 31.3846 63.6778 31.6061C63.6037 31.9015 63.6037 31.9754 63.4927 31.9754C63.3816 31.9754 63.3446 31.9754 63.3446 31.8277C63.3446 31.4954 63.0484 31.3846 62.271 31.4215H61.7897L61.6416 32.1231C61.5675 32.4923 61.4935 32.8246 61.4935 32.8615C61.4935 32.9723 62.382 32.9354 62.6041 32.8615C62.6782 32.8246 62.7893 32.7138 62.8263 32.6031C62.8633 32.4923 62.9373 32.4554 63.0114 32.4554C63.1595 32.4554 63.1595 32.4185 63.0114 33.12C62.9003 33.6369 62.8633 33.7108 62.7893 33.7108C62.7152 33.7108 62.6782 33.6738 62.6782 33.6C62.6782 33.3415 62.1229 33.1569 61.6046 33.2308L61.3824 33.2677L61.2714 33.8584C61.0492 34.8923 61.0862 35.0031 61.3824 35.1138C61.7526 35.2615 61.5305 35.2985 60.605 35.2985C59.8645 35.3723 59.7164 35.3354 59.6794 35.3354ZM25.1379 34.1908C24.8788 34.08 24.6566 33.7477 24.6566 33.4892C24.6566 33.0831 25.0639 32.6769 25.5452 32.6769C26.1005 32.6769 26.4337 32.9723 26.4337 33.4523C26.4337 34.08 25.8043 34.4492 25.1379 34.1908C25.1749 34.1908 25.1379 34.1908 25.1379 34.1908ZM55.1257 34.1908C55.0146 34.1538 54.8666 34.0431 54.7925 33.9323C54.6444 33.7846 54.6444 33.6738 54.6444 33.4523C54.6444 32.9723 54.9776 32.6769 55.533 32.6769C55.7921 32.6769 55.9032 32.7138 56.0883 32.8246C56.4955 33.12 56.5696 33.6 56.2364 33.9692C55.9032 34.2646 55.4959 34.3385 55.1257 34.1908ZM19.9178 32.3077C19.8068 32.1969 19.8068 32.1969 20.4731 31.5323L20.6953 31.3108L21.0285 31.3846C21.2136 31.4215 21.3617 31.4585 21.3617 31.4954C21.3617 31.5323 20.1029 32.4554 20.0659 32.4554C20.0289 32.4185 19.9919 32.3815 19.9178 32.3077ZM49.8686 32.3077L49.7205 32.1969L50.1648 31.7538C50.4239 31.4954 50.6461 31.3108 50.6461 31.3108C50.7941 31.3108 51.3124 31.4585 51.2754 31.4585C51.2754 31.4954 50.1648 32.2708 50.0167 32.3815C50.0167 32.4185 49.9426 32.3815 49.8686 32.3077ZM89.0008 32.3077L88.8527 32.1969L89.297 31.7538C89.5561 31.4954 89.7783 31.3108 89.8153 31.3108C89.9264 31.3108 90.4817 31.4215 90.4447 31.4585C90.4447 31.4954 89.334 32.3077 89.1859 32.3815C89.1859 32.4185 89.0749 32.3815 89.0008 32.3077ZM4.99797 32.0492C4.77583 31.8277 4.99797 31.4215 5.36819 31.4215C5.62734 31.4215 5.73841 31.5323 5.73841 31.7538C5.73841 32.1231 5.25712 32.3077 4.99797 32.0492ZM44.7225 32.0861C44.5745 31.9754 44.5745 31.6431 44.7225 31.5323C44.9817 31.3108 45.426 31.4585 45.426 31.7538C45.426 32.0492 44.9817 32.2708 44.7225 32.0861ZM83.8177 32.0492C83.5586 31.8277 83.8177 31.4215 84.188 31.4215C84.5582 31.4215 84.7063 31.7908 84.4471 32.0492C84.262 32.1969 83.9658 32.1969 83.8177 32.0492ZM32.2461 30.5354C32.1721 30.4615 32.1721 30.4246 32.6164 29.9815L33.0606 29.5385L33.3938 29.6123C33.5789 29.6492 33.727 29.6861 33.727 29.7231C33.727 29.76 32.5423 30.6092 32.4312 30.6092C32.3572 30.6461 32.2832 30.6092 32.2461 30.5354Z" fill="black"/>
<path d="M51.7939 27.5446L51.942 27.2123C52.1642 26.6215 52.4233 26.1785 52.7565 25.6985C53.1267 25.1815 53.9412 24.4431 54.2744 24.2954C54.6817 24.1108 55.2 24.0369 55.8293 24.1108C56.3847 24.1477 58.0507 24.4062 58.7541 24.5538C59.2724 24.6646 60.0128 24.6646 60.383 24.5908C61.0865 24.4062 61.4937 24.0738 61.6788 23.4831C61.8269 23.04 61.8269 22.6338 61.6788 22.3754C61.4937 22.0062 61.4937 21.9323 62.012 21.4892C62.2712 21.2677 62.4563 21.0831 62.4563 21.0462C62.4563 20.8985 62.1231 20.3446 62.049 20.3446C62.012 20.3446 61.9009 20.3077 61.8269 20.2338L61.6788 20.1231L61.975 19.9754C62.3822 19.7908 62.6784 19.4954 62.6784 19.3108C62.6784 19.2369 62.6044 19.0154 62.4933 18.8308C62.3082 18.4985 62.2341 18.1662 62.3452 17.9815C62.4193 17.8708 62.5303 17.7969 63.1597 17.6492C63.678 17.5015 63.8631 17.3908 63.9372 17.0585C64.0112 16.8 63.9742 16.6523 63.7891 16.32C63.641 16.0615 62.7525 14.8062 62.4933 14.5108C62.1231 14.1046 61.7158 13.4031 61.5677 12.9969C61.4567 12.6277 61.4197 12.5908 61.5307 12.1108C61.7158 11.0769 61.6048 10.2277 61.0494 8.56616C60.6422 7.34769 60.5311 7.01539 60.383 6.79385C60.1609 6.38769 60.1609 6.27692 60.6422 5.94462C60.8643 5.76 61.0865 5.61231 61.1235 5.53846C61.2716 5.28 61.0865 4.83692 60.8273 4.68923C60.6422 4.61539 60.5682 4.65231 60.383 4.94769C60.235 5.16923 60.1979 5.20615 60.0498 5.20615C59.8277 5.20615 59.7907 5.13231 59.9388 4.94769C60.1239 4.72615 60.0869 4.68923 59.8277 4.65231C59.6056 4.61539 59.5315 4.54154 59.0873 4.13539C58.4949 3.58154 58.0877 3.36 57.3102 3.02769C56.94 2.88 56.8289 2.80615 56.94 2.84308C57.0511 2.84308 57.4583 2.88 57.8285 2.91692C58.9022 2.95385 59.1983 2.84308 59.4575 2.14154C59.6426 1.66154 59.7166 1.44 59.3094 1.10769L57.8656 0H90.5189V27.5446H51.7939Z" fill="#707070"/>
<path d="M23.9532 27.5446C23.7311 27.5077 23.5089 27.5077 23.5089 27.5077C23.4719 27.4708 23.7681 27.3231 24.9898 26.6585C25.3971 26.4369 25.5452 26.3262 25.5081 26.2892C25.4711 26.2523 25.1379 26.2523 24.7307 26.2154C24.1753 26.1785 24.0273 26.1785 23.8421 26.2523C23.7311 26.2892 23.2868 26.4 22.8426 26.5108C21.7689 26.7692 21.4357 26.9169 21.0655 27.36L20.9544 27.5077H0V0H41.5757L40.7612 0.48C40.3169 0.664615 39.7986 0.96 39.6135 1.10769C38.9841 1.58769 38.1326 2.65846 37.9105 3.24923C37.8365 3.47077 37.7624 3.54462 37.5033 3.69231C37.133 3.91385 36.6888 4.35692 36.3186 4.83692C35.8373 5.50154 34.8747 6.97846 34.6896 7.42154C34.3934 8.04923 34.4304 8.56615 34.8377 10.4862C35.0228 11.3354 35.2079 12.1846 35.2819 12.4062C35.356 12.6277 35.393 12.96 35.43 13.1815C35.467 13.5877 35.5041 13.6615 35.7632 14.1415C35.8373 14.2892 35.8743 14.4369 35.8743 14.4738C35.8743 14.5108 35.9113 14.5846 35.9854 14.6215C36.0594 14.6585 36.0964 14.7323 36.0964 14.8062C36.0964 14.88 36.2445 15.0646 36.5407 15.36C37.2071 16.0246 37.6884 16.6523 37.6884 16.8369C37.6884 16.9846 37.4292 17.0585 36.9849 16.9477C36.5037 16.8369 36.0594 16.6154 35.467 16.0615C35.2079 15.84 34.9858 15.6554 34.9858 15.7292C34.9858 15.8031 35.1709 15.9877 35.393 16.2092C35.8373 16.6523 35.9113 16.7631 35.8002 16.9477C35.7262 17.0954 35.5041 17.1323 35.2449 17.0585C34.9117 16.9846 34.7266 17.0954 34.8007 17.3169C34.8377 17.4646 34.8377 17.4646 34.7266 17.4646C34.5415 17.3908 34.1343 17.3169 33.8011 17.28C33.4679 17.2431 33.4308 17.2431 33.2457 16.9846C33.0976 16.8 32.9866 16.7262 32.8385 16.6892C32.2461 16.5415 30.8023 16.32 29.8397 16.2092C28.1367 16.0246 27.6924 16.0246 26.8779 16.1354C26.2486 16.2092 26.0635 16.2462 25.7303 16.3938C25.1009 16.6892 24.0643 17.5385 24.0643 17.7969C24.0643 17.9077 24.2864 17.8708 24.5456 17.7231C25.36 17.28 28.1367 16.6523 29.5065 16.5785C30.1729 16.5415 30.1359 16.5785 29.3214 16.7262C29.0993 16.7631 28.581 16.8738 28.1367 16.9846C27.7295 17.0954 26.989 17.28 26.5077 17.3908C26.0264 17.5015 25.5081 17.6123 25.323 17.6862L24.9898 17.7969H25.4711C28.0256 17.8338 30.9133 18.5354 32.098 19.4585C32.6164 19.8646 32.8015 19.9015 33.5419 19.8277C34.5785 19.7169 35.9113 19.2738 36.4666 18.8677C36.7258 18.6831 36.9109 18.6092 36.9109 18.72C36.9109 18.9046 36.5777 19.8277 36.4296 20.0492C36.2815 20.3077 36.2445 20.3446 36.3556 20.4185C36.3926 20.4554 36.4296 20.4923 36.4296 20.4923C36.3926 20.5292 36.4666 20.5292 36.5037 20.5662C36.6888 20.64 36.6517 20.6769 36.3556 20.7508C36.1705 20.6769 35.9113 20.7877 35.9113 20.8615C35.9113 20.8985 35.9483 20.8985 35.9854 20.8985C36.1334 20.8985 36.0224 21.0092 35.8373 21.0462C35.6892 21.0831 35.6892 21.0831 35.7262 21.12C35.8002 21.1569 35.8002 21.1569 35.7262 21.1569C35.6892 21.1569 35.6522 21.1938 35.6522 21.2677C35.6522 21.3415 35.5781 21.4154 35.467 21.4523C35.1709 21.5631 35.2449 21.6369 35.6522 21.6C35.8743 21.5631 35.9854 21.5631 35.9483 21.6C35.9113 21.6 35.5781 21.7477 35.2079 21.8954C34.8377 22.0431 34.3934 22.2277 34.1713 22.3015C33.9491 22.3754 33.764 22.4492 33.764 22.5231C33.727 22.5969 33.8381 22.5969 34.1343 22.5231C34.1713 22.4862 34.2453 22.5231 34.2453 22.5231C34.2453 22.56 33.6159 22.8554 32.8755 23.2246C32.1351 23.5938 31.4317 23.9631 31.3206 24.0738C31.2095 24.1846 31.0614 24.2585 31.0244 24.2585C30.9504 24.2585 30.8763 24.3323 30.8393 24.4062C30.7282 24.6277 30.7282 24.6646 31.0244 24.6277C31.4317 24.5538 31.6168 24.5538 31.6538 24.6277C31.6538 24.6646 31.6168 24.7015 31.5797 24.7015C31.5057 24.7015 31.4317 24.7385 31.3946 24.7754C31.3576 24.8123 31.2465 24.8492 31.1725 24.8492C31.0614 24.8492 30.9874 24.9231 30.8763 25.0338C30.8023 25.1077 30.6912 25.2185 30.6542 25.2185C30.6172 25.2185 30.6912 25.2554 30.8763 25.2185C33.5419 25.0338 34.0232 24.96 35.0968 24.48C36.0224 24.0739 36.9479 23.4462 37.6143 22.8185C37.7994 22.6338 37.9845 22.4862 38.0216 22.4862C38.0956 22.4862 38.0586 22.7815 37.9105 23.04C37.6884 23.4831 37.1701 23.9262 36.1705 24.5169C35.6522 24.8123 35.0968 25.1077 34.9487 25.1446C34.4304 25.2923 33.6159 25.44 32.7644 25.5508C29.9878 25.92 28.9142 26.1785 27.8405 26.8062C27.6554 26.9169 27.4703 26.9908 27.4333 26.9908C27.3963 26.9908 27.2482 27.0646 27.1371 27.1385C26.8409 27.3969 27.0631 27.3231 27.6924 27.0277C28.3588 26.7323 28.692 26.6585 28.1367 26.9538C27.4703 27.3231 26.989 27.5446 26.5077 27.5446H23.9162H23.9532ZM20.5102 24.48C20.6212 24.4431 20.9544 24.2585 21.2876 24.0738C21.6208 23.8892 21.991 23.7046 22.1391 23.6308L23.0647 23.2615C23.8051 22.9662 24.9158 22.6708 24.9528 22.7815C24.9898 22.8185 25.1379 22.8554 25.323 22.8554C25.5822 22.8554 25.6192 22.8923 25.5081 22.9292C25.4341 22.9662 25.36 23.0031 25.36 23.0031C25.36 23.1138 25.9154 23.0769 26.1375 22.9662C26.2116 22.9292 26.4337 22.8923 26.5818 22.8554C26.7669 22.8185 26.8779 22.7815 26.8779 22.7446C26.8779 22.6708 26.915 22.6708 27.1001 22.7077C27.3592 22.7446 27.8775 22.6708 29.3214 22.3385C30.284 22.1169 31.0244 21.8954 31.6538 21.6369L32.1351 21.4523L31.6538 21.1938C30.5061 20.5292 29.3584 20.1231 26.8409 19.4954C26.3967 19.3846 26.0264 19.2738 25.9894 19.2369C25.9524 19.2 25.9524 19.2 26.0635 19.2369C26.3226 19.3108 26.5077 19.3477 26.5077 19.2738C26.5077 19.2 26.3226 19.1262 25.9524 19.0892C25.6192 19.0523 25.3971 18.9415 25.6192 18.9415C25.9894 18.9415 25.36 18.72 24.6566 18.6092C24.1383 18.5354 24.1013 18.4985 24.3234 18.4246C24.5085 18.3508 24.7307 18.0185 24.6566 17.9077C24.6196 17.7969 24.5456 17.7969 24.2864 17.9815C23.7311 18.3138 23.2498 18.8677 22.9536 19.4215C22.8055 19.7538 22.8426 19.7538 23.657 19.7908C24.3234 19.8277 24.3605 19.8277 24.1753 19.9015C24.0273 19.9754 23.8792 20.0123 23.7311 20.0123C23.2498 20.0862 22.9906 20.2708 23.2128 20.4185C23.2868 20.4554 23.2498 20.4923 23.1017 20.5662C22.9536 20.6031 22.9536 20.6031 23.0277 20.6769C23.1017 20.7138 23.2498 20.7138 23.3979 20.7138C23.62 20.7138 23.6941 20.7138 23.8051 20.7877L23.9532 20.8985L23.6941 21.0092C23.546 21.0831 23.3979 21.2308 23.3238 21.3415C23.2868 21.4154 23.0647 21.6369 22.8796 21.8215C22.6945 22.0062 22.5464 22.1908 22.5464 22.2277C22.5464 22.2646 22.2872 22.5231 21.954 22.7446C21.0655 23.3723 20.6583 23.7415 20.6583 23.9262C20.6583 24 20.6212 24.1108 20.5102 24.1477C20.214 24.2954 20.1029 24.5169 20.251 24.5169C20.288 24.5169 20.3991 24.48 20.5102 24.4431V24.48ZM27.3963 23.8523C27.6184 23.8154 27.8775 23.7785 27.9516 23.7046L28.0997 23.6308L27.8035 23.52L27.5073 23.4092L27.2111 23.52C27.0631 23.5938 26.8409 23.6677 26.7299 23.7046C26.2856 23.8523 26.2486 24.0369 26.6558 24C26.915 23.9262 27.1741 23.8892 27.3963 23.8523ZM17.4003 21.4523C18.6961 20.2338 19.6216 19.4954 20.8063 18.7569C21.2136 18.4985 21.4727 18.3508 21.5098 18.3877C21.5468 18.4985 21.7319 18.4615 21.991 18.3138C22.3242 18.1292 22.4723 17.9446 22.8796 17.28C23.2868 16.6154 23.4349 16.4308 24.0643 16.0246C24.3605 15.84 24.7677 15.5446 24.9898 15.36C25.323 15.1385 25.3971 15.1015 25.36 15.1754C25.323 15.2492 25.36 15.2862 25.3971 15.2862C25.5452 15.2862 26.1745 15.0277 26.1745 14.9908C26.2116 14.88 25.5822 14.8062 25.1009 14.8431C24.7307 14.88 24.6196 14.9169 24.1753 15.1015C23.1017 15.6185 22.3613 16.1723 20.8804 17.5015C19.8438 18.4615 18.9923 19.0892 18.585 19.2738C18.4369 19.3477 18.3629 19.4585 18.1778 19.7538C17.8446 20.3446 17.2893 21.1938 16.7339 21.8585C16.2156 22.5231 16.1046 22.7446 16.5118 22.3015C16.808 22.0062 17.1041 21.7108 17.4003 21.4523C17.4373 21.4154 17.4003 21.4523 17.4003 21.4523ZM30.5431 27.2492C32.1351 26.9538 32.2832 26.9169 33.3938 26.88C34.6526 26.8431 34.8007 26.8062 35.5411 26.4738C35.7632 26.3631 35.8743 26.3631 35.9113 26.4C35.9854 26.4738 36.3926 26.2892 37.1701 25.7723C37.5033 25.5508 37.9475 25.2923 38.1696 25.1815C38.5399 24.9969 38.6509 24.9969 38.799 24.9969C38.9841 25.0338 39.0212 24.9969 39.2803 24.8123C39.9097 24.2954 40.465 24.0738 41.0203 24.0738C41.1684 24.0738 41.2425 24.1108 41.2425 24.1477C41.2425 24.1846 41.2795 24.2215 41.3165 24.1846C41.4646 24.1108 41.3906 24.1846 40.9833 24.48C40.502 24.8123 40.5391 24.9231 41.0203 24.5908C41.5016 24.2954 41.5016 24.2954 41.5016 24.4062C41.5016 24.48 41.3165 24.6646 40.9833 24.8862C40.2059 25.44 39.6875 25.92 38.8731 26.7323L38.1326 27.4338H28.8771L30.5431 27.2492ZM30.5431 16.4677C30.6172 16.4677 30.6912 16.4677 30.7653 16.4677C30.8393 16.4677 30.7653 16.5046 30.6542 16.5046C30.5431 16.4677 30.5061 16.4677 30.5431 16.4677Z" fill="#393939"/>
<path d="M58.0129 14.4369C57.7537 14.4 57.9018 14.3261 58.198 14.3261C58.4941 14.3261 58.6793 14.2154 58.6793 14.0308C58.6793 13.92 58.6422 13.92 58.5682 13.9569C58.4941 13.9938 58.4201 13.9569 58.3461 13.8831C58.309 13.8092 58.161 13.7723 57.9758 13.7354C57.6426 13.6985 57.0873 13.4031 57.1984 13.3292C57.2354 13.2923 57.4205 13.2554 57.5686 13.2554C57.8648 13.2185 57.9018 13.2185 57.9758 13.0338C58.0129 12.9231 58.0869 12.8492 58.198 12.8123C58.272 12.8123 58.4201 12.7385 58.4941 12.6646C58.5682 12.5908 58.8273 12.4061 59.0865 12.2954C59.4937 12.0369 59.7529 11.8154 59.6418 11.7046C59.5308 11.6308 58.6793 11.52 58.235 11.5569C57.7537 11.5938 56.9022 11.7415 56.569 11.8523C56.1988 11.9631 56.3098 11.8523 56.7911 11.5938C57.4575 11.2246 58.7163 10.8923 59.4197 10.8923C59.6789 10.8923 60.6044 11.0769 60.7155 11.1508C60.9376 11.2985 60.6784 11.8523 60.3082 12.1477L60.1601 12.2585L60.4193 12.5169L60.2712 12.6277C60.1972 12.6646 60.0861 12.7385 60.0491 12.7385C60.0121 12.7385 59.864 12.8123 59.7529 12.8861C59.6048 13.0338 59.5678 13.0708 59.6048 13.1815C59.6418 13.2554 59.6418 13.3292 59.6048 13.4031C59.5678 13.4769 59.5678 13.6246 59.5678 13.8092C59.6048 14.1785 59.5308 14.2892 59.2716 14.3631C59.1605 14.4738 58.3831 14.4738 58.0129 14.4369Z" fill="#7F7F7F"/>
<path d="M1 65.5264V55.8158H2.80876V58.8948C3.20197 58.579 3.51653 58.3421 3.90974 58.1842C4.30295 58.0264 4.69616 57.9474 5.24665 57.9474C5.95442 57.9474 6.6622 58.1053 7.21269 58.4211C7.76318 58.7369 8.31367 59.2106 8.62824 59.7632C8.94281 60.3158 9.10009 61.0264 9.10009 61.7369C9.10009 62.6842 8.78552 63.5527 8.23503 64.3421C7.52726 65.2106 6.58356 65.6053 5.40393 65.6053C4.85344 65.6053 4.38159 65.5264 3.90974 65.3685C3.51653 65.2106 3.12332 64.8948 2.73012 64.5V65.4474H1V65.5264ZM4.93208 59.5264C4.30295 59.5264 3.75246 59.7632 3.35925 60.2369C2.96604 60.6316 2.73012 61.1842 2.73012 61.8158C2.73012 62.4474 2.96604 63 3.35925 63.3948C3.75246 63.7895 4.30295 64.0264 5.01072 64.0264C5.63986 64.0264 6.19035 63.7895 6.6622 63.3948C7.05541 63 7.29133 62.4474 7.29133 61.8158C7.29133 61.1842 7.05541 60.6316 6.6622 60.1579C6.19035 59.7632 5.63986 59.5264 4.93208 59.5264ZM18.5371 62.6053H12.5603C12.639 63.079 12.9535 63.3948 13.2681 63.6316C13.6613 63.8685 14.1332 64.0264 14.6836 64.0264C15.0769 64.0264 15.3914 63.9474 15.6273 63.8685C15.8633 63.7895 16.0992 63.5527 16.3351 63.3158H18.3798C18.3012 63.6316 18.0652 63.9474 17.7507 64.3421C16.9643 65.2106 15.9419 65.6842 14.6836 65.6842C14.1332 65.6842 13.5827 65.6053 13.0322 65.3685C12.5603 65.2106 12.0885 64.8948 11.6953 64.579C11.3021 64.2632 10.9875 63.8685 10.8302 63.3948C10.5943 62.9211 10.5156 62.4474 10.5156 61.8948C10.5156 61.1842 10.6729 60.5527 11.0661 60C11.4593 59.4474 11.9312 58.9737 12.5603 58.579C13.1895 58.2632 13.8972 58.0264 14.605 58.1053C15.3914 58.1053 16.0206 58.2632 16.6497 58.579C17.2788 58.8948 17.7507 59.3685 18.0652 60C18.3798 60.6316 18.6157 61.2632 18.6157 61.9737C18.6157 62.2106 18.5371 62.4474 18.5371 62.6053ZM12.4817 61.1053H16.7283C16.6497 60.6316 16.3351 60.3158 16.0206 60C15.6273 59.7632 15.1555 59.6053 14.605 59.6053C14.0545 59.6053 13.5827 59.7632 13.2681 60C12.8749 60.2369 12.639 60.6316 12.4817 61.1053ZM20.6604 65.5264V59.8421H19.7954V58.2632H20.6604V55.8158H22.4692V58.2632H23.5702V59.8421H22.4692V65.5264H20.6604ZM32.9285 58.1842V65.4474H31.277V64.5C30.8838 64.8948 30.4906 65.2106 30.0974 65.3685C29.7042 65.5264 29.2324 65.6053 28.6819 65.6053C27.9741 65.6053 27.2663 65.4474 26.7158 65.1316C26.1653 64.8158 25.6935 64.3421 25.3003 63.7895C24.9857 63.2369 24.8284 62.5264 24.8284 61.8158C24.8284 61.1053 24.9857 60.3948 25.3003 59.8421C25.6148 59.2895 26.0867 58.8158 26.7158 58.5C27.345 58.1842 27.9741 58.0264 28.7605 58.0264C29.311 58.0264 29.7828 58.1053 30.1761 58.2632C30.5693 58.4211 30.9625 58.7369 31.277 59.1316V58.1842C31.1984 58.1842 32.9285 58.1842 32.9285 58.1842ZM28.8391 59.6842C28.21 59.6842 27.6595 59.9211 27.2663 60.3158C26.8731 60.7106 26.6372 61.2632 26.6372 61.9737C26.6372 62.6053 26.8731 63.1579 27.2663 63.5527C27.6595 63.9474 28.21 64.1842 28.9178 64.1842C29.5469 64.1842 30.0974 63.9474 30.5693 63.5527C30.9625 63.1579 31.1984 62.6053 31.1984 61.9737C31.1984 61.3421 30.9625 60.7895 30.5693 60.3948C30.0974 59.8421 29.5469 59.6842 28.8391 59.6842ZM36.0742 64.1842C35.681 64.1842 35.2878 64.5 35.2878 64.8948C35.2878 65.2895 35.6023 65.6053 36.0742 65.6053C36.4674 65.6053 36.8606 65.2895 36.8606 64.8948C36.8606 64.5 36.4674 64.1842 36.0742 64.1842ZM45.1966 58.1842H46.9267V64.1053C46.9267 64.8158 46.8481 65.4474 46.6908 65.9211C46.5335 66.3948 46.3762 66.7895 46.0617 67.1053C45.3539 67.9737 44.2529 68.3685 42.916 68.3685C41.9723 68.3685 41.1859 68.1316 40.4781 67.7369C39.7703 67.3421 39.2985 66.7895 38.9839 66H41.1072C41.3432 66.3158 41.6577 66.4737 41.9723 66.6316C42.2869 66.7106 42.6014 66.7895 43.0733 66.7895C43.7811 66.7895 44.2529 66.6316 44.6461 66.2369C45.0393 65.8421 45.1966 65.2895 45.1966 64.5C44.8034 64.8948 44.4888 65.2106 44.0956 65.3685C43.7024 65.5264 43.2306 65.6053 42.6801 65.6053C41.9723 65.6053 41.3432 65.4474 40.714 65.1316C40.1635 64.8158 39.6917 64.3421 39.3771 63.7895C39.0626 63.2369 38.9053 62.5264 38.9053 61.8158C38.9053 60.7106 39.2985 59.8421 40.0063 59.1316C40.714 58.4211 41.6577 58.0264 42.6801 58.0264C43.7811 58.0264 44.6461 58.4211 45.1966 59.1316V58.1842ZM42.8374 59.6842C42.2082 59.6842 41.6577 59.9211 41.3432 60.3158C40.95 60.7106 40.7927 61.2632 40.7927 61.8948C40.7927 62.5264 40.95 63.079 41.3432 63.4737C41.7364 63.8685 42.2869 64.1053 42.916 64.1053C43.5451 64.1053 44.0956 63.8685 44.4888 63.4737C44.882 63.079 45.118 62.5264 45.118 61.8948C45.118 61.2632 44.882 60.7106 44.4888 60.3158C44.0956 59.8421 43.5451 59.6842 42.8374 59.6842ZM52.9035 58.0264C53.6113 58.0264 54.319 58.1842 54.9482 58.5C55.5773 58.8158 56.0492 59.2895 56.4424 59.9211C56.8356 60.4737 56.9929 61.1053 56.9929 61.8158C56.9929 62.5264 56.8356 63.1579 56.4424 63.7106C56.0492 64.2632 55.5773 64.7369 54.9482 65.1316C54.319 65.4474 53.6113 65.6842 52.9035 65.6053C52.1957 65.6053 51.4879 65.4474 50.8588 65.1316C50.2297 64.8158 49.7578 64.3421 49.3646 63.7106C48.9714 63.1579 48.8141 62.4474 48.8141 61.8158C48.8141 61.2632 48.8928 60.7895 49.1287 60.3158C49.3646 59.8421 49.6005 59.4474 49.9937 59.1316C50.387 58.8158 50.8588 58.5 51.3307 58.3421C51.8025 58.1842 52.353 58.0264 52.9035 58.0264ZM52.8248 59.6842C52.1957 59.6842 51.7239 59.9211 51.252 60.3158C50.8588 60.7106 50.6229 61.2632 50.6229 61.8948C50.6229 62.5264 50.8588 63 51.252 63.4737C51.6452 63.8685 52.1957 64.1053 52.8248 64.1053C53.454 64.1053 53.9258 63.8685 54.3977 63.4737C54.8695 63.079 55.0268 62.5264 55.0268 61.8948C55.0268 61.2632 54.7909 60.7106 54.3977 60.3158C54.0045 59.8421 53.454 59.6842 52.8248 59.6842ZM65.5648 58.1842V65.4474H63.9133V64.7369C63.5988 65.0527 63.2055 65.2895 62.891 65.4474C62.5764 65.6053 62.1832 65.6053 61.7113 65.6053C61.1609 65.6053 60.689 65.5264 60.2958 65.2895C59.9026 65.1316 59.588 64.8158 59.2735 64.4211C59.0375 64.1053 58.9589 63.7895 58.8803 63.4737C58.8016 63.1579 58.723 62.6842 58.723 62.0527V58.1842H60.6104V61.7369C60.6104 62.2106 60.6104 62.6053 60.689 62.9211C60.7677 63.2369 60.8463 63.3948 61.0036 63.5527C61.2395 63.8685 61.6327 64.0264 62.1046 64.0264C62.4191 64.0264 62.7337 63.9474 62.9696 63.8685C63.2055 63.7106 63.4415 63.5527 63.5201 63.3158C63.5988 63.1579 63.6774 62.9211 63.756 62.6842C63.8347 62.4474 63.8347 62.0527 63.8347 61.579V58.1842C63.756 58.1842 65.5648 58.1842 65.5648 58.1842ZM70.126 65.5264L67.059 58.1842H69.1037L70.9124 63L72.6425 58.1842H74.7659L71.6988 65.4474C71.6202 65.5264 70.126 65.5264 70.126 65.5264ZM75.7096 64.1842C75.3164 64.1842 75.0018 64.5 75.0018 64.8948C75.0018 65.2895 75.3164 65.6053 75.7096 65.6053C76.1028 65.6053 76.4173 65.2895 76.4173 64.8948C76.4173 64.5 76.1028 64.1842 75.7096 64.1842Z" fill="#373C42"/>
<path d="M78.1471 58.7369H79.6413L78.1471 65.8421C77.7539 67.6579 77.2034 68.6053 76.4956 68.6053C76.2597 68.6053 76.1811 68.5263 76.1811 68.2895C76.1811 68.2106 76.1811 68.2106 76.2597 68.1316C76.3383 68.0527 76.3383 67.9737 76.3383 67.8158C76.3383 67.4211 76.0238 67.1842 75.7092 67.1842C75.3946 67.1842 75.0801 67.5 75.0801 67.8948C75.0801 68.4474 75.6306 68.9211 76.417 68.9211C77.9112 68.9211 79.0908 67.2632 79.8772 64.1053L81.1355 58.6579H83.0229L83.1015 58.1053H81.2928C81.7646 55.4211 82.4724 54.2369 83.3374 54.2369C83.5734 54.2369 83.7307 54.3158 83.7307 54.4737C83.7307 54.4737 83.7307 54.5527 83.652 54.6316C83.5734 54.7106 83.5734 54.8684 83.5734 54.9474C83.5734 55.3421 83.8093 55.579 84.2025 55.579C84.5957 55.579 84.9103 55.2632 84.9103 54.8684C84.9103 54.2369 84.2811 53.7632 83.4947 53.7632C82.7083 53.7632 82.0005 54.1579 81.3714 54.9474C80.8996 55.579 80.5064 56.3684 80.0345 58.0263H78.4617C78.3044 58.2632 78.1471 58.7369 78.1471 58.7369ZM84.0452 65.5263C84.9889 62.6053 85.2248 61.8948 86.0113 60.6316C86.5618 59.6842 87.0336 59.1316 87.3482 59.1316C87.4268 59.1316 87.5841 59.2106 87.6627 59.3684C87.82 59.6842 87.8987 59.7632 88.2919 59.7632C88.7637 59.7632 89.0783 59.4474 89.0783 58.8948C89.0783 58.3421 88.7637 58.0263 88.2919 58.0263C87.8987 58.0263 87.4268 58.2632 87.0336 58.7369C86.3258 59.4474 85.6181 60.4737 85.3821 61.1053L85.1462 61.7369L86.0899 58.0263H86.0113C84.8316 58.2632 84.5957 58.2632 83.4161 58.5V58.7369C83.8093 58.6579 83.8879 58.6579 83.9666 58.6579C84.3598 58.6579 84.5171 58.8158 84.5171 59.1316C84.5171 59.3684 84.3598 60 84.2811 60.5527L82.8656 65.5263C82.7083 65.5263 84.0452 65.5263 84.0452 65.5263Z" fill="#373C42"/>
</svg>
