<svg width="70" height="61" viewBox="0 0 70 61" fill="none" xmlns="http://www.w3.org/2000/svg">
<g clip-path="url(#clip0)">
<path d="M39.3642 61C56.2838 61 69.9998 47.3447 69.9998 30.5C69.9998 13.6553 56.2838 0 39.3642 0C22.4446 0 8.72852 13.6553 8.72852 30.5C8.72852 47.3447 22.4446 61 39.3642 61Z" fill="#FFE1A8"/>
<path d="M24.0735 25.8928C25.6367 17.3337 33.9011 11.6405 42.4905 13.1967C51.08 14.7529 56.8062 22.9807 55.2431 31.5321C53.68 40.0835 45.4156 45.7845 36.8261 44.2283C28.2367 42.6721 22.5104 34.4519 24.0735 25.8928ZM52.1324 30.9697C53.3859 24.1286 48.8049 17.5417 41.9334 16.3014C35.0618 15.061 28.4456 19.6141 27.1998 26.4552C25.9539 33.2963 30.5272 39.8832 37.3988 41.1236C44.2703 42.3716 50.8788 37.8186 52.1324 30.9697Z" fill="#FFA600"/>
<path d="M22.0225 39.5132C22.0922 39.1126 22.3166 38.7428 22.6803 38.4963L26.294 36.0079C27.0137 35.5149 28.0042 35.6921 28.4994 36.4085C29.0024 37.125 28.8167 38.1111 28.097 38.6042L24.4833 41.0925C23.7636 41.5856 22.7809 41.4084 22.2779 40.6919C22.038 40.3376 21.9529 39.9061 22.0225 39.5132Z" fill="#FFA600"/>
<path d="M41.8018 50.5767C41.0279 50.5767 40.2696 50.2454 39.7434 49.6753C39.2172 49.1052 38.9541 48.3579 39.0237 47.5721L39.5499 41.1624C39.5654 41.0083 39.4958 40.862 39.3797 40.7618L34.3731 36.6941C33.5451 36.0239 33.1814 34.9607 33.4213 33.9207C33.6612 32.8807 34.4505 32.0872 35.4951 31.8406L41.7863 30.3538C41.9333 30.3152 42.0571 30.2151 42.1113 30.0687L44.4482 24.0673C44.8661 22.9888 45.8876 22.2954 47.0483 22.2954C48.0233 22.2954 48.9132 22.7962 49.4239 23.6282L52.7823 29.1211C52.8597 29.2521 52.999 29.3368 53.1537 29.3445L59.6074 29.6989C60.6753 29.7606 61.5961 30.4 62.014 31.3784C62.4319 32.3568 62.2616 33.4662 61.5652 34.2751L57.3556 39.1594C57.255 39.275 57.2163 39.429 57.255 39.5831L58.911 45.8002C59.1354 46.6399 58.9574 47.5105 58.4312 48.1961C57.905 48.8818 57.077 49.2901 56.2258 49.2901C55.8544 49.2901 55.4984 49.2131 55.1502 49.0744L49.184 46.5937C49.1299 46.5706 49.068 46.5552 49.0061 46.5552C48.9132 46.5552 48.8281 46.5783 48.7507 46.6322L43.3185 50.1221C42.8542 50.4226 42.3357 50.5767 41.8018 50.5767Z" fill="#FFA600"/>
<path d="M47.0403 23.4587C47.5742 23.4587 48.1082 23.7129 48.4255 24.2368L51.7916 29.7297C52.0702 30.1842 52.5577 30.477 53.0916 30.5078L59.5453 30.8622C60.8917 30.9392 61.565 32.5185 60.6905 33.5354L56.4809 38.4198C56.1327 38.8204 56.0089 39.375 56.1405 39.8912L57.7964 46.1083C58.0828 47.1869 57.2393 48.1422 56.2256 48.1422C56.0167 48.1422 55.8077 48.1036 55.591 48.0112L49.6249 45.5305C49.4237 45.4458 49.207 45.4073 48.9981 45.4073C48.6886 45.4073 48.3868 45.492 48.1159 45.6692L42.6837 49.1591C42.4051 49.3363 42.1033 49.421 41.8093 49.421C40.9194 49.421 40.0991 48.6737 40.1842 47.6645L40.7104 41.2548C40.7569 40.7232 40.5325 40.2071 40.1146 39.8681L35.108 35.8004C34.0633 34.953 34.4502 33.2812 35.758 32.973L42.0492 31.4862C42.5676 31.3629 42.9932 30.9931 43.1867 30.4924L45.5236 24.491C45.779 23.813 46.4058 23.4587 47.0403 23.4587ZM47.0403 21.1475C45.3921 21.1475 43.9528 22.1336 43.3569 23.659L41.1515 29.3214L35.2163 30.7235C33.746 31.0702 32.6163 32.2027 32.2835 33.6664C31.943 35.1379 32.4615 36.6401 33.6377 37.5877L38.3658 41.4243L37.8705 47.4719C37.7777 48.5813 38.1413 49.6367 38.892 50.4457C39.6426 51.2546 40.7027 51.7245 41.8093 51.7245C42.5599 51.7245 43.3027 51.5088 43.945 51.0928L49.0677 47.8032L54.6934 50.1452C55.1809 50.3455 55.6994 50.4534 56.2178 50.4534C57.4328 50.4534 58.6012 49.8756 59.3441 48.9126C60.0947 47.9419 60.3423 46.7015 60.0251 45.5151L58.4697 39.6447L62.4394 35.0377C63.4221 33.8975 63.6698 32.3259 63.0739 30.9392C62.4781 29.5525 61.1703 28.6357 59.6614 28.5587L53.5714 28.2197L50.3987 23.0349C49.679 21.8562 48.4255 21.1475 47.0403 21.1475Z" fill="#FFE1A8"/>
<path d="M0.0621646 51.5703C0.240144 50.5765 0.805034 49.652 1.70267 49.0357L18.0458 37.7725C19.8411 36.5321 22.3173 36.979 23.5554 38.7663L24.5382 40.1838C25.784 41.9711 25.3352 44.4364 23.5399 45.669L7.19681 56.9322C5.40154 58.1726 2.92531 57.7257 1.68719 55.9384L0.704437 54.5209C0.0853793 53.6272 -0.115815 52.5641 0.0621646 51.5703Z" fill="#DB8F00"/>
</g>
<defs>
<clipPath id="clip0">
<rect width="70" height="61" fill="white"/>
</clipPath>
</defs>
</svg>
