<svg width="29" height="29" viewBox="0 0 29 29" fill="none" xmlns="http://www.w3.org/2000/svg">
<path d="M23.4359 19.9491C27.3798 14.0799 25.8183 6.12127 19.9492 2.17735C14.08 -1.76656 6.1214 -0.205094 2.17751 5.66732C-1.76638 11.5397 -0.204926 19.4952 5.66423 23.4391C9.98159 26.3399 15.6286 26.3399 19.9459 23.4391L24.7913 28.278C25.7539 29.2407 27.3154 29.2407 28.278 28.278C29.2407 27.3154 29.2407 25.7539 28.278 24.7913L23.4359 19.9491ZM12.818 22.6535C7.38666 22.6535 2.98238 18.2492 2.98238 12.8179C2.98238 7.38654 7.38666 2.98223 12.818 2.98223C18.2493 2.98223 22.6536 7.38654 22.6536 12.8179C22.6471 18.2492 18.2493 22.6471 12.818 22.6535Z" fill="#FFA600"/>
</svg>
