<svg width="36" height="36" viewBox="0 0 36 36" fill="none" xmlns="http://www.w3.org/2000/svg">
<g clip-path="url(#clip0)">
<path d="M17.5551 36C27.2248 36 35.1102 27.9606 35.1102 17.9704C35.0526 8.03941 27.2248 0 17.5551 0C7.82785 0 0 8.03941 0 18.0296C0 27.9606 7.82785 36 17.5551 36Z" fill="#420FAB"/>
<path d="M17.7854 12.1774C17.7278 12.1774 17.7278 12.1183 17.7278 12.1183L17.6127 12.0001C17.2673 11.7636 16.7493 11.9409 16.5191 12.2365L15.1377 14.069C15.0801 14.1873 14.965 14.1873 14.8499 14.1281L14.7924 14.069C14.1017 13.7735 13.2959 13.9508 12.5476 14.4828C12.2023 14.7193 11.9145 15.0148 11.7418 15.3695C11.6842 15.4286 11.5691 15.4877 11.5116 15.4877C11.5116 15.4877 11.5116 15.4877 11.454 15.4877C11.3389 15.4286 11.3389 15.3104 11.3965 15.1922C11.6267 14.8375 11.9145 14.4828 12.3174 14.1873C13.3534 13.4188 14.2168 13.4779 14.8499 13.7143L17.0947 6.50252C17.2098 6.08873 17.0371 5.67493 16.6342 5.55671C16.2313 5.43848 15.8284 5.61582 15.7133 6.02961L15.0801 8.03947L13.9866 11.468C13.929 11.5863 13.8139 11.6454 13.7563 11.5863C13.7563 11.5863 13.6988 11.5863 13.6988 11.5272C13.6412 11.468 13.6412 11.4089 13.6412 11.2907L14.7348 7.86213L15.8284 4.43356C15.886 4.25622 15.886 4.01976 15.7708 3.84242C15.6557 3.66508 15.5406 3.54686 15.3679 3.48774C15.1953 3.42863 14.965 3.42863 14.7924 3.54686C14.5621 3.54686 14.447 3.7242 14.3895 3.90154L14.1017 4.90646L12.4325 10.2267L12.3174 10.5813C12.2598 10.6996 12.1447 10.7587 12.0871 10.6996C11.972 10.6405 11.9145 10.5222 11.972 10.4631L12.0871 10.1084L13.7563 4.78824C13.8139 4.37444 13.5836 3.96065 13.2383 3.84242C13.0656 3.78331 12.8354 3.78331 12.6627 3.90154C12.4901 4.01976 12.3749 4.13799 12.3174 4.31533L11.6267 6.38429L10.5906 9.57641L10.4755 9.99021C10.418 10.1084 10.3029 10.1675 10.2453 10.1084C10.1302 10.0493 10.0726 9.93109 10.1302 9.87198L10.2453 9.45819L11.2813 6.26607C11.3389 6.08873 11.3389 5.91139 11.2238 5.73405C11.1087 5.55671 10.9936 5.43848 10.7633 5.37937C10.3604 5.26114 9.95752 5.43848 9.8424 5.85227L7.54009 13.0641C7.36742 13.6552 7.30986 14.1873 7.30986 14.7193C7.30986 15.2513 7.54009 15.7833 7.943 16.138C7.19475 18.0887 4.31686 25.3597 3.28082 28.4927C4.60465 30.4434 6.33138 32.0986 8.28834 33.34C9.4395 29.4385 12.0871 20.6306 12.893 18.0296C13.929 18.3843 15.3679 16.7882 16.3464 15.3104L17.9005 12.6503C17.958 12.5912 17.958 12.5321 17.958 12.473C18.0156 12.3547 17.8429 12.2956 17.7854 12.1774Z" fill="#D3C4FF"/>
<path d="M27.1096 25.3004C27.5125 24.9458 27.7428 24.4728 27.8003 23.9408C27.8579 23.4088 27.8003 22.8768 27.6852 22.2857L25.8434 14.8965C25.7283 14.5418 25.3253 14.3054 24.98 14.3645C24.8073 14.4236 24.6347 14.5418 24.5195 14.7192C24.4044 14.8965 24.4044 15.0738 24.462 15.2512L25.2678 18.5024L25.3829 18.9162C25.3829 19.0344 25.3253 19.1527 25.2678 19.1527C25.1527 19.1527 25.0376 19.0935 25.0376 19.0344L24.9224 18.6206L24.1166 15.3694L23.5986 13.2413C23.5411 13.064 23.4259 12.8866 23.2533 12.7684C23.0806 12.6502 22.9079 12.6502 22.6777 12.7093C22.2748 12.8275 22.0446 13.2413 22.1597 13.6551L23.4835 19.0344L23.5986 19.4482C23.5986 19.5664 23.5411 19.6847 23.4835 19.6847C23.3684 19.6847 23.2533 19.6256 23.2533 19.5664L23.023 19.1527L21.6992 13.7733L21.469 12.7684C21.4114 12.5911 21.2963 12.4137 21.1236 12.2955C20.951 12.1773 20.7783 12.1773 20.5481 12.2364C20.3754 12.2955 20.2027 12.4137 20.0876 12.5911C19.9725 12.7684 19.9725 12.9458 20.03 13.1822L20.8934 16.6699L21.7568 20.1576C21.7568 20.2167 21.7568 20.3349 21.6992 20.394C21.6992 20.394 21.6417 20.394 21.6417 20.4531C21.5265 20.4531 21.4114 20.394 21.4114 20.3349L20.5481 16.8472L20.03 14.7783C19.9149 14.3645 19.512 14.128 19.1091 14.2463C18.7062 14.3645 18.476 14.7783 18.5911 15.1921L20.3754 22.463C21.0085 22.2857 21.8719 22.2857 22.8504 23.1132C23.2533 23.4088 23.5411 23.7635 23.7137 24.1773C23.7713 24.2955 23.7137 24.4137 23.5986 24.4728C23.5986 24.4728 23.5986 24.4728 23.5411 24.4728C23.4259 24.4728 23.3684 24.4728 23.3108 24.3546C23.1382 23.9999 22.9079 23.7044 22.5626 23.4088C21.8143 22.8177 21.0661 22.6403 20.3178 22.8768C20.3178 22.8768 20.3178 22.9359 20.2603 22.9359C20.1452 22.995 20.03 22.995 19.9725 22.8768L18.7062 20.9852C18.476 20.6305 17.958 20.4531 17.6126 20.6896L17.4975 20.8078C17.4975 20.8078 17.4399 20.8669 17.3824 20.8669C17.2673 20.9261 17.1522 20.9852 17.1522 21.1034C17.1522 21.1625 17.1522 21.2216 17.2097 21.2807L18.5911 23.9999C19.4545 25.5369 20.7783 27.1921 21.8719 26.9556H21.9294C22.3323 28.4334 23.1957 31.862 23.944 34.7586C25.8434 33.9901 27.5701 32.8669 29.0666 31.4482C28.491 29.1428 27.5125 26.4236 27.1096 25.3004Z" fill="#D3C4FF"/>
</g>
<defs>
<clipPath id="clip0">
<rect width="35.0526" height="36" fill="white"/>
</clipPath>
</defs>
</svg>
