<svg width="90" height="90" viewBox="0 0 90 90" fill="none" xmlns="http://www.w3.org/2000/svg">
<g clip-path="url(#clip0)">
<path d="M45.0739 90C69.9015 90 90.1478 69.9015 90.1478 44.9261C90 20.0985 69.9015 0 45.0739 0C20.0985 0 0 20.0985 0 45.0739C0 69.9015 20.0985 90 45.0739 90Z" fill="#DDCCFF"/>
<path d="M45.665 30.4433C45.5173 30.4433 45.5172 30.2955 45.5172 30.2955L45.2217 29.9999C44.335 29.4088 43.0049 29.8521 42.4138 30.5911L38.867 35.1723C38.7192 35.4679 38.4237 35.4679 38.1281 35.3201L37.9803 35.1723C36.2069 34.4334 34.1379 34.8768 32.2168 36.2068C31.3301 36.798 30.5911 37.5369 30.1478 38.4236C30 38.5714 29.7044 38.7191 29.5567 38.7191C29.5567 38.7191 29.5567 38.7191 29.4089 38.7191C29.1133 38.5714 29.1133 38.2758 29.2611 37.9802C29.8522 37.0935 30.5911 36.2068 31.6256 35.4679C34.2857 33.5467 36.5025 33.6945 38.1281 34.2856L43.8916 16.2561C44.1872 15.2216 43.7439 14.1871 42.7094 13.8916C41.6749 13.596 40.6404 14.0393 40.3448 15.0738L38.7192 20.0985L35.9113 28.6699C35.7636 28.9654 35.468 29.1132 35.3202 28.9654C35.3202 28.9654 35.1724 28.9654 35.1724 28.8177C35.0246 28.6699 35.0246 28.5221 35.0246 28.2265L37.8325 19.6551L40.6404 11.0837C40.7882 10.6403 40.7882 10.0492 40.4926 9.60584C40.1971 9.16249 39.9015 8.86693 39.4581 8.71914C39.0148 8.57136 38.4237 8.57136 37.9803 8.86693C37.3892 8.86693 37.0936 9.31028 36.9458 9.75362L36.2069 12.2659L31.9212 25.5664L31.6256 26.4531C31.4778 26.7487 31.1823 26.8965 31.0345 26.7487C30.7389 26.6009 30.5911 26.3053 30.7389 26.1576L31.0345 25.2709L35.3202 11.9704C35.468 10.9359 34.8769 9.90141 33.9902 9.60584C33.5468 9.45806 32.9557 9.45806 32.5123 9.75362C32.069 10.0492 31.7734 10.3448 31.6256 10.7881L29.8522 15.9605L27.1921 23.9408L26.8966 24.9753C26.7488 25.2709 26.4532 25.4186 26.3054 25.2709C26.0099 25.1231 25.8621 24.8275 26.0099 24.6797L26.3054 23.6453L28.9655 15.665C29.1133 15.2216 29.1133 14.7783 28.8177 14.3349C28.5222 13.8916 28.2266 13.596 27.6355 13.4482C26.601 13.1526 25.5665 13.596 25.2709 14.6305L19.3596 32.66C18.9163 34.1379 18.7685 35.4679 18.7685 36.798C18.7685 38.128 19.3596 39.4581 20.3941 40.3448C18.4729 45.2216 11.0838 63.3989 8.42366 71.2315C11.8227 76.1083 16.2562 80.2462 21.2808 83.3497C24.2365 73.596 31.0345 51.5763 33.1035 45.0738C35.7636 45.9605 39.4581 41.9704 41.9705 38.2758L45.9606 31.6255C46.1084 31.4778 46.1084 31.33 46.1084 31.1822C46.2562 30.8866 45.8128 30.7388 45.665 30.4433Z" fill="#4E1ABA"/>
<path d="M69.6059 63.2513C70.6404 62.3646 71.2315 61.1823 71.3793 59.8523C71.5271 58.5222 71.3793 57.1922 71.0837 55.7144L66.3547 37.2415C66.0591 36.3548 65.0246 35.7636 64.1379 35.9114C63.6946 36.0592 63.2512 36.3548 62.9557 36.7981C62.6601 37.2415 62.6601 37.6848 62.8079 38.1282L64.8769 46.2562L65.1724 47.2907C65.1724 47.5863 65.0246 47.8819 64.8769 47.8819C64.5813 47.8819 64.2857 47.7341 64.2857 47.5863L63.9902 46.5518L61.9212 38.4237L60.5911 33.1035C60.4434 32.6602 60.1478 32.2168 59.7044 31.9213C59.2611 31.6257 58.8177 31.6257 58.2266 31.7735C57.1921 32.069 56.601 33.1035 56.8966 34.138L60.2956 47.5863L60.5911 48.6208C60.5911 48.9163 60.4434 49.2119 60.2956 49.2119C60 49.2119 59.7044 49.0641 59.7044 48.9163L59.1133 47.8819L55.7143 34.4336L55.1232 31.9213C54.9754 31.4779 54.6798 31.0346 54.2365 30.739C53.7931 30.4434 53.3498 30.4434 52.7586 30.5912C52.3153 30.739 51.8719 31.0346 51.5764 31.4779C51.2808 31.9213 51.2808 32.3646 51.4286 32.9557L53.6453 41.675L55.8621 50.3942C55.8621 50.5419 55.8621 50.8375 55.7143 50.9853C55.7143 50.9853 55.5665 50.9853 55.5665 51.1331C55.2709 51.1331 54.9754 50.9853 54.9754 50.8375L52.7586 42.1183L51.4286 36.9459C51.133 35.9114 50.0985 35.3203 49.064 35.6158C48.0296 35.9114 47.4384 36.9459 47.734 37.9804L52.3153 56.1577C53.9409 55.7144 56.1576 55.7144 58.67 57.7833C59.7044 58.5222 60.4434 59.4089 60.8867 60.4434C61.0345 60.739 60.8867 61.0346 60.5911 61.1823C60.5911 61.1823 60.5911 61.1823 60.4434 61.1823C60.1478 61.1823 60 61.1823 59.8522 60.8868C59.4089 60.0001 58.8177 59.2612 57.931 58.5222C56.0099 57.0444 54.0887 56.6011 52.1675 57.1922C52.1675 57.1922 52.1675 57.34 52.0197 57.34C51.7241 57.4878 51.4286 57.4878 51.2808 57.1922L48.0296 52.4631C47.4384 51.5764 46.1084 51.1331 45.2217 51.7242L44.9261 52.0198C44.9261 52.0198 44.7783 52.1676 44.6305 52.1676C44.335 52.3153 44.0394 52.4631 44.0394 52.7587C44.0394 52.9065 44.0394 53.0543 44.1872 53.202L47.734 60.0001C49.9507 63.8424 53.3498 67.9804 56.1576 67.3892H56.3054C57.3399 71.0838 59.5567 79.6552 61.4778 86.8966C66.3547 84.9754 70.7882 82.1676 74.6305 78.6208C73.1527 72.8572 70.6404 66.0592 69.6059 63.2513Z" fill="#4E1ABA"/>
</g>
<defs>
<clipPath id="clip0">
<rect width="90" height="90" fill="white"/>
</clipPath>
</defs>
</svg>
