<svg width="50" height="50" viewBox="0 0 50 50" fill="none" xmlns="http://www.w3.org/2000/svg">
<path d="M49.9843 40.625H40.625V50L30.5156 39.8906C35.0625 38.7031 39.0468 36.1094 41.9375 32.5625L49.9843 40.625ZM8.04687 32.5781L0 40.625H9.37499V50L19.4687 39.8906C14.9219 38.7031 10.9375 36.1094 8.04687 32.5781Z" fill="#D60051"/>
<path d="M25 0C14.6406 0 6.25 8.40624 6.25 18.75C6.25 29.1094 14.6406 37.5 25 37.5C35.3437 37.5 43.75 29.1094 43.75 18.75C43.75 8.40624 35.3437 0 25 0ZM34.6562 17.0156L30.375 21.1875C30.25 21.2969 30.2031 21.4687 30.2344 21.625L31.25 27.5156C31.3281 27.9219 30.8906 28.2344 30.5156 28.0469L25.2344 25.2656C25.0937 25.1875 24.9062 25.1875 24.7656 25.2656L19.4844 28.0469C19.1094 28.2344 18.6875 27.9219 18.75 27.5156L19.7656 21.625C19.7969 21.4687 19.7344 21.2969 19.625 21.1875L15.3437 17.0156C15.0469 16.7187 15.2031 16.2187 15.625 16.1562L21.5312 15.2969C21.6875 15.2656 21.8437 15.1719 21.9062 15.0156L24.5469 9.65624C24.7344 9.28124 25.2656 9.28124 25.4531 9.65624L28.0937 15.0156C28.1719 15.1562 28.3125 15.2656 28.4687 15.2969L34.375 16.1562C34.7969 16.2187 34.9531 16.7344 34.6562 17.0156Z" fill="#FF6EA4"/>
<path d="M34.6562 17.0156L30.3749 21.1875C30.2499 21.2969 30.203 21.4687 30.2343 21.625L31.2499 27.5156C31.328 27.9219 30.8905 28.2344 30.5155 28.0469L25.2343 25.2656C25.0937 25.1875 24.9062 25.1875 24.7655 25.2656L19.4843 28.0469C19.1093 28.2344 18.6874 27.9219 18.7499 27.5156L19.7655 21.625C19.7968 21.4687 19.7343 21.2969 19.6249 21.1875L15.3437 17.0156C15.0468 16.7187 15.2031 16.2187 15.6249 16.1562L21.5312 15.2969C21.6874 15.2656 21.8437 15.1719 21.9062 15.0156L24.5468 9.65625C24.7343 9.28125 25.2655 9.28125 25.453 9.65625L28.0937 15.0156C28.1718 15.1562 28.3124 15.2656 28.4687 15.2969L34.3749 16.1562C34.7968 16.2187 34.953 16.7344 34.6562 17.0156Z" fill="white"/>
</svg>
