<svg width="35" height="36" viewBox="0 0 35 36" fill="none" xmlns="http://www.w3.org/2000/svg">
<g opacity="0.5" clip-path="url(#clip0)">
<path d="M17.3856 36C26.962 36 34.7713 27.9606 34.7713 17.9704C34.7143 8.03941 26.962 0 17.3856 0C7.75229 0 0 8.03941 0 18.0296C0 27.9606 7.75229 36 17.3856 36Z" fill="#DDCCFF"/>
<path d="M17.6136 12.1774C17.5566 12.1774 17.5566 12.1183 17.5566 12.1183L17.4426 12.0001C17.1006 11.7636 16.5876 11.9409 16.3596 12.2365L14.9915 14.069C14.9345 14.1873 14.8205 14.1873 14.7065 14.1281L14.6495 14.069C13.9655 13.7735 13.1675 13.9508 12.4265 14.4828C12.0844 14.7193 11.7994 15.0148 11.6284 15.3695C11.5714 15.4286 11.4574 15.4877 11.4004 15.4877C11.4004 15.4877 11.4004 15.4877 11.3434 15.4877C11.2294 15.4286 11.2294 15.3104 11.2864 15.1922C11.5144 14.8375 11.7994 14.4828 12.1984 14.1873C13.2245 13.4188 14.0795 13.4779 14.7065 13.7143L16.9296 6.50252C17.0436 6.08873 16.8726 5.67493 16.4736 5.55671C16.0746 5.43848 15.6756 5.61582 15.5616 6.02961L14.9345 8.03947L13.8515 11.468C13.7945 11.5863 13.6805 11.6454 13.6235 11.5863C13.6235 11.5863 13.5665 11.5863 13.5665 11.5272C13.5095 11.468 13.5095 11.4089 13.5095 11.2907L14.5925 7.86213L15.6756 4.43356C15.7326 4.25622 15.7326 4.01976 15.6186 3.84242C15.5046 3.66508 15.3906 3.54686 15.2196 3.48774C15.0486 3.42863 14.8205 3.42863 14.6495 3.54686C14.4215 3.54686 14.3075 3.7242 14.2505 3.90154L13.9655 4.90646L12.3125 10.2267L12.1984 10.5813C12.1414 10.6996 12.0274 10.7587 11.9704 10.6996C11.8564 10.6405 11.7994 10.5222 11.8564 10.4631L11.9704 10.1084L13.6235 4.78824C13.6805 4.37444 13.4525 3.96065 13.1105 3.84242C12.9395 3.78331 12.7115 3.78331 12.5405 3.90154C12.3695 4.01976 12.2554 4.13799 12.1984 4.31533L11.5144 6.38429L10.4884 9.57641L10.3744 9.99021C10.3174 10.1084 10.2034 10.1675 10.1464 10.1084C10.0324 10.0493 9.97536 9.93109 10.0324 9.87198L10.1464 9.45819L11.1724 6.26607C11.2294 6.08873 11.2294 5.91139 11.1154 5.73405C11.0014 5.55671 10.8874 5.43848 10.6594 5.37937C10.2604 5.26114 9.86136 5.43848 9.74736 5.85227L7.46727 13.0641C7.29627 13.6552 7.23926 14.1873 7.23926 14.7193C7.23926 15.2513 7.46727 15.7833 7.86629 16.138C7.12526 18.0887 4.27515 25.3597 3.24911 28.4927C4.56016 30.4434 6.27023 32.0986 8.2083 33.34C9.34834 29.4385 11.9704 20.6306 12.7685 18.0296C13.7945 18.3843 15.2196 16.7882 16.1886 15.3104L17.7277 12.6503C17.7847 12.5912 17.7847 12.5321 17.7847 12.473C17.8417 12.3547 17.6706 12.2956 17.6136 12.1774Z" fill="#4E1ABA"/>
<path d="M26.848 25.3004C27.247 24.9458 27.475 24.4728 27.532 23.9408C27.589 23.4088 27.532 22.8768 27.418 22.2857L25.594 14.8965C25.4799 14.5418 25.0809 14.3054 24.7389 14.3645C24.5679 14.4236 24.3969 14.5418 24.2829 14.7192C24.1689 14.8965 24.1689 15.0738 24.2259 15.2512L25.0239 18.5024L25.1379 18.9162C25.1379 19.0344 25.0809 19.1527 25.0239 19.1527C24.9099 19.1527 24.7959 19.0935 24.7959 19.0344L24.6819 18.6206L23.8839 15.3694L23.3709 13.2413C23.3139 13.064 23.1999 12.8866 23.0289 12.7684C22.8579 12.6502 22.6868 12.6502 22.4588 12.7093C22.0598 12.8275 21.8318 13.2413 21.9458 13.6551L23.2569 19.0344L23.3709 19.4482C23.3709 19.5664 23.3139 19.6847 23.2569 19.6847C23.1429 19.6847 23.0289 19.6256 23.0289 19.5664L22.8008 19.1527L21.4898 13.7733L21.2618 12.7684C21.2048 12.5911 21.0908 12.4137 20.9198 12.2955C20.7488 12.1773 20.5778 12.1773 20.3498 12.2364C20.1788 12.2955 20.0077 12.4137 19.8937 12.5911C19.7797 12.7684 19.7797 12.9458 19.8367 13.1822L20.6918 16.6699L21.5468 20.1576C21.5468 20.2167 21.5468 20.3349 21.4898 20.394C21.4898 20.394 21.4328 20.394 21.4328 20.4531C21.3188 20.4531 21.2048 20.394 21.2048 20.3349L20.3498 16.8472L19.8367 14.7783C19.7227 14.3645 19.3237 14.128 18.9247 14.2463C18.5257 14.3645 18.2977 14.7783 18.4117 15.1921L20.1788 22.463C20.8058 22.2857 21.6608 22.2857 22.6298 23.1132C23.0289 23.4088 23.3139 23.7635 23.4849 24.1773C23.5419 24.2955 23.4849 24.4137 23.3709 24.4728C23.3709 24.4728 23.3709 24.4728 23.3139 24.4728C23.1999 24.4728 23.1429 24.4728 23.0859 24.3546C22.9149 23.9999 22.6868 23.7044 22.3448 23.4088C21.6038 22.8177 20.8628 22.6403 20.1217 22.8768C20.1217 22.8768 20.1217 22.9359 20.0647 22.9359C19.9507 22.995 19.8367 22.995 19.7797 22.8768L18.5257 20.9852C18.2977 20.6305 17.7847 20.4531 17.4427 20.6896L17.3286 20.8078C17.3286 20.8078 17.2716 20.8669 17.2146 20.8669C17.1006 20.9261 16.9866 20.9852 16.9866 21.1034C16.9866 21.1625 16.9866 21.2216 17.0436 21.2807L18.4117 23.9999C19.2667 25.5369 20.5778 27.1921 21.6608 26.9556H21.7178C22.1168 28.4334 22.9719 31.862 23.7129 34.7586C25.5939 33.9901 27.304 32.8669 28.7861 31.4482C28.216 29.1428 27.247 26.4236 26.848 25.3004Z" fill="#4E1ABA"/>
</g>
<defs>
<clipPath id="clip0">
<rect width="34.7143" height="36" fill="white"/>
</clipPath>
</defs>
</svg>
