<svg width="30" height="30" viewBox="0 0 30 30" fill="none" xmlns="http://www.w3.org/2000/svg">
<path fill-rule="evenodd" clip-rule="evenodd" d="M15 0C6.71667 0 0 6.71667 0 15C0 23.2833 6.71667 30 15 30C23.2833 30 30 23.2833 30 15C30 6.71667 23.2833 0 15 0ZM12.3033 15C12.3033 15.0667 12.29 15.13 12.2833 15.1967L18.29 18.4333C18.7 17.9833 19.2867 17.6967 19.9433 17.6967C21.1833 17.6967 22.19 18.7033 22.19 19.9433C22.19 21.1833 21.1833 22.19 19.9433 22.19C18.7033 22.19 17.6967 21.1833 17.6967 19.9433C17.6967 19.9133 17.7033 19.8833 17.7067 19.8533L11.6467 16.5867C11.24 16.9933 10.6767 17.2433 10.0567 17.2433C8.81667 17.2433 7.81 16.2367 7.81 14.9967C7.81 13.7567 8.81667 12.75 10.0567 12.75C10.67 12.75 11.23 13 11.6333 13.4L17.7033 10.1267C17.7033 10.1 17.6967 10.0767 17.6967 10.0533C17.6967 8.81333 18.7033 7.80667 19.9433 7.80667C21.1833 7.80667 22.19 8.81333 22.19 10.0533C22.19 11.2933 21.1833 12.3 19.9433 12.3C19.28 12.3 18.69 12.0067 18.28 11.55L12.28 14.7833C12.2867 14.86 12.3033 14.9267 12.3033 15Z" fill="#FF6EA4"/>
</svg>
