<svg width="90" height="90" viewBox="0 0 90 90" fill="none" xmlns="http://www.w3.org/2000/svg">
<g clip-path="url(#clip0)">
<path d="M45.0739 90C69.9015 90 90.1478 69.9015 90.1478 44.9261C90 20.0985 69.9015 0 45.0739 0C20.0985 0 0 20.0985 0 45.0739C0 69.9015 20.0985 90 45.0739 90Z" fill="#DDCCFF"/>
<path d="M16.6995 40.3449C20.0458 40.3449 22.7586 37.6322 22.7586 34.2858C22.7586 30.9394 20.0458 28.2267 16.6995 28.2267C13.3531 28.2267 10.6404 30.9394 10.6404 34.2858C10.6404 37.6322 13.3531 40.3449 16.6995 40.3449Z" fill="#4E1ABA"/>
<path d="M45.3694 40.3449C48.7158 40.3449 51.4285 37.6322 51.4285 34.2858C51.4285 30.9394 48.7158 28.2267 45.3694 28.2267C42.0231 28.2267 39.3103 30.9394 39.3103 34.2858C39.3103 37.6322 42.0231 40.3449 45.3694 40.3449Z" fill="#4E1ABA"/>
<path d="M74.1872 40.3449C77.5335 40.3449 80.2463 37.6322 80.2463 34.2858C80.2463 30.9394 77.5335 28.2267 74.1872 28.2267C70.8408 28.2267 68.1281 30.9394 68.1281 34.2858C68.1281 37.6322 70.8408 40.3449 74.1872 40.3449Z" fill="#4E1ABA"/>
<path d="M9.01478 72.1182V66.5024L10.0493 50.0985L0.44335 38.1281C0.147783 40.3448 0 42.7093 0 45.0739" fill="#DDCCFF"/>
<path d="M74.0394 67.9803L73.0049 80.3941C73.7438 79.803 74.6305 79.0641 75.3694 78.473L74.4827 68.1281H74.0394V67.9803Z" fill="#DDCCFF"/>
<path d="M45.2217 67.9803L43.3005 90.0001C43.8916 90.0001 44.4828 90.0001 45.0739 90.0001C45.9606 90.0001 46.6995 90.0001 47.5862 90.0001L45.5172 67.9803H45.2217Z" fill="#DDCCFF"/>
<path d="M16.4039 67.9803L15.5173 79.0641C16.2562 79.803 17.1429 80.3941 18.0296 80.9853L16.8473 67.9803H16.4039Z" fill="#DDCCFF"/>
<path d="M86.4532 33.5468L78.6207 42.8572C78.6207 39.6059 77.5862 41.9705 74.335 41.9705H74.0394C70.9359 41.9705 69.7537 39.7537 69.7537 42.8572L62.069 33.8424C61.9212 33.6946 61.7734 33.5468 61.6256 33.399C61.0345 32.9557 60.4433 32.6601 59.8522 32.6601C59.1133 32.6601 58.3744 32.9557 57.7832 33.6946L49.8029 42.8572C49.8029 39.6059 48.7685 41.9705 45.5172 41.9705H45.2217C42.1182 41.9705 40.936 39.7537 40.936 42.8572L33.1034 33.8424C32.9557 33.6946 32.9557 33.6946 32.8079 33.5468L32.6601 33.399C32.069 32.9557 31.4778 32.6601 30.8867 32.6601C30.1478 32.6601 29.4089 32.9557 28.8177 33.6946L20.9852 42.8572C20.9852 39.6059 19.9507 41.9705 16.6995 41.9705H16.4039C13.3005 41.9705 12.1182 39.7537 12.1182 42.8572L4.43349 33.8424C3.84236 33.1035 3.10344 32.8079 2.36452 32.8079C2.06896 32.8079 1.92117 32.8079 1.77339 32.9557C1.33004 34.5813 0.886692 36.3547 0.591125 38.1281L10.197 50.0985L9.01477 66.3547V71.9705C10.936 74.4828 13.1527 76.8473 15.5172 78.9163L16.4039 67.8325H16.6995L17.8818 80.8375C19.8029 82.3153 22.0197 83.6453 24.2364 84.8276V66.3547L23.202 49.803L31.0345 40.0493L39.0148 49.9508L37.9803 66.3547V89.4089C39.7537 89.7045 41.6749 89.8522 43.4483 90L45.2217 67.9803H45.5172L47.4384 90C49.3596 89.8522 51.133 89.7045 52.9064 89.4089V66.5025L51.8719 49.9508L59.7044 40.1971L67.6847 50.0985L66.6502 66.5025V84.6798C68.867 83.4976 71.0837 82.0197 73.0049 80.3941L74.0394 67.9803H74.335L75.2217 78.3251C77.5862 76.1084 79.8029 73.5961 81.7241 70.936V66.3547L80.6896 49.803L89.5566 38.7192C89.2611 36.6503 88.8177 34.5813 88.2266 32.5123C87.6355 32.6601 86.8965 32.9557 86.4532 33.5468Z" fill="#4E1ABA"/>
</g>
<defs>
<clipPath id="clip0">
<rect width="90" height="90" fill="white"/>
</clipPath>
</defs>
</svg>
