<svg width="36" height="36" viewBox="0 0 36 36" fill="none" xmlns="http://www.w3.org/2000/svg">
<g opacity="0.5" clip-path="url(#clip0)">
<path d="M18.0296 36C27.9606 36 36.0591 27.9606 36.0591 17.9704C36 8.03941 27.9606 0 18.0296 0C8.03941 0 0 8.03941 0 18.0296C0 27.9606 8.03941 36 18.0296 36Z" fill="#DDCCFF"/>
<path d="M6.67978 16.1379C8.01832 16.1379 9.10342 15.0528 9.10342 13.7143C9.10342 12.3758 8.01832 11.2906 6.67978 11.2906C5.34124 11.2906 4.25613 12.3758 4.25613 13.7143C4.25613 15.0528 5.34124 16.1379 6.67978 16.1379Z" fill="#4E1ABA"/>
<path d="M18.1478 16.1379C19.4863 16.1379 20.5714 15.0528 20.5714 13.7143C20.5714 12.3758 19.4863 11.2906 18.1478 11.2906C16.8092 11.2906 15.7241 12.3758 15.7241 13.7143C15.7241 15.0528 16.8092 16.1379 18.1478 16.1379Z" fill="#4E1ABA"/>
<path d="M29.6749 16.1379C31.0134 16.1379 32.0985 15.0528 32.0985 13.7143C32.0985 12.3758 31.0134 11.2906 29.6749 11.2906C28.3363 11.2906 27.2512 12.3758 27.2512 13.7143C27.2512 15.0528 28.3363 16.1379 29.6749 16.1379Z" fill="#4E1ABA"/>
<path d="M3.60591 28.8472V26.6009L4.01971 20.0393L0.17734 15.2511C0.0591133 16.1378 0 17.0836 0 18.0294" fill="#DDCCFF"/>
<path d="M29.6158 27.192L29.202 32.1575C29.4975 31.9211 29.8522 31.6255 30.1478 31.3891L29.7931 27.2511H29.6158V27.192Z" fill="#DDCCFF"/>
<path d="M18.0887 27.192L17.3202 35.9999C17.5566 35.9999 17.7931 35.9999 18.0296 35.9999C18.3842 35.9999 18.6798 35.9999 19.0345 35.9999L18.2069 27.192H18.0887Z" fill="#DDCCFF"/>
<path d="M6.56156 27.192L6.20688 31.6255C6.50245 31.9211 6.85712 32.1575 7.2118 32.394L6.7389 27.192H6.56156Z" fill="#DDCCFF"/>
<path d="M34.5813 13.4186L31.4483 17.1428C31.4483 15.8423 31.0345 16.7881 29.734 16.7881H29.6158C28.3744 16.7881 27.9015 15.9014 27.9015 17.1428L24.8276 13.5368C24.7685 13.4777 24.7094 13.4186 24.6502 13.3595C24.4138 13.1822 24.1773 13.0639 23.9409 13.0639C23.6453 13.0639 23.3498 13.1822 23.1133 13.4777L19.9212 17.1428C19.9212 15.8423 19.5074 16.7881 18.2069 16.7881H18.0887C16.8473 16.7881 16.3744 15.9014 16.3744 17.1428L13.2414 13.5368C13.1823 13.4777 13.1823 13.4777 13.1232 13.4186L13.064 13.3595C12.8276 13.1822 12.5911 13.0639 12.3547 13.0639C12.0591 13.0639 11.7635 13.1822 11.5271 13.4777L8.39409 17.1428C8.39409 15.8423 7.98029 16.7881 6.6798 16.7881H6.56157C5.3202 16.7881 4.84729 15.9014 4.84729 17.1428L1.7734 13.5368C1.53694 13.2413 1.24138 13.123 0.94581 13.123C0.827583 13.123 0.76847 13.123 0.709357 13.1822C0.532017 13.8324 0.354677 14.5418 0.23645 15.2511L4.07881 20.0393L3.60591 26.5418V28.7881C4.37438 29.793 5.26108 30.7388 6.20689 31.5664L6.56157 27.1329H6.6798L7.15271 32.3349C7.92118 32.926 8.80788 33.458 9.69458 33.9309V26.5418L9.28079 19.9211L12.4138 16.0196L15.6059 19.9802L15.1921 26.5418V35.7634C15.9015 35.8817 16.6699 35.9408 17.3793 35.9999L18.0887 27.192H18.2069L18.9754 35.9999C19.7438 35.9408 20.4532 35.8817 21.1626 35.7634V26.6009L20.7488 19.9802L23.8818 16.0787L27.0739 20.0393L26.6601 26.6009V33.8718C27.5468 33.3989 28.4335 32.8078 29.202 32.1575L29.6158 27.192H29.734L30.0887 31.3299C31.0345 30.4432 31.9212 29.4383 32.6897 28.3743V26.5418L32.2759 19.9211L35.8227 15.4876C35.7044 14.66 35.5271 13.8324 35.2906 13.0048C35.0542 13.0639 34.7586 13.1822 34.5813 13.4186Z" fill="#4E1ABA"/>
</g>
<defs>
<clipPath id="clip0">
<rect width="36" height="36" fill="white"/>
</clipPath>
</defs>
</svg>
