<svg width="35" height="35" viewBox="0 0 35 35" fill="none" xmlns="http://www.w3.org/2000/svg">
<path d="M17.5 25.1155C16.6672 25.1155 15.9914 25.7914 15.9914 26.6241C15.9914 27.4569 16.6672 28.1328 17.5 28.1328C18.3328 28.1328 19.0086 27.4569 19.0086 26.6241C19.0086 25.7914 18.3328 25.1155 17.5 25.1155ZM35 17.5C35 27.1672 27.1672 35 17.5 35C7.83276 35 0 27.1672 0 17.5C0 7.83276 7.83276 0 17.5 0C27.1552 0.012069 34.9879 7.84483 35 17.5Z" fill="#FF0060"/>
<path d="M19.6966 9.19649L19.0811 20.662C19.0328 21.531 18.2845 22.2068 17.4155 22.1586C16.6069 22.1103 15.9552 21.4706 15.919 20.662L15.3035 9.19649C15.2311 7.97752 16.1724 6.93959 17.3793 6.87925C18.5983 6.8189 19.6362 7.74821 19.6966 8.95511C19.7086 9.03959 19.7086 9.12407 19.6966 9.19649Z" fill="white"/>
</svg>
