<svg width="19" height="20" viewBox="0 0 19 20" fill="none" xmlns="http://www.w3.org/2000/svg">
<g clip-path="url(#clip0)">
<path d="M14.6054 1.47321L14.6054 3.55821C13.3588 3.91227 12.4628 5.07279 12.4628 6.43001C12.4628 7.78723 13.3783 8.94775 14.6054 9.3018L14.6054 18.527C14.6054 18.9794 14.9755 19.3334 15.404 19.3334C15.8325 19.3334 16.2026 18.9597 16.2026 18.527L16.2026 9.3018C17.4492 8.94775 18.3452 7.78723 18.3452 6.43001C18.3452 5.07279 17.4297 3.91227 16.2026 3.55821L16.2026 1.47321C16.2026 1.0208 15.8325 0.666748 15.404 0.666748C14.9755 0.666748 14.6054 1.04047 14.6054 1.47321ZM16.7675 6.43001C16.7675 7.17746 16.1637 7.78723 15.4235 7.78723C14.6833 7.78723 14.0795 7.17746 14.0795 6.43001C14.0795 5.68255 14.6833 5.07279 15.4235 5.07279C16.1637 5.07279 16.7675 5.68255 16.7675 6.43001Z" fill="#DB8F00" stroke="#DB8F00" stroke-width="0.6"/>
<path d="M10.6321 18.5466L10.6321 16.4616C11.8787 16.1076 12.7747 14.947 12.7747 13.5898C12.7747 12.2326 11.8592 11.0721 10.6321 10.718L10.6321 1.47321C10.6321 1.0208 10.262 0.666748 9.83347 0.666748C9.40496 0.666748 9.03487 1.04047 9.03487 1.47321L9.03487 10.6984C7.78828 11.0524 6.89229 12.2129 6.89229 13.5702C6.89229 14.9274 7.80776 16.0879 9.03487 16.442L9.03487 18.527C9.03487 18.9794 9.40496 19.3334 9.83347 19.3334C10.262 19.3334 10.6321 18.9794 10.6321 18.5466ZM8.48949 13.5898C8.48949 12.8424 9.09331 12.2326 9.83347 12.2326C10.5736 12.2326 11.1775 12.8424 11.1775 13.5898C11.1775 14.3373 10.5736 14.947 9.83347 14.947C9.09331 14.947 8.48949 14.3373 8.48949 13.5898Z" fill="#DB8F00" stroke="#DB8F00" stroke-width="0.6"/>
<path d="M5.06128 18.5466L5.06128 9.3018C6.30787 8.94775 7.20386 7.78723 7.20386 6.43001C7.20386 5.07279 6.28839 3.91227 5.06128 3.55821L5.06128 1.47321C5.06128 1.0208 4.69119 0.666748 4.26268 0.666748C3.81468 0.666748 3.46408 1.04047 3.46408 1.47321L3.46408 3.55821C2.21748 3.91227 1.32149 5.07279 1.32149 6.43001C1.32149 7.78723 2.23696 8.94775 3.46408 9.3018L3.46408 18.527C3.46408 18.9794 3.83416 19.3334 4.26268 19.3334C4.69119 19.3531 5.06128 18.9794 5.06128 18.5466ZM2.89921 6.43001C2.89921 5.68255 3.50303 5.07279 4.2432 5.07279C4.98336 5.07279 5.58718 5.68255 5.58718 6.43001C5.58718 7.17746 4.98336 7.78723 4.2432 7.78723C3.50303 7.78723 2.89921 7.17746 2.89921 6.43001Z" fill="#DB8F00" stroke="#DB8F00" stroke-width="0.6"/>
</g>
<defs>
<clipPath id="clip0">
<rect width="20" height="18.3333" fill="white" transform="translate(19) rotate(90)"/>
</clipPath>
</defs>
</svg>
