<svg width="34" height="33" viewBox="0 0 34 33" fill="none" xmlns="http://www.w3.org/2000/svg">
<circle cx="17.0303" cy="16.0493" r="16" fill="white"/>
<path d="M26.2429 23.7147L7.21821 23.6853C5.99776 23.6834 5.00767 22.698 5.00954 21.4871L5.02689 10.2441C5.02876 9.0332 6.02189 8.05085 7.24233 8.05273L26.2671 8.08209C27.4875 8.08397 28.4776 9.06939 28.4757 10.2803L28.4584 21.5233C28.4565 22.7342 27.466 23.7165 26.2429 23.7147Z" fill="white"/>
<path d="M8.55942 9.05168C8.36318 9.05137 8.17453 9.08648 8.00112 9.15449L16.9503 16.7065C17.2736 16.9775 17.6788 16.9782 18.0029 16.7081L26.9575 9.18374C26.7843 9.11773 26.5957 9.07951 26.3995 9.07921L8.55942 9.05168ZM7.04356 10.3466C7.03326 10.4174 7.02805 10.4932 7.02793 10.5691L7.01232 20.684C7.01199 20.8964 7.05245 21.1013 7.13117 21.286L13.3609 15.6692L7.04356 10.3466ZM27.9088 10.3788L21.5929 15.6693L27.7874 21.3128C27.8667 21.1283 27.9078 20.9261 27.9081 20.7112L27.9237 10.5963C27.9264 10.5255 27.9189 10.4496 27.9088 10.3788ZM20.4215 16.6562L18.9848 17.8627C18.1146 18.5922 16.8276 18.5902 15.9571 17.858L14.5343 16.6547L8.39387 22.1932C8.43974 22.1984 8.49071 22.201 8.53658 22.201L26.3766 22.2286C26.4276 22.2287 26.4786 22.2262 26.527 22.2212L20.4215 16.6562Z" fill="#DB8F00"/>
</svg>
