<svg width="12" height="18" viewBox="0 0 12 18" fill="none" xmlns="http://www.w3.org/2000/svg">
<path d="M2.32091 17.2174C1.36492 17.2202 0.587669 16.4232 0.584961 15.4429V4.77649H11.4177V15.4429C11.415 16.4232 10.6378 17.2202 9.68177 17.2174H2.32091Z" fill="#7533FF"/>
<path d="M8.69491 8.32296L6.84385 10.174L8.69491 12.0251C8.92793 12.2581 8.92779 12.6358 8.69491 12.8687C8.4619 13.1017 8.08416 13.1016 7.85129 12.8687L6.00008 11.0176L4.14888 12.8687C3.91587 13.1017 3.53813 13.1017 3.30525 12.8687C3.07224 12.6357 3.07224 12.258 3.30525 12.0251L5.15646 10.174L3.30539 8.32268C3.07238 8.08967 3.07252 7.71195 3.30539 7.47908C3.4219 7.36258 3.57448 7.30433 3.72721 7.30433C3.87993 7.30433 4.03251 7.36258 4.14902 7.47908L5.99994 9.33022L7.85115 7.47922C7.96766 7.36272 8.12024 7.30447 8.27296 7.30447C8.42568 7.30447 8.57827 7.36272 8.69477 7.47922C8.92779 7.71223 8.92779 8.08995 8.69491 8.32296Z" fill="white"/>
<path d="M11.2715 2.55484H11.1902H8.62016V1.46903C8.61746 0.658148 7.97832 0.002777 7.18753 0H4.81516C4.02437 0.002777 3.38524 0.658148 3.38253 1.46903V2.55484H0.812457H0.731211C0.327691 2.55484 0 2.89085 0 3.30463V3.36572C0 3.77949 0.327691 4.11551 0.731211 4.11551H11.2688C11.6723 4.11551 12 3.77949 12 3.36572V3.30463C12.0027 2.89085 11.675 2.55484 11.2715 2.55484ZM4.4658 1.75229C4.4658 1.55512 4.62288 1.39405 4.81516 1.39405H7.18753C7.37981 1.39405 7.53689 1.55512 7.53689 1.75229V2.55484H4.4658V1.75229Z" fill="#7533FF"/>
</svg>
