<svg width="32" height="32" viewBox="0 0 32 32" fill="none" xmlns="http://www.w3.org/2000/svg">
<circle cx="16" cy="16" r="16" fill="#DB8F00"/>
<path d="M22.6043 12.3074L18.4113 16.5002L22.6043 20.6933C23.1321 21.2211 23.1318 22.0767 22.6043 22.6042C22.0764 23.1319 21.2208 23.1316 20.6933 22.6042L16.5001 18.411L12.3068 22.6042C11.779 23.1319 10.9234 23.1319 10.3959 22.6042C9.86805 22.0764 9.86805 21.2208 10.3959 20.6933L14.5891 16.5002L10.3962 12.3067C9.86836 11.7789 9.86868 10.9233 10.3962 10.3958C10.6601 10.1319 11.0057 10 11.3516 10C11.6976 10 12.0432 10.1319 12.3071 10.3958L16.4997 14.589L20.693 10.3962C20.9569 10.1323 21.3025 10.0003 21.6485 10.0003C21.9944 10.0003 22.34 10.1323 22.6039 10.3962C23.1318 10.924 23.1318 11.7796 22.6043 12.3074Z" fill="white"/>
</svg>
