<svg width="32" height="32" viewBox="0 0 32 32" fill="none" xmlns="http://www.w3.org/2000/svg">
<circle cx="16" cy="16" r="16" fill="#00B2DB"/>
<path d="M23.281 18.0587L17.3514 18.0586L17.3513 23.9885C17.3513 24.7349 16.7461 25.3397 16.0001 25.3397C15.2537 25.3397 14.6489 24.7344 14.6488 23.9884L14.6487 18.0584L8.71868 18.0583C7.97225 18.0583 7.36723 17.4532 7.36744 16.707C7.36743 15.9606 7.97243 15.3556 8.71863 15.3558L14.6487 15.3559L14.649 9.42588C14.649 8.67945 15.2543 8.07468 16.0002 8.07469C16.3735 8.0747 16.7111 8.22579 16.9558 8.4704C17.2004 8.71502 17.3515 9.05271 17.3515 9.42593L17.3511 15.3555L23.281 15.3559C23.6542 15.3559 23.9919 15.507 24.2365 15.7516C24.4811 15.9962 24.6322 16.3339 24.6322 16.7071C24.6322 17.4535 24.0272 18.0585 23.281 18.0587Z" fill="white"/>
</svg>
