<svg width="35" height="35" viewBox="0 0 35 35" fill="none" xmlns="http://www.w3.org/2000/svg">
<path d="M35 17.5C35 27.1672 27.1672 35 17.5 35C7.83276 35 0 27.1672 0 17.5C0 7.83276 7.83276 0 17.5 0C27.1552 0.012069 34.9879 7.84483 35 17.5Z" fill="#420FAB"/>
<path d="M20.0865 9.19649L19.471 20.662C19.4227 21.531 18.6744 22.2068 17.8054 22.1586C16.9968 22.1103 16.3451 21.4706 16.3089 20.662L15.6934 9.19649C15.621 7.97752 16.5623 6.93959 17.7692 6.87925C18.9882 6.8189 20.0261 7.74821 20.0865 8.95511C20.0985 9.03959 20.0985 9.12407 20.0865 9.19649Z" fill="white"/>
<path d="M19.9137 25.948C19.9137 26.9479 19.1031 27.7584 18.1033 27.7584C17.1035 27.7584 16.293 26.9479 16.293 25.948C16.293 24.9482 17.1035 24.1377 18.1033 24.1377C19.1031 24.1377 19.9137 24.9482 19.9137 25.948Z" fill="white"/>
</svg>
