<svg width="32" height="32" viewBox="0 0 32 32" fill="none" xmlns="http://www.w3.org/2000/svg">
<circle cx="16" cy="16" r="16" fill="#E1E7F7"/>
<g clip-path="url(#clip0)">
<path fill-rule="evenodd" clip-rule="evenodd" d="M15.9999 10.2253C19.1332 10.2253 21.6666 12.7154 21.6666 15.7951C21.6666 17.3023 21.0666 18.6783 19.9999 19.6612C19.3999 20.3165 19.0666 21.1028 19.0666 22.0202V22.5444C19.0666 22.8721 18.7999 23.0686 18.4666 23.0686H13.4666C13.1333 23.0686 12.9333 22.8721 12.9333 22.5444V22.0202C12.9333 21.1028 12.5999 20.3165 11.9333 19.6612C10.9333 18.6783 10.3333 17.3023 10.3333 15.7951C10.3333 12.7154 12.8666 10.2253 15.9999 10.2253Z" fill="#4D6EC5"/>
<path d="M15.333 4.65527C15.333 4.26211 15.5997 4 15.9997 4C16.333 4 16.6663 4.26211 16.6663 4.65527V7.40741C16.6663 7.80057 16.333 8.06268 15.9997 8.06268C15.5997 8.06268 15.333 7.80057 15.333 7.40741V4.65527Z" fill="#4D6EC5"/>
<path d="M23.533 7.47295C23.7997 7.21084 24.1997 7.21084 24.4663 7.47295C24.733 7.73506 24.733 8.12822 24.4663 8.39033L22.4663 10.3561C22.1997 10.6182 21.7997 10.6182 21.533 10.3561C21.2663 10.094 21.2663 9.63534 21.533 9.43876L23.533 7.47295Z" fill="#4D6EC5"/>
<path d="M27.3336 15.1394C27.667 15.1394 28.0003 15.4015 28.0003 15.7947C28.0003 16.1223 27.667 16.4499 27.3336 16.4499H24.467C24.1336 16.4499 23.8003 16.1223 23.8003 15.7947C23.8003 15.4015 24.1336 15.1394 24.467 15.1394H27.3336Z" fill="#4D6EC5"/>
<path d="M7.53325 8.39033C7.26659 8.12822 7.26659 7.73506 7.53325 7.47295C7.79992 7.21084 8.19992 7.21084 8.46658 7.47295L10.4666 9.43876C10.7332 9.63534 10.7332 10.094 10.4666 10.3561C10.1999 10.6182 9.73325 10.6182 9.53325 10.3561L7.53325 8.39033Z" fill="#4D6EC5"/>
<path d="M4.66667 16.4499C4.26667 16.4499 4 16.1223 4 15.7947C4 15.4015 4.26667 15.1394 4.66667 15.1394H7.46667C7.86667 15.1394 8.13333 15.4015 8.13333 15.7947C8.13333 16.1223 7.86667 16.4499 7.46667 16.4499H4.66667Z" fill="#4D6EC5"/>
<path d="M13.6667 25.0342C13.3333 25.0342 13 24.7721 13 24.3789C13 24.0513 13.3333 23.7236 13.6667 23.7236H18.2667C18.6667 23.7236 18.9333 24.0513 18.9333 24.3789C18.9333 24.7721 18.6667 25.0342 18.2667 25.0342H13.6667Z" fill="#4D6EC5"/>
<path d="M13.6667 27C13.3333 27 13 26.6724 13 26.3447C13 25.9516 13.3333 25.6895 13.6667 25.6895H18.2667C18.6667 25.6895 18.9333 25.9516 18.9333 26.3447C18.9333 26.6724 18.6667 27 18.2667 27H13.6667Z" fill="#4D6EC5"/>
</g>
<defs>
<clipPath id="clip0">
<rect width="24" height="23" fill="white" transform="translate(4 4)"/>
</clipPath>
</defs>
</svg>
