<svg width="32" height="32" viewBox="0 0 32 32" fill="none" xmlns="http://www.w3.org/2000/svg">
<circle cx="16" cy="16" r="16" fill="white"/>
<g clip-path="url(#clip0)">
<path fill-rule="evenodd" clip-rule="evenodd" d="M15.9997 10.2251C19.133 10.2251 21.6663 12.7151 21.6663 15.7949C21.6663 17.302 21.0663 18.6781 19.9997 19.661C19.3997 20.3163 19.0663 21.1026 19.0663 22.02V22.5442C19.0663 22.8718 18.7997 23.0684 18.4663 23.0684H13.4663C13.133 23.0684 12.933 22.8718 12.933 22.5442V22.02C12.933 21.1026 12.5997 20.3163 11.933 19.661C10.933 18.6781 10.333 17.302 10.333 15.7949C10.333 12.7151 12.8663 10.2251 15.9997 10.2251Z" fill="#DB8F00"/>
<path d="M15.333 4.65527C15.333 4.26211 15.5997 4 15.9997 4C16.333 4 16.6663 4.26211 16.6663 4.65527V7.40741C16.6663 7.80057 16.333 8.06268 15.9997 8.06268C15.5997 8.06268 15.333 7.80057 15.333 7.40741V4.65527Z" fill="#DB8F00"/>
<path d="M23.533 7.47295C23.7997 7.21084 24.1997 7.21084 24.4663 7.47295C24.733 7.73506 24.733 8.12822 24.4663 8.39033L22.4663 10.3561C22.1997 10.6182 21.7997 10.6182 21.533 10.3561C21.2663 10.094 21.2663 9.63534 21.533 9.43876L23.533 7.47295Z" fill="#DB8F00"/>
<path d="M27.3331 15.1396C27.6665 15.1396 27.9998 15.4018 27.9998 15.7949C27.9998 16.1226 27.6665 16.4502 27.3331 16.4502H24.4665C24.1331 16.4502 23.7998 16.1226 23.7998 15.7949C23.7998 15.4018 24.1331 15.1396 24.4665 15.1396H27.3331Z" fill="#DB8F00"/>
<path d="M7.53301 8.39033C7.26634 8.12822 7.26634 7.73506 7.53301 7.47295C7.79967 7.21084 8.19967 7.21084 8.46634 7.47295L10.4663 9.43876C10.733 9.63534 10.733 10.094 10.4663 10.3561C10.1997 10.6182 9.73301 10.6182 9.53301 10.3561L7.53301 8.39033Z" fill="#DB8F00"/>
<path d="M4.66667 16.4502C4.26667 16.4502 4 16.1226 4 15.7949C4 15.4018 4.26667 15.1396 4.66667 15.1396H7.46667C7.86667 15.1396 8.13333 15.4018 8.13333 15.7949C8.13333 16.1226 7.86667 16.4502 7.46667 16.4502H4.66667Z" fill="#DB8F00"/>
<path d="M13.6667 25.0342C13.3333 25.0342 13 24.7721 13 24.3789C13 24.0513 13.3333 23.7236 13.6667 23.7236H18.2667C18.6667 23.7236 18.9333 24.0513 18.9333 24.3789C18.9333 24.7721 18.6667 25.0342 18.2667 25.0342H13.6667Z" fill="#DB8F00"/>
<path d="M13.6667 27C13.3333 27 13 26.6724 13 26.3447C13 25.9516 13.3333 25.6895 13.6667 25.6895H18.2667C18.6667 25.6895 18.9333 25.9516 18.9333 26.3447C18.9333 26.6724 18.6667 27 18.2667 27H13.6667Z" fill="#DB8F00"/>
</g>
<defs>
<clipPath id="clip0">
<rect width="24" height="23" fill="white" transform="translate(4 4)"/>
</clipPath>
</defs>
</svg>
