<svg width="50" height="50" viewBox="0 0 50 50" fill="none" xmlns="http://www.w3.org/2000/svg">
<circle cx="25" cy="25" r="25" fill="#FFA600"/>
<g clip-path="url(#clip0)">
<path fill-rule="evenodd" clip-rule="evenodd" d="M24.9997 15.9771C29.8955 15.9771 33.8538 19.8677 33.8538 24.6799C33.8538 27.0347 32.9163 29.1848 31.2497 30.7206C30.3122 31.7445 29.7913 32.9731 29.7913 34.4065V35.2256C29.7913 35.7376 29.3747 36.0447 28.8538 36.0447H21.0413C20.5205 36.0447 20.208 35.7376 20.208 35.2256V34.4065C20.208 32.9731 19.6872 31.7445 18.6455 30.7206C17.083 29.1848 16.1455 27.0347 16.1455 24.6799C16.1455 19.8677 20.1038 15.9771 24.9997 15.9771Z" fill="white"/>
<path d="M23.958 7.27386C23.958 6.65954 24.3747 6.25 24.9997 6.25C25.5205 6.25 26.0414 6.65954 26.0414 7.27386V11.5741C26.0414 12.1884 25.5205 12.5979 24.9997 12.5979C24.3747 12.5979 23.958 12.1884 23.958 11.5741V7.27386Z" fill="white"/>
<path d="M36.7705 11.6763C37.1872 11.2668 37.8122 11.2668 38.2288 11.6763C38.6455 12.0858 38.6455 12.7002 38.2288 13.1097L35.1038 16.1813C34.6872 16.5908 34.0622 16.5908 33.6455 16.1813C33.2288 15.7717 33.2288 15.055 33.6455 14.7479L36.7705 11.6763Z" fill="white"/>
<path d="M42.7083 23.6553C43.2292 23.6553 43.75 24.0648 43.75 24.6791C43.75 25.1911 43.2292 25.703 42.7083 25.703H38.2292C37.7083 25.703 37.1875 25.1911 37.1875 24.6791C37.1875 24.0648 37.7083 23.6553 38.2292 23.6553H42.7083Z" fill="white"/>
<path d="M11.7705 13.1097C11.3538 12.7002 11.3538 12.0858 11.7705 11.6763C12.1872 11.2668 12.8122 11.2668 13.2288 11.6763L16.3538 14.7479C16.7705 15.055 16.7705 15.7717 16.3538 16.1813C15.9372 16.5908 15.208 16.5908 14.8955 16.1813L11.7705 13.1097Z" fill="white"/>
<path d="M7.29167 25.703C6.66667 25.703 6.25 25.1911 6.25 24.6791C6.25 24.0648 6.66667 23.6553 7.29167 23.6553H11.6667C12.2917 23.6553 12.7083 24.0648 12.7083 24.6791C12.7083 25.1911 12.2917 25.703 11.6667 25.703H7.29167Z" fill="white"/>
<path d="M21.3542 39.1161C20.8333 39.1161 20.3125 38.7065 20.3125 38.0922C20.3125 37.5803 20.8333 37.0684 21.3542 37.0684H28.5417C29.1667 37.0684 29.5833 37.5803 29.5833 38.0922C29.5833 38.7065 29.1667 39.1161 28.5417 39.1161H21.3542Z" fill="white"/>
<path d="M21.3542 42.1874C20.8333 42.1874 20.3125 41.6754 20.3125 41.1635C20.3125 40.5492 20.8333 40.1396 21.3542 40.1396H28.5417C29.1667 40.1396 29.5833 40.5492 29.5833 41.1635C29.5833 41.6754 29.1667 42.1874 28.5417 42.1874H21.3542Z" fill="white"/>
</g>
<defs>
<clipPath id="clip0">
<rect width="37.5" height="35.9375" fill="white" transform="translate(6.25 6.25)"/>
</clipPath>
</defs>
</svg>
