<svg width="30" height="31" viewBox="0 0 30 31" fill="none" xmlns="http://www.w3.org/2000/svg">
<path d="M30 24.383H24.3826V30.0097L18.3151 23.9422C21.0441 23.2295 23.4354 21.6727 25.1704 19.5439L30 24.383ZM4.82963 19.5533L0 24.383H5.62676V30.0097L11.6849 23.9422C8.95592 23.2295 6.56455 21.6727 4.82963 19.5533Z" fill="#4D6EC5"/>
<path d="M15.0045 0C8.78693 0 3.75098 5.04533 3.75098 11.2535C3.75098 17.4711 8.78693 22.507 15.0045 22.507C21.2127 22.507 26.258 17.4711 26.258 11.2535C26.258 5.04533 21.2127 0 15.0045 0ZM20.8001 10.2126L18.2305 12.7165C18.1555 12.7821 18.1273 12.8853 18.1461 12.9791L18.7557 16.5145C18.8026 16.7584 18.54 16.9459 18.3149 16.8334L15.1452 15.1641C15.0608 15.1172 14.9482 15.1172 14.8638 15.1641L11.6941 16.8334C11.469 16.9459 11.2158 16.7584 11.2533 16.5145L11.8629 12.9791C11.8816 12.8853 11.8441 12.7821 11.7785 12.7165L9.20893 10.2126C9.03075 10.0344 9.12453 9.73429 9.37774 9.69678L12.9226 9.18099C13.0164 9.16224 13.1102 9.10597 13.1477 9.01219L14.7325 5.79556C14.8451 5.57049 15.1639 5.57049 15.2765 5.79556L16.8613 9.01219C16.9082 9.09659 16.9926 9.16224 17.0864 9.18099L20.6313 9.69678C20.8845 9.73429 20.9782 10.0438 20.8001 10.2126Z" fill="#4D6EC5"/>
<path d="M20.8003 10.2128L18.2307 12.7167C18.1557 12.7823 18.1276 12.8855 18.1463 12.9793L18.7559 16.5147C18.8028 16.7586 18.5402 16.9461 18.3151 16.8336L15.1454 15.1643C15.061 15.1174 14.9485 15.1174 14.8641 15.1643L11.6943 16.8336C11.4692 16.9461 11.216 16.7586 11.2536 16.5147L11.8631 12.9793C11.8819 12.8855 11.8444 12.7823 11.7787 12.7167L9.20916 10.2128C9.03098 10.0346 9.12476 9.73449 9.37797 9.69697L12.9228 9.18119C13.0166 9.16243 13.1104 9.10617 13.1479 9.01239L14.7328 5.79576C14.8453 5.57069 15.1642 5.57069 15.2767 5.79576L16.8616 9.01239C16.9084 9.09679 16.9928 9.16243 17.0866 9.18119L20.6315 9.69697C20.8847 9.73449 20.9785 10.044 20.8003 10.2128Z" fill="white"/>
</svg>
