<svg width="30" height="30" viewBox="0 0 30 30" fill="none" xmlns="http://www.w3.org/2000/svg">
<path d="M15 0C6.71667 0 0 6.71246 0 14.9906C0 23.2688 6.71667 29.9812 15 29.9812C23.2833 29.9812 30 23.2688 30 14.9906C30 6.71246 23.2867 0 15 0ZM23.2333 19.7343C23.2333 19.8276 23.1967 19.9009 23.14 19.9575C23.0833 20.0308 23.14 19.9941 23.0467 19.9941H20.6367V21.6631C20.6367 21.9229 20.6 22.1261 20.4133 22.3127C20.2267 22.4992 20.0067 22.5892 19.7467 22.5892H10.2333C9.97333 22.5892 9.75 22.4959 9.56667 22.3127C9.38333 22.1295 9.34333 21.9229 9.34333 21.6631V20.1807H7.11666C7.02333 20.1807 6.74666 19.8276 6.76333 19.7343V15.6202C6.76333 15.1005 6.95 14.6575 7.32 14.2844C7.69 13.9146 8.13667 13.7281 8.65667 13.7281L9.34333 13.6914V8.31812C9.34333 8.05829 9.38 7.85508 9.56667 7.66853C9.75333 7.48198 9.97333 7.39204 10.2333 7.39204H16.91C17.17 7.39204 17.4667 7.46532 17.7633 7.57859C18.08 7.70851 18.3367 7.87507 18.5233 8.06162L20.0267 9.56401C20.2133 9.75056 20.38 10.0104 20.51 10.3235C20.66 10.64 20.66 11.0264 20.66 11.2863V13.6948L21.3467 13.7314C21.8667 13.7314 22.31 13.9179 22.6833 14.2877C23.0533 14.6575 23.24 15.1039 23.24 15.6235V19.7343H23.2333Z" fill="#FF6EA4"/>
</svg>
