<svg width="40" height="41" viewBox="0 0 40 41" fill="none" xmlns="http://www.w3.org/2000/svg">
<g clip-path="url(#clip0)">
<path d="M20.3054 40.0145C31.1821 40.0145 39.9995 31.057 39.9995 20.0073C39.9995 8.95756 31.1821 0 20.3054 0C9.42866 0 0.611328 8.95756 0.611328 20.0073C0.611328 31.057 9.42866 40.0145 20.3054 40.0145Z" fill="#FFE1A8"/>
<path d="M28.8523 32.7725H38.8013C39.3485 32.7725 39.7962 33.0807 39.7962 33.4598V40.3175C39.7962 40.6965 39.3485 41.0048 38.8013 41.0048H28.8523C28.3051 41.0048 27.8574 40.6965 27.8574 40.3175V33.4598C27.8574 33.0807 28.3051 32.7725 28.8523 32.7725Z" fill="#FFBF47"/>
<path d="M0.994901 30.0283H10.9439C11.4911 30.0283 11.9388 30.3366 11.9388 30.7156V40.3124C11.9388 40.6915 11.4911 40.9997 10.9439 40.9997H0.994901C0.447705 40.9997 0 40.6915 0 40.3124V30.7156C0 30.3366 0.447705 30.0283 0.994901 30.0283Z" fill="#FFA600"/>
<path d="M14.9226 25.915H24.8716C25.4188 25.915 25.8665 26.2233 25.8665 26.6023V40.3128C25.8665 40.6918 25.4188 41.0001 24.8716 41.0001H14.9226C14.3754 41.0001 13.9277 40.6918 13.9277 40.3128V26.6023C13.9277 26.2233 14.3754 25.915 14.9226 25.915Z" fill="#DB8F00"/>
<path d="M20.529 4.44221L22.3696 8.22737C22.5238 8.54069 22.8173 8.75799 23.1555 8.80853L27.2695 9.41496C28.1251 9.54131 28.4683 10.6127 27.8465 11.2242L24.8718 14.1755C24.623 14.418 24.5136 14.7718 24.5733 15.1154L25.2747 19.2746C25.4189 20.1438 24.5235 20.8058 23.7575 20.3965L20.0813 18.4306C19.7779 18.2689 19.4147 18.2689 19.1063 18.4306L15.4301 20.3965C14.6641 20.8058 13.7687 20.1438 13.9129 19.2746L14.6143 15.1154C14.674 14.7718 14.5596 14.418 14.3159 14.1755L11.3411 11.2292C10.7193 10.6127 11.0625 9.54636 11.9181 9.42002L16.0321 8.81358C16.3703 8.76305 16.6688 8.54574 16.818 8.23242L18.6586 4.44726C19.0367 3.65384 20.146 3.65384 20.529 4.44221Z" fill="#FFA600"/>
</g>
<defs>
<clipPath id="clip0">
<rect width="40" height="41" fill="white"/>
</clipPath>
</defs>
</svg>
