<svg width="36" height="36" viewBox="0 0 36 36" fill="none" xmlns="http://www.w3.org/2000/svg">
<g opacity="0.5" clip-path="url(#clip0)">
<path d="M18.0296 36C27.9606 36 36.0591 27.9606 36.0591 17.9704C36 8.03941 27.9606 0 18.0296 0C8.03941 0 0 8.03941 0 18.0296C0 27.9606 8.03941 36 18.0296 36Z" fill="#DDCCFF"/>
<path d="M25.2414 18.5026V18.4435H25.3005H25.2414V18.5026Z" fill="#DDCCFF"/>
<path d="M14.2463 31.4482C12.532 31.7438 10.3448 32.0985 8.2167 33.1034C10.5812 34.8177 14.4827 36.0591 17.8522 36.0591C21.399 36.0591 25.1822 34.9359 27.7832 32.9852C25.3004 32.0394 23.1133 31.6847 22.1083 31.5074C22.1083 31.4482 22.1083 31.4482 22.1083 31.3891C22.1674 31.2709 22.1674 31.2709 22.1674 31.2709L21.9901 29.3793H22.0492C22.6403 29.2611 23.2315 29.0246 23.7635 28.6699C25.6551 27.4285 26.2463 25.0049 26.1871 22.6404C26.1871 22.4039 26.1871 22.1675 26.1871 21.931C26.128 21.7537 26.128 21.5763 26.0689 21.399C25.9507 20.3941 25.6551 19.3891 25.3596 18.5615H25.3004H25.3596C25.3596 18.5615 25.7142 15.0739 23.9408 13.2413C25.1231 11.9409 24.7684 10.995 24.2955 10.0492C24 9.45809 23.2906 9.28075 23.1724 9.28075C22.1083 9.0443 21.7536 8.57139 20.9261 10.0492C20.5714 8.33494 19.0344 7.92115 17.3201 8.33494C14.4236 8.92607 14.1871 9.99011 14.1871 9.99011C14.1871 9.99011 12.2364 9.10341 10.7586 10.6995C8.86695 12.7684 8.92606 13.8916 8.27581 14.7783C7.92113 15.2512 7.92113 15.8423 7.92113 16.0788C7.86202 17.7931 10.2266 21.1625 11.4088 22.8177C10.7586 23.6453 10.5812 24.7684 11.1133 25.7734C11.7635 26.9556 13.1822 27.4285 14.4236 26.9556C14.1871 28.3152 14.2463 29.8522 14.2463 31.4482Z" fill="#4E1ABA"/>
<path d="M21.4581 15.192C21.4581 14.4827 21.1034 13.8915 20.5123 13.596C20.2167 13.0048 19.5665 12.6502 18.9162 12.6502C18.8571 12.6502 18.7389 12.6502 18.6798 12.6502C18.5024 12.3546 18.1477 12.1773 17.7931 12.1773C17.6748 12.1773 17.4975 12.1773 17.3793 12.2364C17.2019 12.059 16.9064 11.9408 16.6108 11.9408C16.4335 11.9408 16.2561 11.9999 16.0788 12.059C15.9605 11.8817 15.7832 11.8226 15.5468 11.8226C15.3103 11.8226 15.0738 11.9408 14.9556 12.1773C14.8374 12.1773 14.7192 12.1181 14.5418 12.1181C13.8916 12.1181 13.3004 12.4728 13.0049 12.9457C12.4137 13.1231 11.9408 13.6551 11.7635 14.3053C11.1133 14.6009 10.6995 15.2511 10.6995 16.0196C10.6995 16.197 10.6995 16.3152 10.7586 16.4925C10.6995 16.6699 10.6995 16.7881 10.6995 16.9654C10.6995 17.3201 10.8177 17.6748 10.995 17.9704C11.1133 18.4433 11.527 18.7979 12 18.8571C12.0591 19.4482 12.532 19.862 13.1231 19.862C13.3004 19.862 13.5369 19.8029 13.6551 19.6846C13.7734 19.862 14.0098 19.9802 14.2463 19.9802C14.2463 19.9802 14.6601 20.0984 15.0738 19.862C15.4876 19.6846 15.5468 19.33 15.5468 19.33C16.0197 19.1526 16.3743 18.7979 16.6108 18.3841C16.9064 18.5615 17.261 18.6797 17.6748 18.6797C18.3842 18.6797 19.0344 18.2659 19.33 17.6748H19.3891C20.3349 17.6748 21.1034 16.9654 21.2216 16.0196C21.5763 15.6649 21.4581 15.4876 21.4581 15.192Z" fill="#DDCCFF"/>
<path d="M18.5025 13.4777C18.5025 13.4185 18.5616 13.3594 18.6207 13.3594C18.6798 13.3594 18.739 13.4185 18.739 13.4777C18.739 13.8915 19.0936 14.187 19.4483 14.187C19.9803 14.187 20.3941 14.6008 20.3941 15.1328C20.3941 15.1919 20.335 15.2511 20.2759 15.2511C20.2168 15.2511 20.1577 15.1919 20.1577 15.1328C20.1577 14.719 19.8621 14.4235 19.4483 14.4235C18.9163 14.4235 18.5025 14.0097 18.5025 13.4777Z" fill="#4E1ABA" stroke="#4E1ABA" stroke-width="0.75" stroke-miterlimit="10"/>
<path d="M14.8966 13.1235C14.8966 13.1826 14.8375 13.2417 14.7783 13.2417C14.1872 13.2417 13.7143 13.7146 13.7143 14.3057C13.7143 14.3648 13.6552 14.4239 13.5961 14.4239C13.537 14.4239 13.4778 14.3648 13.4778 14.3057C13.4778 13.5964 14.069 13.0643 14.7192 13.0643C14.8375 13.0052 14.8966 13.0643 14.8966 13.1235Z" fill="#4E1ABA" stroke="#4E1ABA" stroke-width="0.75" stroke-miterlimit="10"/>
<path d="M17.8521 14.6603C17.8521 14.6603 17.793 14.6603 17.793 14.6012C17.4383 14.2465 17.0245 14.0692 16.5516 14.0692C16.0787 14.0692 15.6058 14.2465 15.3102 14.6012C15.2511 14.6603 15.192 14.6603 15.1329 14.6012C15.0738 14.5421 15.0738 14.4829 15.1329 14.4238C15.4876 14.0692 16.0196 13.8327 16.5516 13.8327C17.0836 13.8327 17.5565 14.0692 17.9703 14.4238C18.0294 14.4829 18.0294 14.5421 17.9703 14.6012C17.9112 14.6012 17.9112 14.6603 17.8521 14.6603Z" fill="#4E1ABA" stroke="#4E1ABA" stroke-width="0.75" stroke-miterlimit="10"/>
<path d="M13.9507 17.0246C14.2463 16.9064 14.6009 16.9064 14.8965 17.0246C15.1921 17.1429 15.4876 17.3793 15.6059 17.6749C15.6059 17.734 15.6059 17.7931 15.5467 17.7931H15.4876C15.4285 17.7931 15.4285 17.7931 15.3694 17.734C15.2512 17.4975 15.0738 17.2611 14.7783 17.202C14.5418 17.0838 14.2463 17.0838 13.9507 17.202C13.8916 17.202 13.8325 17.202 13.8325 17.1429C13.8916 17.1429 13.8916 17.0838 13.9507 17.0246Z" fill="#4E1ABA" stroke="#4E1ABA" stroke-width="0.75" stroke-miterlimit="10"/>
<path d="M12.532 14.3647C12.532 14.3056 12.532 14.2465 12.5911 14.2465C12.6502 14.2465 12.7093 14.2465 12.7093 14.3056C13.0049 15.3106 14.0689 15.9017 15.133 15.6061C15.665 15.4288 16.2561 15.4879 16.7881 15.7835C17.261 16.079 17.6748 16.4928 17.7931 17.084C17.7931 17.1431 17.7931 17.2022 17.7339 17.2022C17.7339 17.2022 17.7339 17.2022 17.6748 17.2022C17.6157 17.2022 17.6157 17.1431 17.5566 17.1431C17.4384 16.6702 17.0837 16.2564 16.6108 15.9608C16.1379 15.7244 15.665 15.6652 15.133 15.7835C14.0689 16.1973 12.8867 15.547 12.532 14.3647Z" fill="#4E1ABA" stroke="#4E1ABA" stroke-width="0.75" stroke-miterlimit="10"/>
<path d="M11.8226 16.7294C11.8226 16.6703 11.8817 16.6112 11.9408 16.6112C11.9999 16.6112 12.059 16.6703 12.059 16.7294C12.059 17.4979 12.6502 18.089 13.4186 18.089C13.4777 18.089 13.5369 18.1482 13.5369 18.2073C13.5369 18.2664 13.4777 18.3255 13.4186 18.3255C12.5319 18.2664 11.8226 17.6161 11.8226 16.7294Z" fill="#4E1ABA" stroke="#4E1ABA" stroke-width="0.75" stroke-miterlimit="10"/>
</g>
<defs>
<clipPath id="clip0">
<rect width="36" height="36" fill="white"/>
</clipPath>
</defs>
</svg>
