<svg width="90" height="90" viewBox="0 0 90 90" fill="none" xmlns="http://www.w3.org/2000/svg">
<g clip-path="url(#clip0)">
<path d="M45.0739 90C69.9015 90 90.1478 69.9015 90.1478 44.9261C90 20.0985 69.9015 0 45.0739 0C20.0985 0 0 20.0985 0 45.0739C0 69.9015 20.0985 90 45.0739 90Z" fill="#DDCCFF"/>
<path d="M63.1035 46.2561V46.1083H63.2512H63.1035V46.2561Z" fill="#DDCCFF"/>
<path d="M35.6158 78.6206C31.3301 79.3595 25.8621 80.2462 20.5419 82.7586C26.4532 87.0443 36.2069 90.1477 44.6305 90.1477C53.4975 90.1477 62.9557 87.3398 69.4581 82.463C63.2512 80.0985 57.7833 79.2118 55.2709 78.7684C55.2709 78.6206 55.2709 78.6206 55.2709 78.4728C55.4187 78.1773 55.4187 78.1773 55.4187 78.1773L54.9754 73.4482H55.1232C56.601 73.1526 58.0788 72.5615 59.4089 71.6748C64.1379 68.5714 65.6158 62.5122 65.468 56.6009C65.468 56.0098 65.468 55.4187 65.468 54.8275C65.3202 54.3842 65.3202 53.9408 65.1724 53.4975C64.8768 50.9852 64.1379 48.4728 63.399 46.4039H63.2512H63.399C63.399 46.4039 64.2857 37.6847 59.8522 33.1034C62.8079 29.8522 61.9212 27.4876 60.7389 25.1231C60 23.6453 58.2266 23.2019 57.931 23.2019C55.2709 22.6108 54.3842 21.4285 52.3153 25.1231C51.4286 20.8374 47.5862 19.8029 43.3005 20.8374C36.0591 22.3152 35.468 24.9753 35.468 24.9753C35.468 24.9753 30.5911 22.7586 26.8966 26.7487C22.1675 31.9211 22.3153 34.729 20.6897 36.9458C19.803 38.128 19.803 39.6059 19.803 40.197C19.6552 44.4827 25.5665 52.9063 28.5222 57.0443C26.8966 59.1132 26.4532 61.9211 27.7833 64.4334C29.4089 67.3891 32.9557 68.5714 36.0591 67.3891C35.468 70.7881 35.6158 74.6305 35.6158 78.6206Z" fill="#4E1ABA"/>
<path d="M53.6453 37.9804C53.6453 36.207 52.7586 34.7292 51.2808 33.9903C50.5419 32.5124 48.9163 31.6257 47.2906 31.6257C47.1429 31.6257 46.8473 31.6257 46.6995 31.6257C46.2562 30.8868 45.3695 30.4435 44.4828 30.4435C44.1872 30.4435 43.7438 30.4435 43.4483 30.5912C43.0049 30.1479 42.266 29.8523 41.5271 29.8523C41.0837 29.8523 40.6404 30.0001 40.197 30.1479C39.9015 29.7045 39.4581 29.5568 38.867 29.5568C38.2759 29.5568 37.6847 29.8523 37.3892 30.4435C37.0936 30.4435 36.798 30.2957 36.3547 30.2957C34.7291 30.2957 33.2512 31.1824 32.5123 32.3646C31.0345 32.808 29.8522 34.138 29.4089 35.7637C27.7833 36.5026 26.7488 38.1282 26.7488 40.0494C26.7488 40.4927 26.7488 40.7883 26.8966 41.2316C26.7488 41.675 26.7488 41.9706 26.7488 42.4139C26.7488 43.3006 27.0443 44.1873 27.4877 44.9262C27.7833 46.1085 28.8177 46.9952 30 47.143C30.1478 48.6208 31.3301 49.6553 32.8079 49.6553C33.2512 49.6553 33.8424 49.5075 34.1379 49.2119C34.4335 49.6553 35.0246 49.9508 35.6158 49.9508C35.6158 49.9508 36.6502 50.2464 37.6847 49.6553C38.7192 49.2119 38.867 48.3252 38.867 48.3252C40.0493 47.8819 40.936 46.9952 41.5271 45.9607C42.266 46.4041 43.1527 46.6996 44.1872 46.6996C45.9606 46.6996 47.5862 45.6651 48.3251 44.1873H48.4729C50.8374 44.1873 52.7586 42.4139 53.0542 40.0494C53.9409 39.1627 53.6453 38.7193 53.6453 37.9804Z" fill="#DDCCFF"/>
<path d="M46.2562 33.6946C46.2562 33.5468 46.4039 33.399 46.5517 33.399C46.6995 33.399 46.8473 33.5468 46.8473 33.6946C46.8473 34.7291 47.734 35.468 48.6207 35.468C49.9507 35.468 50.9852 36.5025 50.9852 37.8325C50.9852 37.9803 50.8374 38.1281 50.6897 38.1281C50.5419 38.1281 50.3941 37.9803 50.3941 37.8325C50.3941 36.7981 49.6552 36.0591 48.6207 36.0591C47.2906 36.0591 46.2562 35.0247 46.2562 33.6946Z" fill="#4E1ABA" stroke="#4E1ABA" stroke-width="0.75" stroke-miterlimit="10"/>
<path d="M37.2414 32.8078C37.2414 32.9555 37.0936 33.1033 36.9458 33.1033C35.468 33.1033 34.2857 34.2856 34.2857 35.7634C34.2857 35.9112 34.1379 36.059 33.9901 36.059C33.8424 36.059 33.6946 35.9112 33.6946 35.7634C33.6946 33.99 35.1724 32.66 36.798 32.66C37.0936 32.5122 37.2414 32.66 37.2414 32.8078Z" fill="#4E1ABA" stroke="#4E1ABA" stroke-width="0.75" stroke-miterlimit="10"/>
<path d="M44.6305 36.6503C44.6305 36.6503 44.4827 36.6503 44.4827 36.5025C43.596 35.6158 42.5616 35.1724 41.3793 35.1724C40.197 35.1724 39.0148 35.6158 38.2759 36.5025C38.1281 36.6503 37.9803 36.6503 37.8325 36.5025C37.6847 36.3547 37.6847 36.2069 37.8325 36.0591C38.7192 35.1724 40.0492 34.5813 41.3793 34.5813C42.7093 34.5813 43.8916 35.1724 44.9261 36.0591C45.0739 36.2069 45.0739 36.3547 44.9261 36.5025C44.7783 36.5025 44.7783 36.6503 44.6305 36.6503Z" fill="#4E1ABA" stroke="#4E1ABA" stroke-width="0.75" stroke-miterlimit="10"/>
<path d="M34.8769 42.5615C35.6158 42.266 36.5025 42.266 37.2414 42.5615C37.9803 42.8571 38.7192 43.4482 39.0148 44.1871C39.0148 44.3349 39.0148 44.4827 38.867 44.4827H38.7192C38.5714 44.4827 38.5714 44.4827 38.4236 44.3349C38.1281 43.7438 37.6847 43.1527 36.9458 43.0049C36.3547 42.7093 35.6158 42.7093 34.8769 43.0049C34.7291 43.0049 34.5813 43.0049 34.5813 42.8571C34.7291 42.8571 34.7291 42.7093 34.8769 42.5615Z" fill="#4E1ABA" stroke="#4E1ABA" stroke-width="0.75" stroke-miterlimit="10"/>
<path d="M31.33 35.9113C31.33 35.7635 31.33 35.6157 31.4778 35.6157C31.6256 35.6157 31.7734 35.6157 31.7734 35.7635C32.5123 38.2758 35.1724 39.7537 37.8325 39.0147C39.1626 38.5714 40.6404 38.7192 41.9704 39.4581C43.1527 40.197 44.1872 41.2315 44.4828 42.7093C44.4828 42.8571 44.4827 43.0049 44.335 43.0049C44.335 43.0049 44.335 43.0049 44.1872 43.0049C44.0394 43.0049 44.0394 42.8571 43.8916 42.8571C43.5961 41.6748 42.7094 40.6404 41.5271 39.9014C40.3448 39.3103 39.1626 39.1625 37.8325 39.4581C35.1724 40.4926 32.2167 38.867 31.33 35.9113Z" fill="#4E1ABA" stroke="#4E1ABA" stroke-width="0.75" stroke-miterlimit="10"/>
<path d="M29.5567 41.8225C29.5567 41.6748 29.7044 41.527 29.8522 41.527C30 41.527 30.1478 41.6748 30.1478 41.8225C30.1478 43.7437 31.6256 45.2216 33.5468 45.2216C33.6946 45.2216 33.8424 45.3693 33.8424 45.5171C33.8424 45.6649 33.6946 45.8127 33.5468 45.8127C31.3301 45.6649 29.5567 44.0393 29.5567 41.8225Z" fill="#4E1ABA" stroke="#4E1ABA" stroke-width="0.75" stroke-miterlimit="10"/>
</g>
<defs>
<clipPath id="clip0">
<rect width="90" height="90" fill="white"/>
</clipPath>
</defs>
</svg>
