<svg width="18" height="18" viewBox="0 0 18 18" fill="none" xmlns="http://www.w3.org/2000/svg">
<g clip-path="url(#clip0)">
<path d="M17.0325 8.10781C16.5326 8.10781 16.11 8.52813 16.11 9.02544C16.11 12.9131 12.9105 16.0756 8.9775 16.0756C5.06925 16.0756 1.89 12.9131 1.89 9.02544C1.89 5.1378 5.06925 1.97531 8.9775 1.97531C10.2334 1.97531 11.4534 2.30118 12.519 2.90906L12.2652 2.87415C11.763 2.80297 11.2793 3.15884 11.2082 3.65123L11.2073 3.65705C11.1393 4.19644 11.4831 4.6754 11.9921 4.74747L15.3252 5.19554C15.5876 5.22822 15.8432 5.16376 16.0457 5.0147C16.2549 4.86072 16.3886 4.63064 16.4214 4.37012L16.871 1.06036C16.9056 0.820433 16.839 0.570657 16.6891 0.375491C16.533 0.172268 16.3031 0.0420085 16.0416 0.00888407C15.8013 -0.0242404 15.5515 0.0415609 15.3558 0.190173C15.1506 0.345948 15.0197 0.57558 14.9873 0.834309L14.8023 2.21524C13.1684 0.843709 11.124 0.0952762 8.9775 0.0952762C4.0275 0.0952762 0 4.10154 0 9.02544C0 13.9744 4.0275 18.0004 8.9775 18.0004C13.9527 18.0004 18 13.9744 18 9.02544C18 8.51963 17.5662 8.10781 17.0325 8.10781Z" fill="#DB8F00"/>
<path d="M8.97719 3.81006C8.46869 3.81006 8.05469 4.24202 8.05469 4.77246V9.02492C8.05469 9.3029 8.14334 9.52089 8.33369 9.70979L10.4487 11.8136C10.6431 12.007 10.8874 12.1136 11.1372 12.1136C11.3869 12.1136 11.6317 12.007 11.8257 11.8136C12.1771 11.464 12.1857 10.9161 11.8464 10.511L11.8351 10.4981L9.94469 8.6601V4.77291C9.94469 4.23307 9.51989 3.81006 8.97719 3.81006Z" fill="#DB8F00"/>
</g>
<defs>
<clipPath id="clip0">
<rect width="18" height="18" fill="white"/>
</clipPath>
</defs>
</svg>
