<svg width="36" height="36" viewBox="0 0 36 36" fill="none" xmlns="http://www.w3.org/2000/svg">
<g clip-path="url(#clip0)">
<path d="M18.3819 35.9996C28.1182 35.9996 36.058 28.1178 36.058 18.3236C36 8.58728 28.1182 0.705505 18.3819 0.705505C8.58767 0.705505 0.705902 8.58728 0.705902 18.3815C0.705902 28.1178 8.58767 35.9996 18.3819 35.9996Z" fill="#420FAB"/>
<path d="M25.4524 18.8458V18.7872H25.5109H25.4524V18.8458Z" fill="#D3C4FF"/>
<path d="M14.6729 31.5372C12.9922 31.827 10.8479 32.1747 8.76154 33.1599C11.0797 34.8406 14.9047 36.0577 18.2081 36.0577C21.6853 36.0577 25.3944 34.9565 27.9444 33.044C25.5103 32.1168 23.366 31.769 22.3808 31.5952C22.3808 31.5372 22.3808 31.5372 22.3808 31.4793C22.4387 31.3634 22.4387 31.3634 22.4387 31.3634L22.2649 29.5088H22.3228C22.9024 29.3929 23.4819 29.1611 24.0035 28.8134C25.858 27.5963 26.4376 25.2202 26.3796 22.9021C26.3796 22.6702 26.3796 22.4384 26.3796 22.2066C26.3217 22.0327 26.3217 21.8589 26.2637 21.685C26.1478 20.6998 25.858 19.7146 25.5683 18.9032H25.5103H25.5683C25.5683 18.9032 25.916 15.4839 24.1774 13.6873C25.3364 12.4123 24.9887 11.4851 24.5251 10.5578C24.2353 9.97826 23.5399 9.8044 23.424 9.8044C22.3808 9.57258 22.0331 9.10895 21.2217 10.5578C20.874 8.87713 19.3672 8.47145 17.6865 8.87713C14.8467 9.45668 14.6149 10.4999 14.6149 10.4999C14.6149 10.4999 12.7024 9.63054 11.2536 11.1953C9.39904 13.2237 9.45699 14.3248 8.8195 15.1941C8.47177 15.6578 8.47177 16.2373 8.47177 16.4691C8.41382 18.1498 10.732 21.4532 11.8911 23.0759C11.2536 23.8873 11.0797 24.9884 11.6013 25.9736C12.2388 27.1327 13.6297 27.5963 14.8467 27.1327C14.6149 28.4657 14.6729 29.9725 14.6729 31.5372Z" fill="#D3C4FF"/>
<path d="M21.7433 15.5996C21.7433 14.9041 21.3956 14.3246 20.816 14.0348C20.5262 13.4553 19.8887 13.1076 19.2513 13.1076C19.1933 13.1076 19.0774 13.1076 19.0194 13.1076C18.8456 12.8178 18.4978 12.6439 18.1501 12.6439C18.0342 12.6439 17.8604 12.6439 17.7444 12.7019C17.5706 12.528 17.2808 12.4121 16.991 12.4121C16.8172 12.4121 16.6433 12.4701 16.4695 12.528C16.3535 12.3542 16.1797 12.2962 15.9479 12.2962C15.716 12.2962 15.4842 12.4121 15.3683 12.6439C15.2524 12.6439 15.1365 12.586 14.9626 12.586C14.3251 12.586 13.7456 12.9337 13.4558 13.3973C12.8763 13.5712 12.4127 14.0928 12.2388 14.7303C11.6013 15.0201 11.1956 15.6575 11.1956 16.411C11.1956 16.5848 11.1956 16.7007 11.2536 16.8746C11.1956 17.0484 11.1956 17.1644 11.1956 17.3382C11.1956 17.6859 11.3115 18.0337 11.4854 18.3234C11.6013 18.7871 12.007 19.1348 12.4706 19.1928C12.5286 19.7723 12.9922 20.178 13.5717 20.178C13.7456 20.178 13.9774 20.12 14.0933 20.0041C14.2092 20.178 14.4411 20.2939 14.6729 20.2939C14.6729 20.2939 15.0785 20.4098 15.4842 20.178C15.8899 20.0041 15.9479 19.6564 15.9479 19.6564C16.4115 19.4825 16.7592 19.1348 16.991 18.7291C17.2808 18.903 17.6285 19.0189 18.0342 19.0189C18.7297 19.0189 19.3672 18.6132 19.6569 18.0337H19.7149C20.6422 18.0337 21.3956 17.3382 21.5115 16.411C21.8592 16.0632 21.7433 15.8894 21.7433 15.5996Z" fill="#420FAB"/>
<path d="M18.8456 13.9191C18.8456 13.8611 18.9035 13.8032 18.9615 13.8032C19.0194 13.8032 19.0774 13.8611 19.0774 13.9191C19.0774 14.3247 19.4251 14.6145 19.7728 14.6145C20.2944 14.6145 20.7001 15.0202 20.7001 15.5418C20.7001 15.5997 20.6421 15.6577 20.5842 15.6577C20.5262 15.6577 20.4683 15.5997 20.4683 15.5418C20.4683 15.1361 20.1785 14.8463 19.7728 14.8463C19.2512 14.8463 18.8456 14.4407 18.8456 13.9191Z" fill="#A275FF"/>
<path d="M15.3104 13.5713C15.3104 13.6292 15.2524 13.6872 15.1945 13.6872C14.6149 13.6872 14.1513 14.1508 14.1513 14.7304C14.1513 14.7883 14.0933 14.8463 14.0354 14.8463C13.9774 14.8463 13.9195 14.7883 13.9195 14.7304C13.9195 14.0349 14.499 13.5133 15.1365 13.5133C15.2524 13.4554 15.3104 13.5133 15.3104 13.5713Z" fill="#A275FF"/>
<path d="M18.2081 15.0781C18.2081 15.0781 18.1501 15.0781 18.1501 15.0202C17.8024 14.6725 17.3967 14.4986 16.9331 14.4986C16.4695 14.4986 16.0058 14.6725 15.716 15.0202C15.6581 15.0781 15.6001 15.0781 15.5422 15.0202C15.4842 14.9622 15.4842 14.9043 15.5422 14.8463C15.8899 14.4986 16.4115 14.2668 16.9331 14.2668C17.4547 14.2668 17.9183 14.4986 18.324 14.8463C18.3819 14.9043 18.3819 14.9622 18.324 15.0202C18.266 15.0202 18.266 15.0781 18.2081 15.0781Z" fill="#A275FF"/>
<path d="M14.3831 17.3963C14.6729 17.2804 15.0206 17.2804 15.3104 17.3963C15.6001 17.5122 15.8899 17.744 16.0058 18.0338C16.0058 18.0918 16.0058 18.1497 15.9479 18.1497H15.8899C15.8319 18.1497 15.8319 18.1497 15.774 18.0918C15.6581 17.86 15.4842 17.6281 15.1944 17.5702C14.9626 17.4543 14.6729 17.4543 14.3831 17.5702C14.3251 17.5702 14.2672 17.5702 14.2672 17.5122C14.3251 17.5122 14.3251 17.4543 14.3831 17.3963Z" fill="#A275FF"/>
<path d="M12.9922 14.7885C12.9922 14.7305 12.9922 14.6725 13.0501 14.6725C13.1081 14.6725 13.166 14.6725 13.166 14.7305C13.4558 15.7157 14.499 16.2953 15.5422 16.0055C16.0638 15.8316 16.6433 15.8896 17.1649 16.1794C17.6285 16.4691 18.0342 16.8748 18.1501 17.4543C18.1501 17.5123 18.1501 17.5703 18.0922 17.5703C18.0922 17.5703 18.0922 17.5703 18.0342 17.5703C17.9762 17.5703 17.9762 17.5123 17.9183 17.5123C17.8024 17.0487 17.4547 16.643 16.991 16.3532C16.5274 16.1214 16.0638 16.0634 15.5422 16.1794C14.499 16.585 13.3399 15.9475 12.9922 14.7885Z" fill="#A275FF"/>
<path d="M12.2968 17.1064C12.2968 17.0485 12.3547 16.9905 12.4127 16.9905C12.4706 16.9905 12.5286 17.0485 12.5286 17.1064C12.5286 17.8599 13.1081 18.4394 13.8615 18.4394C13.9195 18.4394 13.9774 18.4973 13.9774 18.5553C13.9774 18.6133 13.9195 18.6712 13.8615 18.6712C12.9922 18.6133 12.2968 17.9758 12.2968 17.1064Z" fill="#A275FF"/>
</g>
<defs>
<clipPath id="clip0">
<rect width="35.2941" height="35.2941" fill="white" transform="translate(0.705902 0.705505)"/>
</clipPath>
</defs>
</svg>
