<svg width="19" height="17" viewBox="0 0 19 17" fill="none" xmlns="http://www.w3.org/2000/svg">
<path d="M18.9058 2.66315C18.2028 2.9766 17.4953 3.20945 16.7117 3.29005C17.4953 2.81988 18.1222 2.03626 18.4357 1.17204C17.652 1.64221 16.8684 1.95566 16.0087 2.11686C15.2251 1.33324 14.2041 0.863068 13.1115 0.863068C10.9935 0.863068 9.26955 2.58703 9.26955 4.70056C9.26955 5.01401 9.26955 5.32746 9.35015 5.56479C6.13507 5.40806 3.31852 3.91694 1.43335 1.56609C1.0393 2.11686 0.887058 2.81988 0.887058 3.52737C0.887058 4.86177 1.59008 6.03944 2.61102 6.74245C1.98413 6.66185 1.35723 6.50513 0.887058 6.27228C0.887058 6.27228 0.887058 6.27228 0.887058 6.35288C0.887058 8.23357 2.21697 9.80081 3.94094 10.1143C3.62749 10.1904 3.31852 10.271 2.92447 10.271C2.68714 10.271 2.4543 10.271 2.21697 10.1904C2.68714 11.7576 4.09766 12.8547 5.82162 12.8547C4.48723 13.8712 2.83939 14.4936 1.03483 14.4936C0.721378 14.4936 0.40793 14.4936 0.0944824 14.4174C1.81845 15.5145 3.85586 16.1414 5.97387 16.1414C13.107 16.1414 16.9445 10.262 16.9445 5.17074C16.9445 5.01401 16.9445 4.85729 16.9445 4.70056C17.7282 4.14979 18.3551 3.44677 18.9058 2.66315Z" fill="white"/>
</svg>
