<svg width="40" height="39" viewBox="0 0 40 39" fill="none" xmlns="http://www.w3.org/2000/svg">
<circle cx="20.142" cy="19.4994" r="19.4994" fill="#FF0000"/>
<g clip-path="url(#clip0)">
<g filter="url(#filter0_d)">
<path d="M30.3876 25.3162C30.1402 26.2401 29.4179 26.9685 28.5017 27.218C26.8299 27.6766 20.1391 27.6766 20.1391 27.6766C20.1391 27.6766 13.4483 27.6766 11.7731 27.2315C10.8736 26.9819 10.1347 26.2367 9.88725 25.3128C9.44922 23.6268 9.44922 20.1301 9.44922 20.1301C9.44922 20.1301 9.44922 16.6131 9.89059 14.944C10.138 14.0201 10.8603 13.2917 11.7764 13.0422C13.4684 12.5802 20.1424 12.5802 20.1424 12.5802C20.1424 12.5802 26.8332 12.5802 28.5084 13.0253C29.4246 13.2749 30.1469 14.0032 30.3943 14.9271C30.8357 16.6131 30.8357 20.1132 30.8357 20.1132C30.8357 20.1132 30.8457 23.6268 30.3876 25.3162ZM18.0091 16.8964V23.3604L23.5731 20.1267L18.0091 16.8964Z" fill="white"/>
</g>
</g>
<defs>
<filter id="filter0_d" x="5.44922" y="12.5803" width="29.3865" height="23.0963" filterUnits="userSpaceOnUse" color-interpolation-filters="sRGB">
<feFlood flood-opacity="0" result="BackgroundImageFix"/>
<feColorMatrix in="SourceAlpha" type="matrix" values="0 0 0 0 0 0 0 0 0 0 0 0 0 0 0 0 0 0 127 0"/>
<feOffset dy="4"/>
<feGaussianBlur stdDeviation="2"/>
<feColorMatrix type="matrix" values="0 0 0 0 0 0 0 0 0 0 0 0 0 0 0 0 0 0 0.25 0"/>
<feBlend mode="normal" in2="BackgroundImageFix" result="effect1_dropShadow"/>
<feBlend mode="normal" in="SourceGraphic" in2="effect1_dropShadow" result="shape"/>
</filter>
<clipPath id="clip0">
<rect width="28.9346" height="20.1284" fill="white" transform="matrix(1 0 0 -1 5.6748 27.6766)"/>
</clipPath>
</defs>
</svg>
